<svg width="490" height="190" viewBox="0 0 490 190" fill="none" xmlns="http://www.w3.org/2000/svg">
<path d="M52.533 9.04761L17.1743 37.8355L13.1333 148.463L56.0689 184.654H429.861L477.342 147.641V42.3593L438.953 9.87012L52.533 9.04761Z" fill="#A1C2D8"/>
<rect y="51.8181" width="21.2152" height="17.2727" fill="#292734"/>
<rect x="468.755" y="51.8181" width="21.2152" height="17.2727" fill="#292734"/>
<rect x="21.2153" y="155.455" width="21.2152" height="17.2727" fill="#292734"/>
<rect x="447.54" y="155.455" width="21.2152" height="17.2727" fill="#292734"/>
<rect x="42.4307" width="21.2152" height="17.2727" fill="#292734"/>
<rect x="41.4204" y="172.727" width="21.2152" height="17.2727" fill="#292734"/>
<rect x="62.6353" width="21.2152" height="17.2727" fill="#292734"/>
<rect x="61.625" y="172.727" width="21.2152" height="17.2727" fill="#292734"/>
<rect x="244.48" width="21.2152" height="17.2727" fill="#292734"/>
<rect x="243.47" y="172.727" width="21.2152" height="17.2727" fill="#292734"/>
<rect x="82.8403" width="21.2152" height="17.2727" fill="#292734"/>
<rect x="81.8301" y="172.727" width="21.2152" height="17.2727" fill="#292734"/>
<rect x="264.685" width="21.2152" height="17.2727" fill="#292734"/>
<rect x="263.675" y="172.727" width="21.2152" height="17.2727" fill="#292734"/>
<rect x="103.045" width="21.2152" height="17.2727" fill="#292734"/>
<rect x="102.035" y="172.727" width="21.2152" height="17.2727" fill="#292734"/>
<rect x="284.89" width="21.2152" height="17.2727" fill="#292734"/>
<rect x="283.88" y="172.727" width="21.2152" height="17.2727" fill="#292734"/>
<rect x="123.25" width="21.2152" height="17.2727" fill="#292734"/>
<rect x="122.24" y="172.727" width="21.2152" height="17.2727" fill="#292734"/>
<rect x="305.095" width="21.2152" height="17.2727" fill="#292734"/>
<rect x="304.085" y="172.727" width="21.2152" height="17.2727" fill="#292734"/>
<rect x="143.455" width="21.2152" height="17.2727" fill="#292734"/>
<rect x="142.445" y="172.727" width="21.2152" height="17.2727" fill="#292734"/>
<rect x="325.3" width="21.2152" height="17.2727" fill="#292734"/>
<rect x="324.29" y="172.727" width="21.2152" height="17.2727" fill="#292734"/>
<rect x="163.66" width="21.2152" height="17.2727" fill="#292734"/>
<rect x="162.65" y="172.727" width="21.2152" height="17.2727" fill="#292734"/>
<rect x="345.505" width="21.2152" height="17.2727" fill="#292734"/>
<rect x="344.495" y="172.727" width="21.2152" height="17.2727" fill="#292734"/>
<rect x="183.865" width="21.2152" height="17.2727" fill="#292734"/>
<rect x="182.855" y="172.727" width="21.2152" height="17.2727" fill="#292734"/>
<rect x="365.71" width="21.2152" height="17.2727" fill="#292734"/>
<rect x="364.7" y="172.727" width="21.2152" height="17.2727" fill="#292734"/>
<rect x="204.07" width="21.2152" height="17.2727" fill="#292734"/>
<rect x="203.06" y="172.727" width="21.2152" height="17.2727" fill="#292734"/>
<rect x="385.915" width="21.2152" height="17.2727" fill="#292734"/>
<rect x="384.905" y="172.727" width="21.2152" height="17.2727" fill="#292734"/>
<rect x="224.275" width="21.2152" height="17.2727" fill="#292734"/>
<rect x="223.265" y="172.727" width="21.2152" height="17.2727" fill="#292734"/>
<rect x="406.12" width="21.2152" height="17.2727" fill="#292734"/>
<rect x="405.11" y="172.727" width="21.2152" height="17.2727" fill="#292734"/>
<rect x="426.325" width="21.2152" height="17.2727" fill="#292734"/>
<rect x="425.314" y="172.727" width="21.2152" height="17.2727" fill="#292734"/>
<rect y="103.636" width="21.2152" height="17.2727" fill="#292734"/>
<rect x="468.755" y="103.636" width="21.2152" height="17.2727" fill="#292734"/>
<rect x="468.755" y="34.5454" width="21.2152" height="17.2727" fill="#292734"/>
<rect y="138.182" width="21.2152" height="17.2727" fill="#292734"/>
<rect x="468.755" y="138.182" width="21.2152" height="17.2727" fill="#292734"/>
<rect y="86.3636" width="21.2152" height="17.2727" fill="#292734"/>
<rect x="468.755" y="86.3636" width="21.2152" height="17.2727" fill="#292734"/>
<rect x="21.2153" y="17.2727" width="21.2152" height="17.2727" fill="#292734"/>
<rect y="34.5454" width="21.2152" height="17.2727" fill="#292734"/>
<rect x="447.54" y="17.2727" width="21.2152" height="17.2727" fill="#292734"/>
<rect y="120.909" width="21.2152" height="17.2727" fill="#292734"/>
<rect x="468.755" y="120.909" width="21.2152" height="17.2727" fill="#292734"/>
<rect y="69.0909" width="21.2152" height="17.2727" fill="#292734"/>
<rect x="468.755" y="69.0909" width="21.2152" height="17.2727" fill="#292734"/>
<rect x="21.2153" y="51.8181" width="21.2152" height="17.2727" fill="#C4D6E0"/>
<rect x="41.4204" y="17.2727" width="21.2152" height="17.2727" fill="#C4D6E0"/>
<rect x="42.4307" y="34.5454" width="21.2152" height="17.2727" fill="#C4D6E0"/>
<rect x="61.6255" y="17.2727" width="21.2152" height="17.2727" fill="#C4D6E0"/>
<rect x="243.47" y="17.2727" width="21.2152" height="17.2727" fill="#C4D6E0"/>
<rect x="81.8301" y="17.2727" width="21.2152" height="17.2727" fill="#C4D6E0"/>
<rect x="263.675" y="17.2727" width="21.2152" height="17.2727" fill="#C4D6E0"/>
<rect x="102.035" y="17.2727" width="21.2152" height="17.2727" fill="#C4D6E0"/>
<rect x="283.88" y="17.2727" width="21.2152" height="17.2727" fill="#C4D6E0"/>
<rect x="122.24" y="17.2727" width="21.2152" height="17.2727" fill="#C4D6E0"/>
<rect x="304.085" y="17.2727" width="21.2152" height="17.2727" fill="#C4D6E0"/>
<rect x="142.445" y="17.2727" width="21.2152" height="17.2727" fill="#C4D6E0"/>
<rect x="324.29" y="17.2727" width="21.2152" height="17.2727" fill="#C4D6E0"/>
<rect x="162.65" y="17.2727" width="21.2152" height="17.2727" fill="#C4D6E0"/>
<rect x="344.495" y="17.2727" width="21.2152" height="17.2727" fill="#C4D6E0"/>
<rect x="182.855" y="17.2727" width="21.2152" height="17.2727" fill="#C4D6E0"/>
<rect x="364.7" y="17.2727" width="21.2152" height="17.2727" fill="#C4D6E0"/>
<rect x="203.06" y="17.2727" width="21.2152" height="17.2727" fill="#C4D6E0"/>
<rect x="384.905" y="17.2727" width="21.2152" height="17.2727" fill="#C4D6E0"/>
<rect x="223.265" y="17.2727" width="21.2152" height="17.2727" fill="#C4D6E0"/>
<rect x="405.11" y="17.2727" width="21.2152" height="17.2727" fill="#C4D6E0"/>
<rect x="21.2153" y="103.636" width="21.2152" height="17.2727" fill="#C4D6E0"/>
<rect x="21.2153" y="86.3635" width="21.2152" height="17.2727" fill="#C4D6E0"/>
<rect x="21.2153" y="34.5454" width="21.2152" height="17.2727" fill="#C4D6E0"/>
<rect x="21.2153" y="120.909" width="21.2152" height="17.2727" fill="#C4D6E0"/>
<rect x="21.2153" y="69.0908" width="21.2152" height="17.2727" fill="#C4D6E0"/>
<rect x="447.541" y="51.8181" width="21.2152" height="17.2727" fill="#4E6693"/>
<rect x="42.4307" y="155.455" width="21.2152" height="17.2727" fill="#4E6693"/>
<rect x="62.6357" y="155.455" width="21.2152" height="17.2727" fill="#4E6693"/>
<rect x="244.48" y="155.455" width="21.2152" height="17.2727" fill="#4E6693"/>
<rect x="82.8408" y="155.455" width="21.2152" height="17.2727" fill="#4E6693"/>
<rect x="264.686" y="155.455" width="21.2152" height="17.2727" fill="#4E6693"/>
<rect x="103.045" y="155.455" width="21.2152" height="17.2727" fill="#4E6693"/>
<rect x="284.89" y="155.455" width="21.2152" height="17.2727" fill="#4E6693"/>
<rect x="123.25" y="155.455" width="21.2152" height="17.2727" fill="#4E6693"/>
<rect x="305.095" y="155.455" width="21.2152" height="17.2727" fill="#4E6693"/>
<rect x="143.456" y="155.455" width="21.2152" height="17.2727" fill="#4E6693"/>
<rect x="325.3" y="155.455" width="21.2152" height="17.2727" fill="#4E6693"/>
<rect x="163.661" y="155.455" width="21.2152" height="17.2727" fill="#4E6693"/>
<rect x="345.505" y="155.455" width="21.2152" height="17.2727" fill="#4E6693"/>
<rect x="183.865" y="155.455" width="21.2152" height="17.2727" fill="#4E6693"/>
<rect x="365.71" y="155.455" width="21.2152" height="17.2727" fill="#4E6693"/>
<rect x="204.07" y="155.455" width="21.2152" height="17.2727" fill="#4E6693"/>
<rect x="385.915" y="155.455" width="21.2152" height="17.2727" fill="#4E6693"/>
<rect x="224.275" y="155.455" width="21.2152" height="17.2727" fill="#4E6693"/>
<rect x="406.12" y="155.455" width="21.2152" height="17.2727" fill="#4E6693"/>
<rect x="447.541" y="103.636" width="21.2152" height="17.2727" fill="#4E6693"/>
<rect x="447.541" y="34.5454" width="21.2152" height="17.2727" fill="#4E6693"/>
<rect x="447.541" y="138.182" width="21.2152" height="17.2727" fill="#4E6693"/>
<rect x="427.335" y="138.182" width="21.2152" height="17.2727" fill="#4E6693"/>
<rect x="426.325" y="155.455" width="21.2152" height="17.2727" fill="#4E6693"/>
<rect x="447.541" y="86.3635" width="21.2152" height="17.2727" fill="#4E6693"/>
<rect x="447.541" y="120.909" width="21.2152" height="17.2727" fill="#4E6693"/>
<rect x="447.541" y="69.0909" width="21.2152" height="17.2727" fill="#4E6693"/>
<path d="M175.798 87.768V82.008H169.974V52.44H175.798V46.616H193.846V52.44H199.734V64.6H193.206V53.08H176.438V81.368H193.206V76.184H187.446V70.36H181.558V64.024H188.086V69.72H199.734V82.008H193.846V87.768H175.798ZM213.938 87.768V82.008H208.114V64.024H213.938V58.2H231.986V64.024H237.874V81.368H243.698V87.768H237.234V82.008H231.986V87.768H213.938ZM214.578 81.368H231.346V64.6H214.578V81.368ZM250.129 87.768V58.2H268.241V64.024H273.361V58.2H285.713V64.024H291.473V87.768H285.073V64.6H274.001V87.768H267.601V64.6H256.593V87.768H250.129ZM305.03 87.768V82.008H299.206V64.024H305.03V58.2H323.078V64.024H328.966V70.36H322.438V64.6H305.67V69.72H317.318V76.184H305.67V81.368H322.438V75.48H328.966V81.944H323.078V87.768H305.03ZM130.514 140.768V99.616H136.978V117.024H142.098V111.2H148.626V117.024H153.746V99.616H160.274V140.768H153.746V123.36H136.978V140.768H130.514ZM168.654 140.768V111.2H175.118V140.768H168.654ZM168.654 106.08V99.616H175.118V106.08H168.654ZM183.481 140.768V134.368H206.713V129.184H189.305V123.36H183.481V117.024H189.305V111.2H213.241V117.6H189.945V122.72H207.353V128.544H213.241V135.008H207.353V140.768H183.481ZM233.205 140.768V135.008H227.445V117.6H221.621V111.2H227.445V99.616H233.845V111.2H251.381V117.6H233.845V134.368H250.741V128.544H257.205V135.008H251.381V140.768H233.205ZM269.46 140.768V135.008H263.636V117.024H269.46V111.2H287.508V117.024H293.396V135.008H287.508V140.768H269.46ZM270.1 134.368H286.868V117.6H270.1V134.368ZM301.776 140.768V117.024H307.6V111.2H325.648V117.024H331.536V123.36H325.008V117.6H308.24V140.768H301.776ZM344.49 152.352V146.592H338.666V140.192H345.13V145.952H361.962V135.008H344.49V129.184H338.666V111.2H345.13V128.544H361.962V111.2H368.426V146.592H362.602V152.352H344.49Z" fill="#292734"/>
</svg>
