<svg width="490" height="190" viewBox="0 0 490 190" fill="none" xmlns="http://www.w3.org/2000/svg">
<path d="M52.533 9.04761L17.1743 37.8355L13.1333 148.463L56.0689 184.654H429.861L477.342 147.641V42.3593L438.953 9.87012L52.533 9.04761Z" fill="#96B5C9"/>
<rect y="51.8182" width="21.2152" height="17.2727" fill="#292734"/>
<rect x="468.755" y="51.8182" width="21.2152" height="17.2727" fill="#292734"/>
<rect x="21.2153" y="155.455" width="21.2152" height="17.2727" fill="#292734"/>
<rect x="447.54" y="155.455" width="21.2152" height="17.2727" fill="#292734"/>
<rect x="42.4307" width="21.2152" height="17.2727" fill="#292734"/>
<rect x="41.4204" y="172.727" width="21.2152" height="17.2727" fill="#292734"/>
<rect x="62.6353" width="21.2152" height="17.2727" fill="#292734"/>
<rect x="61.625" y="172.727" width="21.2152" height="17.2727" fill="#292734"/>
<rect x="244.48" width="21.2152" height="17.2727" fill="#292734"/>
<rect x="243.47" y="172.727" width="21.2152" height="17.2727" fill="#292734"/>
<rect x="82.8403" width="21.2152" height="17.2727" fill="#292734"/>
<rect x="81.8301" y="172.727" width="21.2152" height="17.2727" fill="#292734"/>
<rect x="264.685" width="21.2152" height="17.2727" fill="#292734"/>
<rect x="263.675" y="172.727" width="21.2152" height="17.2727" fill="#292734"/>
<rect x="103.045" width="21.2152" height="17.2727" fill="#292734"/>
<rect x="102.035" y="172.727" width="21.2152" height="17.2727" fill="#292734"/>
<rect x="284.89" width="21.2152" height="17.2727" fill="#292734"/>
<rect x="283.88" y="172.727" width="21.2152" height="17.2727" fill="#292734"/>
<rect x="123.25" width="21.2152" height="17.2727" fill="#292734"/>
<rect x="122.24" y="172.727" width="21.2152" height="17.2727" fill="#292734"/>
<rect x="305.095" width="21.2152" height="17.2727" fill="#292734"/>
<rect x="304.085" y="172.727" width="21.2152" height="17.2727" fill="#292734"/>
<rect x="143.455" width="21.2152" height="17.2727" fill="#292734"/>
<rect x="142.445" y="172.727" width="21.2152" height="17.2727" fill="#292734"/>
<rect x="325.3" width="21.2152" height="17.2727" fill="#292734"/>
<rect x="324.29" y="172.727" width="21.2152" height="17.2727" fill="#292734"/>
<rect x="163.66" width="21.2152" height="17.2727" fill="#292734"/>
<rect x="162.65" y="172.727" width="21.2152" height="17.2727" fill="#292734"/>
<rect x="345.505" width="21.2152" height="17.2727" fill="#292734"/>
<rect x="344.495" y="172.727" width="21.2152" height="17.2727" fill="#292734"/>
<rect x="183.865" width="21.2152" height="17.2727" fill="#292734"/>
<rect x="182.855" y="172.727" width="21.2152" height="17.2727" fill="#292734"/>
<rect x="365.71" width="21.2152" height="17.2727" fill="#292734"/>
<rect x="364.7" y="172.727" width="21.2152" height="17.2727" fill="#292734"/>
<rect x="204.07" width="21.2152" height="17.2727" fill="#292734"/>
<rect x="203.06" y="172.727" width="21.2152" height="17.2727" fill="#292734"/>
<rect x="385.915" width="21.2152" height="17.2727" fill="#292734"/>
<rect x="384.905" y="172.727" width="21.2152" height="17.2727" fill="#292734"/>
<rect x="224.275" width="21.2152" height="17.2727" fill="#292734"/>
<rect x="223.265" y="172.727" width="21.2152" height="17.2727" fill="#292734"/>
<rect x="406.12" width="21.2152" height="17.2727" fill="#292734"/>
<rect x="405.11" y="172.727" width="21.2152" height="17.2727" fill="#292734"/>
<rect x="426.325" width="21.2152" height="17.2727" fill="#292734"/>
<rect x="425.314" y="172.727" width="21.2152" height="17.2727" fill="#292734"/>
<rect y="103.636" width="21.2152" height="17.2727" fill="#292734"/>
<rect x="468.755" y="103.636" width="21.2152" height="17.2727" fill="#292734"/>
<rect x="468.755" y="34.5454" width="21.2152" height="17.2727" fill="#292734"/>
<rect y="138.182" width="21.2152" height="17.2727" fill="#292734"/>
<rect x="468.755" y="138.182" width="21.2152" height="17.2727" fill="#292734"/>
<rect y="86.3637" width="21.2152" height="17.2727" fill="#292734"/>
<rect x="468.755" y="86.3637" width="21.2152" height="17.2727" fill="#292734"/>
<rect x="21.2153" y="17.2728" width="21.2152" height="17.2727" fill="#292734"/>
<rect y="34.5454" width="21.2152" height="17.2727" fill="#292734"/>
<rect x="447.54" y="17.2728" width="21.2152" height="17.2727" fill="#292734"/>
<rect y="120.909" width="21.2152" height="17.2727" fill="#292734"/>
<rect x="468.755" y="120.909" width="21.2152" height="17.2727" fill="#292734"/>
<rect y="69.0909" width="21.2152" height="17.2727" fill="#292734"/>
<rect x="468.755" y="69.0909" width="21.2152" height="17.2727" fill="#292734"/>
<rect x="21.2153" y="51.8182" width="21.2152" height="17.2727" fill="#B0C2CC"/>
<rect x="41.4204" y="17.2728" width="21.2152" height="17.2727" fill="#B0C2CC"/>
<rect x="42.4307" y="34.5454" width="21.2152" height="17.2727" fill="#B0C2CC"/>
<rect x="61.6255" y="17.2728" width="21.2152" height="17.2727" fill="#B0C2CC"/>
<rect x="243.47" y="17.2728" width="21.2152" height="17.2727" fill="#B0C2CC"/>
<rect x="81.8301" y="17.2728" width="21.2152" height="17.2727" fill="#B0C2CC"/>
<rect x="263.675" y="17.2728" width="21.2152" height="17.2727" fill="#B0C2CC"/>
<rect x="102.035" y="17.2728" width="21.2152" height="17.2727" fill="#B0C2CC"/>
<rect x="283.88" y="17.2728" width="21.2152" height="17.2727" fill="#B0C2CC"/>
<rect x="122.24" y="17.2728" width="21.2152" height="17.2727" fill="#B0C2CC"/>
<rect x="304.085" y="17.2728" width="21.2152" height="17.2727" fill="#B0C2CC"/>
<rect x="142.445" y="17.2728" width="21.2152" height="17.2727" fill="#B0C2CC"/>
<rect x="324.29" y="17.2728" width="21.2152" height="17.2727" fill="#B0C2CC"/>
<rect x="162.65" y="17.2728" width="21.2152" height="17.2727" fill="#B0C2CC"/>
<rect x="344.495" y="17.2728" width="21.2152" height="17.2727" fill="#B0C2CC"/>
<rect x="182.855" y="17.2728" width="21.2152" height="17.2727" fill="#B0C2CC"/>
<rect x="364.7" y="17.2728" width="21.2152" height="17.2727" fill="#B0C2CC"/>
<rect x="203.06" y="17.2728" width="21.2152" height="17.2727" fill="#B0C2CC"/>
<rect x="384.905" y="17.2728" width="21.2152" height="17.2727" fill="#B0C2CC"/>
<rect x="223.265" y="17.2728" width="21.2152" height="17.2727" fill="#B0C2CC"/>
<rect x="405.11" y="17.2728" width="21.2152" height="17.2727" fill="#B0C2CC"/>
<rect x="21.2153" y="103.636" width="21.2152" height="17.2727" fill="#B0C2CC"/>
<rect x="21.2153" y="86.3636" width="21.2152" height="17.2727" fill="#B0C2CC"/>
<rect x="21.2153" y="34.5454" width="21.2152" height="17.2727" fill="#B0C2CC"/>
<rect x="21.2153" y="120.909" width="21.2152" height="17.2727" fill="#B0C2CC"/>
<rect x="21.2153" y="69.0909" width="21.2152" height="17.2727" fill="#B0C2CC"/>
<rect x="447.541" y="51.8182" width="21.2152" height="17.2727" fill="#4E6693"/>
<rect x="42.4307" y="155.455" width="21.2152" height="17.2727" fill="#4E6693"/>
<rect x="62.6357" y="155.455" width="21.2152" height="17.2727" fill="#4E6693"/>
<rect x="244.48" y="155.455" width="21.2152" height="17.2727" fill="#4E6693"/>
<rect x="82.8408" y="155.455" width="21.2152" height="17.2727" fill="#4E6693"/>
<rect x="264.686" y="155.455" width="21.2152" height="17.2727" fill="#4E6693"/>
<rect x="103.045" y="155.455" width="21.2152" height="17.2727" fill="#4E6693"/>
<rect x="284.89" y="155.455" width="21.2152" height="17.2727" fill="#4E6693"/>
<rect x="123.25" y="155.455" width="21.2152" height="17.2727" fill="#4E6693"/>
<rect x="305.095" y="155.455" width="21.2152" height="17.2727" fill="#4E6693"/>
<rect x="143.456" y="155.455" width="21.2152" height="17.2727" fill="#4E6693"/>
<rect x="325.3" y="155.455" width="21.2152" height="17.2727" fill="#4E6693"/>
<rect x="163.661" y="155.455" width="21.2152" height="17.2727" fill="#4E6693"/>
<rect x="345.505" y="155.455" width="21.2152" height="17.2727" fill="#4E6693"/>
<rect x="183.865" y="155.455" width="21.2152" height="17.2727" fill="#4E6693"/>
<rect x="365.71" y="155.455" width="21.2152" height="17.2727" fill="#4E6693"/>
<rect x="204.07" y="155.455" width="21.2152" height="17.2727" fill="#4E6693"/>
<rect x="385.915" y="155.455" width="21.2152" height="17.2727" fill="#4E6693"/>
<rect x="224.275" y="155.455" width="21.2152" height="17.2727" fill="#4E6693"/>
<rect x="406.12" y="155.455" width="21.2152" height="17.2727" fill="#4E6693"/>
<rect x="447.541" y="103.636" width="21.2152" height="17.2727" fill="#4E6693"/>
<rect x="447.541" y="34.5454" width="21.2152" height="17.2727" fill="#4E6693"/>
<rect x="447.541" y="138.182" width="21.2152" height="17.2727" fill="#4E6693"/>
<rect x="427.335" y="138.182" width="21.2152" height="17.2727" fill="#4E6693"/>
<rect x="426.325" y="155.455" width="21.2152" height="17.2727" fill="#4E6693"/>
<rect x="447.541" y="86.3636" width="21.2152" height="17.2727" fill="#4E6693"/>
<rect x="447.541" y="120.909" width="21.2152" height="17.2727" fill="#4E6693"/>
<rect x="447.541" y="69.0909" width="21.2152" height="17.2727" fill="#4E6693"/>
<path d="M140.834 87.768V46.616H147.298V64.024H152.418V58.2H158.946V64.024H164.066V46.616H170.594V87.768H164.066V70.36H147.298V87.768H140.834ZM183.548 87.768V82.008H177.724V64.024H183.548V58.2H201.596V64.024H207.484V70.36H200.956V64.6H184.188V69.72H195.836V76.184H184.188V81.368H200.956V75.48H207.484V81.944H201.596V87.768H183.548ZM215.864 87.768V64.024H221.688V58.2H239.736V64.024H245.624V70.36H239.096V64.6H222.328V87.768H215.864ZM257.89 87.768V82.008H252.066V64.024H257.89V58.2H275.938V64.024H281.826V82.008H275.938V87.768H257.89ZM258.53 81.368H275.298V64.6H258.53V81.368ZM296.03 87.768V82.008H290.206V64.024H296.03V58.2H314.078V64.024H319.966V70.36H313.438V64.6H296.67V69.72H308.318V76.184H296.67V81.368H313.438V75.48H319.966V81.944H314.078V87.768H296.03ZM328.346 87.768V81.368H351.578V76.184H334.17V70.36H328.346V64.024H334.17V58.2H358.106V64.6H334.81V69.72H352.218V75.544H358.106V82.008H352.218V87.768H328.346ZM116.073 140.768V135.008H110.249V128.544H116.073V122.72H121.833V117.6H116.073V111.84H110.249V105.44H116.073V99.616H134.121V105.44H140.009V111.84H134.121V117.6H128.361V122.72H134.121V128.544H140.009V134.368H145.833V140.768H139.369V135.008H134.121V140.768H116.073ZM116.713 134.368H133.481V129.184H127.721V123.36H122.473V129.184H116.713V134.368ZM122.473 117.024H127.721V111.2H133.481V106.08H116.713V111.2H122.473V117.024ZM167.654 140.768V105.44H173.478V99.616H179.878V105.44H185.766V117.024H190.886V105.44H196.774V99.616H203.238V105.44H208.998V140.768H202.598V106.08H197.414V117.6H191.526V135.008H185.126V117.6H179.238V106.08H174.118V140.768H167.654ZM217.356 140.768V111.2H223.82V140.768H217.356ZM217.356 106.08V99.616H223.82V106.08H217.356ZM232.184 140.768V134.368H255.416V129.184H238.008V123.36H232.184V117.024H238.008V111.2H261.944V117.6H238.648V122.72H256.056V128.544H261.944V135.008H256.056V140.768H232.184ZM269.074 140.768V134.368H292.306V129.184H274.898V123.36H269.074V117.024H274.898V111.2H298.834V117.6H275.538V122.72H292.946V128.544H298.834V135.008H292.946V140.768H269.074ZM307.214 140.768V111.2H313.678V140.768H307.214ZM307.214 106.08V99.616H313.678V106.08H307.214ZM326.615 140.768V135.008H320.791V117.024H326.615V111.2H344.663V117.024H350.551V135.008H344.663V140.768H326.615ZM327.255 134.368H344.023V117.6H327.255V134.368ZM358.931 140.768V111.2H382.803V117.024H388.691V140.768H382.163V117.6H365.395V140.768H358.931Z" fill="#292734"/>
</svg>
