<svg width="485" height="231" viewBox="0 0 485 231" fill="none" xmlns="http://www.w3.org/2000/svg">
<path d="M52 11L17 46L13 180.5L55.5 224.5H425.5L472.5 179.5V51.5L434.5 12L52 11Z" fill="#D58D65"/>
<rect y="63" width="21" height="21" fill="#292734"/>
<rect x="464" y="63" width="21" height="21" fill="#292734"/>
<rect x="21" y="189" width="21" height="21" fill="#292734"/>
<rect x="443" y="189" width="21" height="21" fill="#292734"/>
<rect x="42" width="21" height="21" fill="#292734"/>
<rect x="41" y="210" width="21" height="21" fill="#292734"/>
<rect x="62" width="21" height="21" fill="#292734"/>
<rect x="61" y="210" width="21" height="21" fill="#292734"/>
<rect x="242" width="21" height="21" fill="#292734"/>
<rect x="241" y="210" width="21" height="21" fill="#292734"/>
<rect x="82" width="21" height="21" fill="#292734"/>
<rect x="81" y="210" width="21" height="21" fill="#292734"/>
<rect x="262" width="21" height="21" fill="#292734"/>
<rect x="261" y="210" width="21" height="21" fill="#292734"/>
<rect x="102" width="21" height="21" fill="#292734"/>
<rect x="101" y="210" width="21" height="21" fill="#292734"/>
<rect x="282" width="21" height="21" fill="#292734"/>
<rect x="281" y="210" width="21" height="21" fill="#292734"/>
<rect x="122" width="21" height="21" fill="#292734"/>
<rect x="121" y="210" width="21" height="21" fill="#292734"/>
<rect x="302" width="21" height="21" fill="#292734"/>
<rect x="301" y="210" width="21" height="21" fill="#292734"/>
<rect x="142" width="21" height="21" fill="#292734"/>
<rect x="141" y="210" width="21" height="21" fill="#292734"/>
<rect x="322" width="21" height="21" fill="#292734"/>
<rect x="321" y="210" width="21" height="21" fill="#292734"/>
<rect x="162" width="21" height="21" fill="#292734"/>
<rect x="161" y="210" width="21" height="21" fill="#292734"/>
<rect x="342" width="21" height="21" fill="#292734"/>
<rect x="341" y="210" width="21" height="21" fill="#292734"/>
<rect x="182" width="21" height="21" fill="#292734"/>
<rect x="181" y="210" width="21" height="21" fill="#292734"/>
<rect x="362" width="21" height="21" fill="#292734"/>
<rect x="361" y="210" width="21" height="21" fill="#292734"/>
<rect x="202" width="21" height="21" fill="#292734"/>
<rect x="201" y="210" width="21" height="21" fill="#292734"/>
<rect x="382" width="21" height="21" fill="#292734"/>
<rect x="381" y="210" width="21" height="21" fill="#292734"/>
<rect x="222" width="21" height="21" fill="#292734"/>
<rect x="221" y="210" width="21" height="21" fill="#292734"/>
<rect x="402" width="21" height="21" fill="#292734"/>
<rect x="401" y="210" width="21" height="21" fill="#292734"/>
<rect x="422" width="21" height="21" fill="#292734"/>
<rect x="421" y="210" width="21" height="21" fill="#292734"/>
<rect y="126" width="21" height="21" fill="#292734"/>
<rect x="464" y="126" width="21" height="21" fill="#292734"/>
<rect x="464" y="42" width="21" height="21" fill="#292734"/>
<rect y="168" width="21" height="21" fill="#292734"/>
<rect x="464" y="168" width="21" height="21" fill="#292734"/>
<rect y="105" width="21" height="21" fill="#292734"/>
<rect x="464" y="105" width="21" height="21" fill="#292734"/>
<rect x="21" y="21" width="21" height="21" fill="#292734"/>
<rect y="42" width="21" height="21" fill="#292734"/>
<rect x="443" y="21" width="21" height="21" fill="#292734"/>
<rect y="147" width="21" height="21" fill="#292734"/>
<rect x="464" y="147" width="21" height="21" fill="#292734"/>
<rect y="84" width="21" height="21" fill="#292734"/>
<rect x="464" y="84" width="21" height="21" fill="#292734"/>
<rect x="21" y="63" width="21" height="21" fill="#DE9F76"/>
<rect x="41" y="21" width="21" height="21" fill="#DE9F76"/>
<rect x="42" y="42" width="21" height="21" fill="#DE9F76"/>
<rect x="61" y="21" width="21" height="21" fill="#DE9F76"/>
<rect x="241" y="21" width="21" height="21" fill="#DE9F76"/>
<rect x="81" y="21" width="21" height="21" fill="#DE9F76"/>
<rect x="261" y="21" width="21" height="21" fill="#DE9F76"/>
<rect x="101" y="21" width="21" height="21" fill="#DE9F76"/>
<rect x="281" y="21" width="21" height="21" fill="#DE9F76"/>
<rect x="121" y="21" width="21" height="21" fill="#DE9F76"/>
<rect x="301" y="21" width="21" height="21" fill="#DE9F76"/>
<rect x="141" y="21" width="21" height="21" fill="#DE9F76"/>
<rect x="321" y="21" width="21" height="21" fill="#DE9F76"/>
<rect x="161" y="21" width="21" height="21" fill="#DE9F76"/>
<rect x="341" y="21" width="21" height="21" fill="#DE9F76"/>
<rect x="181" y="21" width="21" height="21" fill="#DE9F76"/>
<rect x="361" y="21" width="21" height="21" fill="#DE9F76"/>
<rect x="201" y="21" width="21" height="21" fill="#DE9F76"/>
<rect x="381" y="21" width="21" height="21" fill="#DE9F76"/>
<rect x="221" y="21" width="21" height="21" fill="#DE9F76"/>
<rect x="401" y="21" width="21" height="21" fill="#DE9F76"/>
<rect x="21" y="126" width="21" height="21" fill="#DE9F76"/>
<rect x="21" y="105" width="21" height="21" fill="#DE9F76"/>
<rect x="21" y="42" width="21" height="21" fill="#DE9F76"/>
<rect x="21" y="147" width="21" height="21" fill="#DE9F76"/>
<rect x="21" y="84" width="21" height="21" fill="#DE9F76"/>
<rect x="443" y="63" width="21" height="21" fill="#AC644B"/>
<rect x="42" y="189" width="21" height="21" fill="#AC644B"/>
<rect x="62" y="189" width="21" height="21" fill="#AC644B"/>
<rect x="242" y="189" width="21" height="21" fill="#AC644B"/>
<rect x="82" y="189" width="21" height="21" fill="#AC644B"/>
<rect x="262" y="189" width="21" height="21" fill="#AC644B"/>
<rect x="102" y="189" width="21" height="21" fill="#AC644B"/>
<rect x="282" y="189" width="21" height="21" fill="#AC644B"/>
<rect x="122" y="189" width="21" height="21" fill="#AC644B"/>
<rect x="302" y="189" width="21" height="21" fill="#AC644B"/>
<rect x="142" y="189" width="21" height="21" fill="#AC644B"/>
<rect x="322" y="189" width="21" height="21" fill="#AC644B"/>
<rect x="162" y="189" width="21" height="21" fill="#AC644B"/>
<rect x="342" y="189" width="21" height="21" fill="#AC644B"/>
<rect x="182" y="189" width="21" height="21" fill="#AC644B"/>
<rect x="362" y="189" width="21" height="21" fill="#AC644B"/>
<rect x="202" y="189" width="21" height="21" fill="#AC644B"/>
<rect x="382" y="189" width="21" height="21" fill="#AC644B"/>
<rect x="222" y="189" width="21" height="21" fill="#AC644B"/>
<rect x="402" y="189" width="21" height="21" fill="#AC644B"/>
<rect x="443" y="126" width="21" height="21" fill="#AC644B"/>
<rect x="443" y="42" width="21" height="21" fill="#AC644B"/>
<rect x="443" y="168" width="21" height="21" fill="#AC644B"/>
<rect x="423" y="168" width="21" height="21" fill="#AC644B"/>
<rect x="422" y="189" width="21" height="21" fill="#AC644B"/>
<rect x="443" y="105" width="21" height="21" fill="#AC644B"/>
<rect x="443" y="147" width="21" height="21" fill="#AC644B"/>
<rect x="443" y="84" width="21" height="21" fill="#AC644B"/>
<path d="M111.534 152.68V75.4H124.274V62.66H163.754V75.4H176.634V114.6H163.754V127.34H125.674V152.68H111.534ZM125.674 113.2H162.354V76.8H125.674V113.2ZM192.231 152.68V62.66H206.371V152.68H192.231ZM234.672 152.68V140.08H221.932V100.74H234.672V88H274.152V100.74H287.032V138.68H299.772V152.68H285.632V140.08H274.152V152.68H234.672ZM236.072 138.68H272.752V102H236.072V138.68ZM320.974 178.02V165.42H308.234V151.42H322.374V164.02H359.194V140.08H320.974V127.34H308.234V88H322.374V125.94H359.194V88H373.334V165.42H360.594V178.02H320.974Z" fill="#292734"/>
</svg>
