<svg width="490" height="190" viewBox="0 0 490 190" fill="none" xmlns="http://www.w3.org/2000/svg">
<path d="M52.533 9.04761L17.1743 37.8355L13.1333 148.463L56.0689 184.654H429.861L477.342 147.641V42.3593L438.953 9.87012L52.533 9.04761Z" fill="#96B5C9"/>
<rect y="51.8182" width="21.2152" height="17.2727" fill="#292734"/>
<rect x="468.755" y="51.8182" width="21.2152" height="17.2727" fill="#292734"/>
<rect x="21.2153" y="155.455" width="21.2152" height="17.2727" fill="#292734"/>
<rect x="447.54" y="155.455" width="21.2152" height="17.2727" fill="#292734"/>
<rect x="42.4304" width="21.2152" height="17.2727" fill="#292734"/>
<rect x="41.4202" y="172.727" width="21.2152" height="17.2727" fill="#292734"/>
<rect x="62.6355" width="21.2152" height="17.2727" fill="#292734"/>
<rect x="61.6252" y="172.727" width="21.2152" height="17.2727" fill="#292734"/>
<rect x="244.48" width="21.2152" height="17.2727" fill="#292734"/>
<rect x="243.47" y="172.727" width="21.2152" height="17.2727" fill="#292734"/>
<rect x="82.8403" width="21.2152" height="17.2727" fill="#292734"/>
<rect x="81.8301" y="172.727" width="21.2152" height="17.2727" fill="#292734"/>
<rect x="264.685" width="21.2152" height="17.2727" fill="#292734"/>
<rect x="263.675" y="172.727" width="21.2152" height="17.2727" fill="#292734"/>
<rect x="103.045" width="21.2152" height="17.2727" fill="#292734"/>
<rect x="102.035" y="172.727" width="21.2152" height="17.2727" fill="#292734"/>
<rect x="284.89" width="21.2152" height="17.2727" fill="#292734"/>
<rect x="283.88" y="172.727" width="21.2152" height="17.2727" fill="#292734"/>
<rect x="123.25" width="21.2152" height="17.2727" fill="#292734"/>
<rect x="122.24" y="172.727" width="21.2152" height="17.2727" fill="#292734"/>
<rect x="305.095" width="21.2152" height="17.2727" fill="#292734"/>
<rect x="304.085" y="172.727" width="21.2152" height="17.2727" fill="#292734"/>
<rect x="143.455" width="21.2152" height="17.2727" fill="#292734"/>
<rect x="142.445" y="172.727" width="21.2152" height="17.2727" fill="#292734"/>
<rect x="325.3" width="21.2152" height="17.2727" fill="#292734"/>
<rect x="324.29" y="172.727" width="21.2152" height="17.2727" fill="#292734"/>
<rect x="163.66" width="21.2152" height="17.2727" fill="#292734"/>
<rect x="162.65" y="172.727" width="21.2152" height="17.2727" fill="#292734"/>
<rect x="345.505" width="21.2152" height="17.2727" fill="#292734"/>
<rect x="344.495" y="172.727" width="21.2152" height="17.2727" fill="#292734"/>
<rect x="183.865" width="21.2152" height="17.2727" fill="#292734"/>
<rect x="182.855" y="172.727" width="21.2152" height="17.2727" fill="#292734"/>
<rect x="365.71" width="21.2152" height="17.2727" fill="#292734"/>
<rect x="364.7" y="172.727" width="21.2152" height="17.2727" fill="#292734"/>
<rect x="204.07" width="21.2152" height="17.2727" fill="#292734"/>
<rect x="203.06" y="172.727" width="21.2152" height="17.2727" fill="#292734"/>
<rect x="385.915" width="21.2152" height="17.2727" fill="#292734"/>
<rect x="384.905" y="172.727" width="21.2152" height="17.2727" fill="#292734"/>
<rect x="224.275" width="21.2152" height="17.2727" fill="#292734"/>
<rect x="223.265" y="172.727" width="21.2152" height="17.2727" fill="#292734"/>
<rect x="406.12" width="21.2152" height="17.2727" fill="#292734"/>
<rect x="405.11" y="172.727" width="21.2152" height="17.2727" fill="#292734"/>
<rect x="426.325" width="21.2152" height="17.2727" fill="#292734"/>
<rect x="425.315" y="172.727" width="21.2152" height="17.2727" fill="#292734"/>
<rect y="103.636" width="21.2152" height="17.2727" fill="#292734"/>
<rect x="468.755" y="103.636" width="21.2152" height="17.2727" fill="#292734"/>
<rect x="468.755" y="34.5454" width="21.2152" height="17.2727" fill="#292734"/>
<rect y="138.182" width="21.2152" height="17.2727" fill="#292734"/>
<rect x="468.755" y="138.182" width="21.2152" height="17.2727" fill="#292734"/>
<rect y="86.3637" width="21.2152" height="17.2727" fill="#292734"/>
<rect x="468.755" y="86.3637" width="21.2152" height="17.2727" fill="#292734"/>
<rect x="21.2153" y="17.2728" width="21.2152" height="17.2727" fill="#292734"/>
<rect y="34.5454" width="21.2152" height="17.2727" fill="#292734"/>
<rect x="447.54" y="17.2728" width="21.2152" height="17.2727" fill="#292734"/>
<rect y="120.909" width="21.2152" height="17.2727" fill="#292734"/>
<rect x="468.755" y="120.909" width="21.2152" height="17.2727" fill="#292734"/>
<rect y="69.0909" width="21.2152" height="17.2727" fill="#292734"/>
<rect x="468.755" y="69.0909" width="21.2152" height="17.2727" fill="#292734"/>
<rect x="21.2153" y="51.8182" width="21.2152" height="17.2727" fill="#B0C2CC"/>
<rect x="41.4204" y="17.2728" width="21.2152" height="17.2727" fill="#B0C2CC"/>
<rect x="42.4307" y="34.5454" width="21.2152" height="17.2727" fill="#B0C2CC"/>
<rect x="61.6252" y="17.2728" width="21.2152" height="17.2727" fill="#B0C2CC"/>
<rect x="243.47" y="17.2728" width="21.2152" height="17.2727" fill="#B0C2CC"/>
<rect x="81.8303" y="17.2728" width="21.2152" height="17.2727" fill="#B0C2CC"/>
<rect x="263.675" y="17.2728" width="21.2152" height="17.2727" fill="#B0C2CC"/>
<rect x="102.035" y="17.2728" width="21.2152" height="17.2727" fill="#B0C2CC"/>
<rect x="283.88" y="17.2728" width="21.2152" height="17.2727" fill="#B0C2CC"/>
<rect x="122.24" y="17.2728" width="21.2152" height="17.2727" fill="#B0C2CC"/>
<rect x="304.085" y="17.2728" width="21.2152" height="17.2727" fill="#B0C2CC"/>
<rect x="142.445" y="17.2728" width="21.2152" height="17.2727" fill="#B0C2CC"/>
<rect x="324.29" y="17.2728" width="21.2152" height="17.2727" fill="#B0C2CC"/>
<rect x="162.65" y="17.2728" width="21.2152" height="17.2727" fill="#B0C2CC"/>
<rect x="344.495" y="17.2728" width="21.2152" height="17.2727" fill="#B0C2CC"/>
<rect x="182.855" y="17.2728" width="21.2152" height="17.2727" fill="#B0C2CC"/>
<rect x="364.7" y="17.2728" width="21.2152" height="17.2727" fill="#B0C2CC"/>
<rect x="203.06" y="17.2728" width="21.2152" height="17.2727" fill="#B0C2CC"/>
<rect x="384.905" y="17.2728" width="21.2152" height="17.2727" fill="#B0C2CC"/>
<rect x="223.265" y="17.2728" width="21.2152" height="17.2727" fill="#B0C2CC"/>
<rect x="405.11" y="17.2728" width="21.2152" height="17.2727" fill="#B0C2CC"/>
<rect x="21.2153" y="103.636" width="21.2152" height="17.2727" fill="#B0C2CC"/>
<rect x="21.2153" y="86.3636" width="21.2152" height="17.2727" fill="#B0C2CC"/>
<rect x="21.2153" y="34.5454" width="21.2152" height="17.2727" fill="#B0C2CC"/>
<rect x="21.2153" y="120.909" width="21.2152" height="17.2727" fill="#B0C2CC"/>
<rect x="21.2153" y="69.0909" width="21.2152" height="17.2727" fill="#B0C2CC"/>
<rect x="447.54" y="51.8182" width="21.2152" height="17.2727" fill="#4E6693"/>
<rect x="42.4304" y="155.455" width="21.2152" height="17.2727" fill="#4E6693"/>
<rect x="62.6355" y="155.455" width="21.2152" height="17.2727" fill="#4E6693"/>
<rect x="244.48" y="155.455" width="21.2152" height="17.2727" fill="#4E6693"/>
<rect x="82.8403" y="155.455" width="21.2152" height="17.2727" fill="#4E6693"/>
<rect x="264.685" y="155.455" width="21.2152" height="17.2727" fill="#4E6693"/>
<rect x="103.045" y="155.455" width="21.2152" height="17.2727" fill="#4E6693"/>
<rect x="284.89" y="155.455" width="21.2152" height="17.2727" fill="#4E6693"/>
<rect x="123.25" y="155.455" width="21.2152" height="17.2727" fill="#4E6693"/>
<rect x="305.095" y="155.455" width="21.2152" height="17.2727" fill="#4E6693"/>
<rect x="143.455" y="155.455" width="21.2152" height="17.2727" fill="#4E6693"/>
<rect x="325.3" y="155.455" width="21.2152" height="17.2727" fill="#4E6693"/>
<rect x="163.66" y="155.455" width="21.2152" height="17.2727" fill="#4E6693"/>
<rect x="345.505" y="155.455" width="21.2152" height="17.2727" fill="#4E6693"/>
<rect x="183.865" y="155.455" width="21.2152" height="17.2727" fill="#4E6693"/>
<rect x="365.71" y="155.455" width="21.2152" height="17.2727" fill="#4E6693"/>
<rect x="204.07" y="155.455" width="21.2152" height="17.2727" fill="#4E6693"/>
<rect x="385.915" y="155.455" width="21.2152" height="17.2727" fill="#4E6693"/>
<rect x="224.275" y="155.455" width="21.2152" height="17.2727" fill="#4E6693"/>
<rect x="406.12" y="155.455" width="21.2152" height="17.2727" fill="#4E6693"/>
<rect x="447.54" y="103.636" width="21.2152" height="17.2727" fill="#4E6693"/>
<rect x="447.54" y="34.5454" width="21.2152" height="17.2727" fill="#4E6693"/>
<rect x="447.54" y="138.182" width="21.2152" height="17.2727" fill="#4E6693"/>
<rect x="427.335" y="138.182" width="21.2152" height="17.2727" fill="#4E6693"/>
<rect x="426.325" y="155.455" width="21.2152" height="17.2727" fill="#4E6693"/>
<rect x="447.54" y="86.3636" width="21.2152" height="17.2727" fill="#4E6693"/>
<rect x="447.54" y="120.909" width="21.2152" height="17.2727" fill="#4E6693"/>
<rect x="447.54" y="69.0909" width="21.2152" height="17.2727" fill="#4E6693"/>
<path d="M183.142 113.768V108.008H177.318V78.44H183.142V72.616H201.19V78.44H207.078V90.6H201.19V95.72H207.078V108.008H201.19V113.768H183.142ZM183.782 107.368H200.55V96.36H188.902V90.024H200.55V79.08H183.782V107.368ZM220.032 113.768V108.008H214.208V90.024H220.032V84.2H238.08V90.024H243.968V107.368H249.792V113.768H243.328V108.008H238.08V113.768H220.032ZM220.672 107.368H237.44V90.6H220.672V107.368ZM260.797 113.768V108.008H254.973V90.024H260.797V84.2H278.845V90.024H284.733V96.36H278.205V90.6H261.437V107.368H278.205V101.544H284.733V108.008H278.845V113.768H260.797ZM291.863 113.768V72.616H298.327V95.72H303.447V90.024H315.095V84.2H321.623V90.6H315.735V96.36H304.087V101.544H315.735V107.368H321.623V113.768H315.095V108.008H303.447V102.184H298.327V113.768H291.863Z" fill="#292734"/>
</svg>
