<svg width="1031" height="669" viewBox="0 0 1031 669" fill="none" xmlns="http://www.w3.org/2000/svg">
<path d="M42.7911 10.3818L11.5 104.851V571.382L42.7911 648.882L983.5 660.382L1021 571.382V104.851L988.885 1.97093L42.7911 10.3818Z" fill="#96B5C9"/>
<rect x="0.395996" y="155.057" width="35" height="71" fill="#B0C2CC"/>
<rect x="32.9104" y="14.2566" width="50" height="44" fill="#B0C2CC"/>
<rect x="34.9104" y="58.2566" width="23" height="44" fill="#B0C2CC"/>
<rect x="80.9104" y="14.2566" width="50" height="22" fill="#B0C2CC"/>
<rect x="510.91" y="14.2566" width="51" height="22" fill="#B0C2CC"/>
<rect x="128.91" y="14.2566" width="49" height="22" fill="#B0C2CC"/>
<rect x="558.91" y="14.2566" width="51" height="22" fill="#B0C2CC"/>
<rect x="176.91" y="14.2566" width="49" height="22" fill="#B0C2CC"/>
<rect x="606.91" y="14.2566" width="51" height="22" fill="#B0C2CC"/>
<rect x="224.91" y="14.2566" width="49" height="22" fill="#B0C2CC"/>
<rect x="654.91" y="14.2566" width="51" height="22" fill="#B0C2CC"/>
<rect x="271.91" y="14.2566" width="51" height="22" fill="#B0C2CC"/>
<rect x="702.91" y="14.2566" width="51" height="22" fill="#B0C2CC"/>
<rect x="319.91" y="14.2566" width="51" height="22" fill="#B0C2CC"/>
<rect x="750.91" y="14.2566" width="50" height="22" fill="#B0C2CC"/>
<rect x="367.91" y="14.2566" width="51" height="22" fill="#B0C2CC"/>
<rect x="797.91" y="14.2566" width="51" height="22" fill="#B0C2CC"/>
<rect x="415.91" y="14.2566" width="51" height="22" fill="#B0C2CC"/>
<rect x="845.91" y="14.2566" width="51" height="22" fill="#B0C2CC"/>
<rect x="463.91" y="14.2566" width="51" height="22" fill="#B0C2CC"/>
<rect x="894.91" y="14.2566" width="50" height="22" fill="#B0C2CC"/>
<rect x="0.395996" y="367.057" width="35" height="71" fill="#B0C2CC"/>
<rect x="0.395996" y="297.057" width="35" height="70" fill="#B0C2CC"/>
<rect x="0.395996" y="85.0572" width="35" height="70" fill="#B0C2CC"/>
<rect x="0.395996" y="438.057" width="35" height="71" fill="#B0C2CC"/>
<rect x="0.395996" y="226.057" width="35" height="71" fill="#B0C2CC"/>
<rect x="995.439" y="155.407" width="27" height="71" fill="#4E6693"/>
<rect x="35.2061" y="628.558" width="51" height="22" fill="#4E6693"/>
<rect x="83.2061" y="628.558" width="51" height="22" fill="#4E6693"/>
<rect x="515.206" y="628.558" width="49" height="22" fill="#4E6693"/>
<rect x="131.206" y="628.558" width="51" height="22" fill="#4E6693"/>
<rect x="562.206" y="628.558" width="50" height="22" fill="#4E6693"/>
<rect x="178.206" y="628.558" width="51" height="22" fill="#4E6693"/>
<rect x="610.206" y="628.558" width="50" height="22" fill="#4E6693"/>
<rect x="226.206" y="628.558" width="51" height="22" fill="#4E6693"/>
<rect x="658.206" y="628.558" width="49" height="22" fill="#4E6693"/>
<rect x="274.206" y="628.558" width="51" height="22" fill="#4E6693"/>
<rect x="706.206" y="628.558" width="51" height="22" fill="#4E6693"/>
<rect x="323.206" y="628.558" width="50" height="22" fill="#4E6693"/>
<rect x="754.206" y="628.558" width="51" height="22" fill="#4E6693"/>
<rect x="371.206" y="628.558" width="50" height="22" fill="#4E6693"/>
<rect x="801.206" y="628.558" width="51" height="22" fill="#4E6693"/>
<rect x="419.206" y="628.558" width="49" height="22" fill="#4E6693"/>
<rect x="849.206" y="628.558" width="51" height="22" fill="#4E6693"/>
<rect x="467.206" y="628.558" width="49" height="22" fill="#4E6693"/>
<rect x="897.206" y="628.558" width="51" height="22" fill="#4E6693"/>
<rect x="995.439" y="367.407" width="27" height="71" fill="#4E6693"/>
<rect x="995.439" y="85.4073" width="27" height="70" fill="#4E6693"/>
<rect x="995" y="509.382" width="27" height="71" fill="#4E6693"/>
<rect x="979" y="579.382" width="18" height="52" fill="#4E6693"/>
<rect x="945.206" y="628.558" width="51" height="22" fill="#4E6693"/>
<rect x="995.439" y="297.407" width="27" height="70" fill="#4E6693"/>
<rect x="995.439" y="438.407" width="27" height="71" fill="#4E6693"/>
<rect x="995.439" y="226.407" width="27" height="71" fill="#4E6693"/>
<rect y="156.382" width="16" height="70" fill="#292734"/>
<rect x="1013.44" y="156.782" width="17" height="70" fill="#292734"/>
<rect x="16" y="580.382" width="19" height="69" fill="#292734"/>
<rect x="995" y="580.382" width="18" height="69" fill="#292734"/>
<rect x="34.9175" width="51" height="15" fill="#292734"/>
<rect x="33.0234" y="650.557" width="50" height="18" fill="#292734"/>
<rect x="82.9175" width="51" height="15" fill="#292734"/>
<rect x="81.0234" y="650.557" width="50" height="18" fill="#292734"/>
<rect x="514.917" width="49" height="16" fill="#292734"/>
<rect x="511.023" y="650.557" width="51" height="18" fill="#292734"/>
<rect x="130.917" width="51" height="15" fill="#292734"/>
<rect x="129.023" y="650.557" width="49" height="18" fill="#292734"/>
<rect x="561.917" width="50" height="16" fill="#292734"/>
<rect x="559.023" y="650.557" width="51" height="18" fill="#292734"/>
<rect x="177.917" width="51" height="15" fill="#292734"/>
<rect x="177.023" y="650.557" width="49" height="18" fill="#292734"/>
<rect x="609.917" width="50" height="16" fill="#292734"/>
<rect x="607.023" y="650.557" width="51" height="18" fill="#292734"/>
<rect x="225.917" width="51" height="15" fill="#292734"/>
<rect x="225.023" y="650.557" width="49" height="18" fill="#292734"/>
<rect x="657.917" width="49" height="16" fill="#292734"/>
<rect x="655.023" y="650.557" width="51" height="18" fill="#292734"/>
<rect x="273.917" width="51" height="15" fill="#292734"/>
<rect x="272.023" y="650.557" width="51" height="18" fill="#292734"/>
<rect x="705.917" width="51" height="16" fill="#292734"/>
<rect x="703.023" y="650.557" width="51" height="18" fill="#292734"/>
<rect x="322.917" width="50" height="15" fill="#292734"/>
<rect x="320.023" y="650.557" width="51" height="18" fill="#292734"/>
<rect x="753.917" width="51" height="16" fill="#292734"/>
<rect x="751" y="650.382" width="50" height="18" fill="#292734"/>
<rect x="370.917" width="50" height="15" fill="#292734"/>
<rect x="368.023" y="650.557" width="51" height="18" fill="#292734"/>
<rect x="800.917" width="51" height="16" fill="#292734"/>
<rect x="798.023" y="650.557" width="51" height="18" fill="#292734"/>
<rect x="418.917" width="49" height="15" fill="#292734"/>
<rect x="416.023" y="650.557" width="51" height="18" fill="#292734"/>
<rect x="848.917" width="51" height="16" fill="#292734"/>
<rect x="846.023" y="650.557" width="51" height="18" fill="#292734"/>
<rect x="466.917" width="49" height="15" fill="#292734"/>
<rect x="464.023" y="650.557" width="51" height="18" fill="#292734"/>
<rect x="896.917" width="51" height="16" fill="#292734"/>
<rect x="895.023" y="650.557" width="50" height="18" fill="#292734"/>
<rect x="944.917" width="51" height="16" fill="#292734"/>
<rect x="943.023" y="650.557" width="50" height="18" fill="#292734"/>
<rect y="367.382" width="16" height="71" fill="#292734"/>
<rect x="1013.44" y="367.782" width="17" height="71" fill="#292734"/>
<rect x="1013.44" y="84.7816" width="17" height="72" fill="#292734"/>
<rect y="508.382" width="16" height="72" fill="#292734"/>
<rect x="1013.44" y="508.782" width="17" height="72" fill="#292734"/>
<rect y="297.382" width="16" height="70" fill="#292734"/>
<rect x="1013.44" y="297.782" width="17" height="70" fill="#292734"/>
<rect x="16" y="15.3818" width="19" height="69" fill="#292734"/>
<rect y="84.3818" width="16" height="72" fill="#292734"/>
<rect x="995" y="15.3818" width="18" height="69" fill="#292734"/>
<rect y="438.382" width="16" height="70" fill="#292734"/>
<rect x="1013.44" y="438.782" width="17" height="70" fill="#292734"/>
<rect y="226.382" width="16" height="71" fill="#292734"/>
<rect x="1013.44" y="226.782" width="17" height="71" fill="#292734"/>
<path d="M124.568 101.576V75.56H120.728V79.88H115.88V75.08H120.248V70.712H133.784V75.08H138.2V79.88H133.304V75.56H129.464V101.576H124.568ZM144.072 101.576V97.256H139.704V83.768H144.072V79.4H157.608V83.768H162.024V88.52H157.128V84.2H144.552V88.04H153.288V92.888H144.552V96.776H157.128V92.36H162.024V97.208H157.608V101.576H144.072ZM172.677 101.576V97.256H168.309V83.768H172.677V79.4H186.213V83.768H190.629V96.776H194.997V101.576H190.149V97.256H186.213V101.576H172.677ZM173.157 96.776H185.733V84.2H173.157V96.776ZM199.82 101.576V79.4H213.404V83.768H217.244V79.4H226.508V83.768H230.828V101.576H226.028V84.2H217.724V101.576H212.924V84.2H204.668V101.576H199.82ZM255.874 101.576V75.56H252.034V79.88H247.186V75.08H251.554V70.712H256.354V75.08H260.77V101.576H255.874ZM277.162 101.576V70.712H282.01V75.08H286.33V79.4H290.746V92.408H294.586V70.712H299.482V101.576H294.586V97.256H290.266V92.888H285.85V79.88H282.01V101.576H277.162ZM309.197 101.576V97.256H304.829V83.768H309.197V79.4H322.733V83.768H327.149V96.776H331.517V101.576H326.669V97.256H322.733V101.576H309.197ZM309.677 96.776H322.253V84.2H309.677V96.776ZM336.341 101.576V79.4H349.925V83.768H353.765V79.4H363.029V83.768H367.349V101.576H362.549V84.2H354.245V101.576H349.445V84.2H341.189V101.576H336.341ZM377.517 101.576V97.256H373.149V83.768H377.517V79.4H391.053V83.768H395.469V88.52H390.573V84.2H377.997V88.04H386.733V92.888H377.997V96.776H390.573V92.36H395.469V97.208H391.053V101.576H377.517ZM401.754 97.112V92.264H406.602V97.112H401.754ZM401.754 88.568V83.768H406.602V88.568H401.754Z" fill="#292734"/>
<path d="M124.568 242.576V216.56H120.728V220.88H115.88V216.08H120.248V211.712H133.784V216.08H138.2V220.88H133.304V216.56H129.464V242.576H124.568ZM144.072 242.576V238.256H139.704V224.768H144.072V220.4H157.608V224.768H162.024V229.52H157.128V225.2H144.552V229.04H153.288V233.888H144.552V237.776H157.128V233.36H162.024V238.208H157.608V242.576H144.072ZM172.677 242.576V238.256H168.309V224.768H172.677V220.4H186.213V224.768H190.629V237.776H194.997V242.576H190.149V238.256H186.213V242.576H172.677ZM173.157 237.776H185.733V225.2H173.157V237.776ZM199.82 242.576V220.4H213.404V224.768H217.244V220.4H226.508V224.768H230.828V242.576H226.028V225.2H217.724V242.576H212.924V225.2H204.668V242.576H199.82ZM251.554 242.576V238.256H247.186V229.04H251.554V224.768H264.61V216.56H252.034V220.88H247.186V216.08H251.554V211.712H265.09V216.08H269.506V225.2H265.09V229.52H252.034V237.776H264.61V233.408H269.506V238.256H265.09V242.576H251.554ZM285.881 242.576V211.712H290.729V216.08H295.049V220.4H299.465V233.408H303.305V211.712H308.201V242.576H303.305V238.256H298.985V233.888H294.569V220.88H290.729V242.576H285.881ZM317.916 242.576V238.256H313.548V224.768H317.916V220.4H331.452V224.768H335.868V237.776H340.236V242.576H335.388V238.256H331.452V242.576H317.916ZM318.396 237.776H330.972V225.2H318.396V237.776ZM345.059 242.576V220.4H358.643V224.768H362.483V220.4H371.747V224.768H376.067V242.576H371.267V225.2H362.963V242.576H358.163V225.2H349.907V242.576H345.059ZM386.235 242.576V238.256H381.867V224.768H386.235V220.4H399.771V224.768H404.187V229.52H399.291V225.2H386.715V229.04H395.451V233.888H386.715V237.776H399.291V233.36H404.187V238.208H399.771V242.576H386.235ZM410.472 238.112V233.264H415.32V238.112H410.472ZM410.472 229.568V224.768H415.32V229.568H410.472Z" fill="#292734"/>
<path d="M115.88 383.576V352.712H120.728V357.08H125.048V361.4H129.464V374.408H133.304V352.712H138.2V383.576H133.304V379.256H128.984V374.888H124.568V361.88H120.728V383.576H115.88ZM148.853 383.576V379.256H144.485V361.4H149.333V378.776H161.909V361.4H166.805V379.256H162.389V383.576H148.853ZM173.09 383.576V361.4H186.674V365.768H190.514V361.4H199.778V365.768H204.098V383.576H199.298V366.2H190.994V383.576H186.194V366.2H177.938V383.576H173.09ZM213.797 383.576V379.256H209.429V352.712H214.277V361.4H227.333V365.768H231.749V379.256H227.333V383.576H213.797ZM214.277 378.776H226.853V366.2H214.277V378.776ZM241.465 383.576V379.256H237.097V365.768H241.465V361.4H255.001V365.768H259.417V370.52H254.521V366.2H241.945V370.04H250.681V374.888H241.945V378.776H254.521V374.36H259.417V379.208H255.001V383.576H241.465ZM265.702 383.576V365.768H270.07V361.4H283.606V365.768H288.022V370.52H283.126V366.2H270.55V383.576H265.702ZM308.764 383.576V379.256H304.396V365.768H308.764V361.4H322.3V365.768H326.716V379.256H322.3V383.576H308.764ZM309.244 378.776H321.82V366.2H309.244V378.776ZM333.001 383.576V357.08H337.369V352.712H350.905V357.08H355.321V361.88H350.425V357.56H337.849V365.768H346.585V370.52H337.849V383.576H333.001ZM371.696 383.576V357.08H376.064V352.712H389.6V357.08H394.016V370.52H389.6V374.888H387.488V378.776H391.808V383.576H387.008V379.256H382.592V374.888H376.544V383.576H371.696ZM376.544 370.04H389.12V357.56H376.544V370.04ZM404.669 383.576V379.256H400.301V365.768H404.669V361.4H418.205V365.768H422.621V379.256H418.205V383.576H404.669ZM405.149 378.776H417.725V366.2H405.149V378.776ZM433.274 383.576V379.256H428.906V361.4H433.754V378.776H446.33V361.4H451.226V379.256H446.81V383.576H433.274ZM457.511 383.576V361.4H475.415V365.768H479.831V383.576H474.935V366.2H462.359V383.576H457.511ZM489.546 383.576V379.256H485.178V365.768H489.546V361.4H502.65V352.712H507.498V379.256H503.082V383.576H489.546ZM490.026 378.776H502.602V366.2H490.026V378.776ZM512.846 383.576V378.776H530.27V374.888H517.214V370.52H512.846V365.768H517.214V361.4H535.166V366.2H517.694V370.04H530.75V374.408H535.166V379.256H530.75V383.576H512.846Z" fill="#292734"/>
</svg>
