<svg width="490" height="190" viewBox="0 0 490 190" fill="none" xmlns="http://www.w3.org/2000/svg">
<path d="M52.533 9.04761L17.1743 37.8355L13.1333 148.463L56.0689 184.654H429.861L477.342 147.641V42.3593L438.953 9.87012L52.533 9.04761Z" fill="#D58D65"/>
<rect y="51.8182" width="21.2152" height="17.2727" fill="#292734"/>
<rect x="468.755" y="51.8182" width="21.2152" height="17.2727" fill="#292734"/>
<rect x="21.2153" y="155.455" width="21.2152" height="17.2727" fill="#292734"/>
<rect x="447.54" y="155.455" width="21.2152" height="17.2727" fill="#292734"/>
<rect x="42.4304" width="21.2152" height="17.2727" fill="#292734"/>
<rect x="41.4202" y="172.727" width="21.2152" height="17.2727" fill="#292734"/>
<rect x="62.6355" width="21.2152" height="17.2727" fill="#292734"/>
<rect x="61.6252" y="172.727" width="21.2152" height="17.2727" fill="#292734"/>
<rect x="244.48" width="21.2152" height="17.2727" fill="#292734"/>
<rect x="243.47" y="172.727" width="21.2152" height="17.2727" fill="#292734"/>
<rect x="82.8403" width="21.2152" height="17.2727" fill="#292734"/>
<rect x="81.8301" y="172.727" width="21.2152" height="17.2727" fill="#292734"/>
<rect x="264.685" width="21.2152" height="17.2727" fill="#292734"/>
<rect x="263.675" y="172.727" width="21.2152" height="17.2727" fill="#292734"/>
<rect x="103.045" width="21.2152" height="17.2727" fill="#292734"/>
<rect x="102.035" y="172.727" width="21.2152" height="17.2727" fill="#292734"/>
<rect x="284.89" width="21.2152" height="17.2727" fill="#292734"/>
<rect x="283.88" y="172.727" width="21.2152" height="17.2727" fill="#292734"/>
<rect x="123.25" width="21.2152" height="17.2727" fill="#292734"/>
<rect x="122.24" y="172.727" width="21.2152" height="17.2727" fill="#292734"/>
<rect x="305.095" width="21.2152" height="17.2727" fill="#292734"/>
<rect x="304.085" y="172.727" width="21.2152" height="17.2727" fill="#292734"/>
<rect x="143.455" width="21.2152" height="17.2727" fill="#292734"/>
<rect x="142.445" y="172.727" width="21.2152" height="17.2727" fill="#292734"/>
<rect x="325.3" width="21.2152" height="17.2727" fill="#292734"/>
<rect x="324.29" y="172.727" width="21.2152" height="17.2727" fill="#292734"/>
<rect x="163.66" width="21.2152" height="17.2727" fill="#292734"/>
<rect x="162.65" y="172.727" width="21.2152" height="17.2727" fill="#292734"/>
<rect x="345.505" width="21.2152" height="17.2727" fill="#292734"/>
<rect x="344.495" y="172.727" width="21.2152" height="17.2727" fill="#292734"/>
<rect x="183.865" width="21.2152" height="17.2727" fill="#292734"/>
<rect x="182.855" y="172.727" width="21.2152" height="17.2727" fill="#292734"/>
<rect x="365.71" width="21.2152" height="17.2727" fill="#292734"/>
<rect x="364.7" y="172.727" width="21.2152" height="17.2727" fill="#292734"/>
<rect x="204.07" width="21.2152" height="17.2727" fill="#292734"/>
<rect x="203.06" y="172.727" width="21.2152" height="17.2727" fill="#292734"/>
<rect x="385.915" width="21.2152" height="17.2727" fill="#292734"/>
<rect x="384.905" y="172.727" width="21.2152" height="17.2727" fill="#292734"/>
<rect x="224.275" width="21.2152" height="17.2727" fill="#292734"/>
<rect x="223.265" y="172.727" width="21.2152" height="17.2727" fill="#292734"/>
<rect x="406.12" width="21.2152" height="17.2727" fill="#292734"/>
<rect x="405.11" y="172.727" width="21.2152" height="17.2727" fill="#292734"/>
<rect x="426.325" width="21.2152" height="17.2727" fill="#292734"/>
<rect x="425.315" y="172.727" width="21.2152" height="17.2727" fill="#292734"/>
<rect y="103.636" width="21.2152" height="17.2727" fill="#292734"/>
<rect x="468.755" y="103.636" width="21.2152" height="17.2727" fill="#292734"/>
<rect x="468.755" y="34.5454" width="21.2152" height="17.2727" fill="#292734"/>
<rect y="138.182" width="21.2152" height="17.2727" fill="#292734"/>
<rect x="468.755" y="138.182" width="21.2152" height="17.2727" fill="#292734"/>
<rect y="86.3637" width="21.2152" height="17.2727" fill="#292734"/>
<rect x="468.755" y="86.3637" width="21.2152" height="17.2727" fill="#292734"/>
<rect x="21.2153" y="17.2728" width="21.2152" height="17.2727" fill="#292734"/>
<rect y="34.5454" width="21.2152" height="17.2727" fill="#292734"/>
<rect x="447.54" y="17.2728" width="21.2152" height="17.2727" fill="#292734"/>
<rect y="120.909" width="21.2152" height="17.2727" fill="#292734"/>
<rect x="468.755" y="120.909" width="21.2152" height="17.2727" fill="#292734"/>
<rect y="69.0909" width="21.2152" height="17.2727" fill="#292734"/>
<rect x="468.755" y="69.0909" width="21.2152" height="17.2727" fill="#292734"/>
<rect x="21.2153" y="51.8182" width="21.2152" height="17.2727" fill="#DE9F76"/>
<rect x="41.4204" y="17.2728" width="21.2152" height="17.2727" fill="#DE9F76"/>
<rect x="42.4307" y="34.5454" width="21.2152" height="17.2727" fill="#DE9F76"/>
<rect x="61.6252" y="17.2728" width="21.2152" height="17.2727" fill="#DE9F76"/>
<rect x="243.47" y="17.2728" width="21.2152" height="17.2727" fill="#DE9F76"/>
<rect x="81.8303" y="17.2728" width="21.2152" height="17.2727" fill="#DE9F76"/>
<rect x="263.675" y="17.2728" width="21.2152" height="17.2727" fill="#DE9F76"/>
<rect x="102.035" y="17.2728" width="21.2152" height="17.2727" fill="#DE9F76"/>
<rect x="283.88" y="17.2728" width="21.2152" height="17.2727" fill="#DE9F76"/>
<rect x="122.24" y="17.2728" width="21.2152" height="17.2727" fill="#DE9F76"/>
<rect x="304.085" y="17.2728" width="21.2152" height="17.2727" fill="#DE9F76"/>
<rect x="142.445" y="17.2728" width="21.2152" height="17.2727" fill="#DE9F76"/>
<rect x="324.29" y="17.2728" width="21.2152" height="17.2727" fill="#DE9F76"/>
<rect x="162.65" y="17.2728" width="21.2152" height="17.2727" fill="#DE9F76"/>
<rect x="344.495" y="17.2728" width="21.2152" height="17.2727" fill="#DE9F76"/>
<rect x="182.855" y="17.2728" width="21.2152" height="17.2727" fill="#DE9F76"/>
<rect x="364.7" y="17.2728" width="21.2152" height="17.2727" fill="#DE9F76"/>
<rect x="203.06" y="17.2728" width="21.2152" height="17.2727" fill="#DE9F76"/>
<rect x="384.905" y="17.2728" width="21.2152" height="17.2727" fill="#DE9F76"/>
<rect x="223.265" y="17.2728" width="21.2152" height="17.2727" fill="#DE9F76"/>
<rect x="405.11" y="17.2728" width="21.2152" height="17.2727" fill="#DE9F76"/>
<rect x="21.2153" y="103.636" width="21.2152" height="17.2727" fill="#DE9F76"/>
<rect x="21.2153" y="86.3636" width="21.2152" height="17.2727" fill="#DE9F76"/>
<rect x="21.2153" y="34.5454" width="21.2152" height="17.2727" fill="#DE9F76"/>
<rect x="21.2153" y="120.909" width="21.2152" height="17.2727" fill="#DE9F76"/>
<rect x="21.2153" y="69.0909" width="21.2152" height="17.2727" fill="#DE9F76"/>
<rect x="447.54" y="51.8182" width="21.2152" height="17.2727" fill="#AC644B"/>
<rect x="42.4304" y="155.455" width="21.2152" height="17.2727" fill="#AC644B"/>
<rect x="62.6355" y="155.455" width="21.2152" height="17.2727" fill="#AC644B"/>
<rect x="244.48" y="155.455" width="21.2152" height="17.2727" fill="#AC644B"/>
<rect x="82.8403" y="155.455" width="21.2152" height="17.2727" fill="#AC644B"/>
<rect x="264.685" y="155.455" width="21.2152" height="17.2727" fill="#AC644B"/>
<rect x="103.045" y="155.455" width="21.2152" height="17.2727" fill="#AC644B"/>
<rect x="284.89" y="155.455" width="21.2152" height="17.2727" fill="#AC644B"/>
<rect x="123.25" y="155.455" width="21.2152" height="17.2727" fill="#AC644B"/>
<rect x="305.095" y="155.455" width="21.2152" height="17.2727" fill="#AC644B"/>
<rect x="143.455" y="155.455" width="21.2152" height="17.2727" fill="#AC644B"/>
<rect x="325.3" y="155.455" width="21.2152" height="17.2727" fill="#AC644B"/>
<rect x="163.66" y="155.455" width="21.2152" height="17.2727" fill="#AC644B"/>
<rect x="345.505" y="155.455" width="21.2152" height="17.2727" fill="#AC644B"/>
<rect x="183.865" y="155.455" width="21.2152" height="17.2727" fill="#AC644B"/>
<rect x="365.71" y="155.455" width="21.2152" height="17.2727" fill="#AC644B"/>
<rect x="204.07" y="155.455" width="21.2152" height="17.2727" fill="#AC644B"/>
<rect x="385.915" y="155.455" width="21.2152" height="17.2727" fill="#AC644B"/>
<rect x="224.275" y="155.455" width="21.2152" height="17.2727" fill="#AC644B"/>
<rect x="406.12" y="155.455" width="21.2152" height="17.2727" fill="#AC644B"/>
<rect x="447.54" y="103.636" width="21.2152" height="17.2727" fill="#AC644B"/>
<rect x="447.54" y="34.5454" width="21.2152" height="17.2727" fill="#AC644B"/>
<rect x="447.54" y="138.182" width="21.2152" height="17.2727" fill="#AC644B"/>
<rect x="427.335" y="138.182" width="21.2152" height="17.2727" fill="#AC644B"/>
<rect x="426.325" y="155.455" width="21.2152" height="17.2727" fill="#AC644B"/>
<rect x="447.54" y="86.3636" width="21.2152" height="17.2727" fill="#AC644B"/>
<rect x="447.54" y="120.909" width="21.2152" height="17.2727" fill="#AC644B"/>
<rect x="447.54" y="69.0909" width="21.2152" height="17.2727" fill="#AC644B"/>
<path d="M67.2527 113.768V108.008H61.4287V101.544H67.8927V107.368H84.6607V96.36H67.2527V90.6H61.4287V78.44H67.2527V72.616H85.3007V78.44H91.1887V84.84H84.6607V79.08H67.8927V90.024H85.3007V95.72H91.1887V108.008H85.3007V113.768H67.2527ZM108.59 113.768V108.008H102.83V90.6H97.0062V84.2H102.83V72.616H109.23V84.2H126.766V90.6H109.23V107.368H126.126V101.544H132.59V108.008H126.766V113.768H108.59ZM144.845 113.768V108.008H139.021V90.024H144.845V84.2H162.893V90.024H168.781V107.368H174.605V113.768H168.141V108.008H162.893V113.768H144.845ZM145.485 107.368H162.253V90.6H145.485V107.368ZM182.974 113.768V90.024H188.798V84.2H206.846V90.024H212.734V96.36H206.206V90.6H189.438V113.768H182.974ZM232.698 113.768V108.008H226.938V90.6H221.114V84.2H226.938V72.616H233.338V84.2H250.874V90.6H233.338V107.368H250.234V101.544H256.698V108.008H250.874V113.768H232.698ZM284.343 113.768V108.008H278.519V78.44H284.343V72.616H302.391V78.44H308.279V90.6H301.751V79.08H284.983V107.368H301.751V102.184H295.991V96.36H290.103V90.024H296.631V95.72H308.279V108.008H302.391V113.768H284.343ZM322.483 113.768V108.008H316.659V90.024H322.483V84.2H340.531V90.024H346.419V107.368H352.243V113.768H345.779V108.008H340.531V113.768H322.483ZM323.123 107.368H339.891V90.6H323.123V107.368ZM358.674 113.768V84.2H376.786V90.024H381.906V84.2H394.258V90.024H400.018V113.768H393.618V90.6H382.546V113.768H376.146V90.6H365.138V113.768H358.674ZM413.575 113.768V108.008H407.751V90.024H413.575V84.2H431.623V90.024H437.511V96.36H430.983V90.6H414.215V95.72H425.863V102.184H414.215V107.368H430.983V101.48H437.511V107.944H431.623V113.768H413.575Z" fill="#292734"/>
</svg>
