<svg width="490" height="190" viewBox="0 0 490 190" fill="none" xmlns="http://www.w3.org/2000/svg">
<path d="M52.533 9.04761L17.1743 37.8355L13.1333 148.463L56.0689 184.654H429.861L477.342 147.641V42.3593L438.953 9.87012L52.533 9.04761Z" fill="#D58D65"/>
<rect y="51.8181" width="21.2152" height="17.2727" fill="#292734"/>
<rect x="468.755" y="51.8181" width="21.2152" height="17.2727" fill="#292734"/>
<rect x="21.2153" y="155.455" width="21.2152" height="17.2727" fill="#292734"/>
<rect x="447.54" y="155.455" width="21.2152" height="17.2727" fill="#292734"/>
<rect x="42.4304" width="21.2152" height="17.2727" fill="#292734"/>
<rect x="41.4202" y="172.727" width="21.2152" height="17.2727" fill="#292734"/>
<rect x="62.6355" width="21.2152" height="17.2727" fill="#292734"/>
<rect x="61.6252" y="172.727" width="21.2152" height="17.2727" fill="#292734"/>
<rect x="244.48" width="21.2152" height="17.2727" fill="#292734"/>
<rect x="243.47" y="172.727" width="21.2152" height="17.2727" fill="#292734"/>
<rect x="82.8403" width="21.2152" height="17.2727" fill="#292734"/>
<rect x="81.8301" y="172.727" width="21.2152" height="17.2727" fill="#292734"/>
<rect x="264.685" width="21.2152" height="17.2727" fill="#292734"/>
<rect x="263.675" y="172.727" width="21.2152" height="17.2727" fill="#292734"/>
<rect x="103.045" width="21.2152" height="17.2727" fill="#292734"/>
<rect x="102.035" y="172.727" width="21.2152" height="17.2727" fill="#292734"/>
<rect x="284.89" width="21.2152" height="17.2727" fill="#292734"/>
<rect x="283.88" y="172.727" width="21.2152" height="17.2727" fill="#292734"/>
<rect x="123.25" width="21.2152" height="17.2727" fill="#292734"/>
<rect x="122.24" y="172.727" width="21.2152" height="17.2727" fill="#292734"/>
<rect x="305.095" width="21.2152" height="17.2727" fill="#292734"/>
<rect x="304.085" y="172.727" width="21.2152" height="17.2727" fill="#292734"/>
<rect x="143.455" width="21.2152" height="17.2727" fill="#292734"/>
<rect x="142.445" y="172.727" width="21.2152" height="17.2727" fill="#292734"/>
<rect x="325.3" width="21.2152" height="17.2727" fill="#292734"/>
<rect x="324.29" y="172.727" width="21.2152" height="17.2727" fill="#292734"/>
<rect x="163.66" width="21.2152" height="17.2727" fill="#292734"/>
<rect x="162.65" y="172.727" width="21.2152" height="17.2727" fill="#292734"/>
<rect x="345.505" width="21.2152" height="17.2727" fill="#292734"/>
<rect x="344.495" y="172.727" width="21.2152" height="17.2727" fill="#292734"/>
<rect x="183.865" width="21.2152" height="17.2727" fill="#292734"/>
<rect x="182.855" y="172.727" width="21.2152" height="17.2727" fill="#292734"/>
<rect x="365.71" width="21.2152" height="17.2727" fill="#292734"/>
<rect x="364.7" y="172.727" width="21.2152" height="17.2727" fill="#292734"/>
<rect x="204.07" width="21.2152" height="17.2727" fill="#292734"/>
<rect x="203.06" y="172.727" width="21.2152" height="17.2727" fill="#292734"/>
<rect x="385.915" width="21.2152" height="17.2727" fill="#292734"/>
<rect x="384.905" y="172.727" width="21.2152" height="17.2727" fill="#292734"/>
<rect x="224.275" width="21.2152" height="17.2727" fill="#292734"/>
<rect x="223.265" y="172.727" width="21.2152" height="17.2727" fill="#292734"/>
<rect x="406.12" width="21.2152" height="17.2727" fill="#292734"/>
<rect x="405.11" y="172.727" width="21.2152" height="17.2727" fill="#292734"/>
<rect x="426.325" width="21.2152" height="17.2727" fill="#292734"/>
<rect x="425.315" y="172.727" width="21.2152" height="17.2727" fill="#292734"/>
<rect y="103.636" width="21.2152" height="17.2727" fill="#292734"/>
<rect x="468.755" y="103.636" width="21.2152" height="17.2727" fill="#292734"/>
<rect x="468.755" y="34.5454" width="21.2152" height="17.2727" fill="#292734"/>
<rect y="138.182" width="21.2152" height="17.2727" fill="#292734"/>
<rect x="468.755" y="138.182" width="21.2152" height="17.2727" fill="#292734"/>
<rect y="86.3638" width="21.2152" height="17.2727" fill="#292734"/>
<rect x="468.755" y="86.3638" width="21.2152" height="17.2727" fill="#292734"/>
<rect x="21.2153" y="17.2727" width="21.2152" height="17.2727" fill="#292734"/>
<rect y="34.5454" width="21.2152" height="17.2727" fill="#292734"/>
<rect x="447.54" y="17.2727" width="21.2152" height="17.2727" fill="#292734"/>
<rect y="120.909" width="21.2152" height="17.2727" fill="#292734"/>
<rect x="468.755" y="120.909" width="21.2152" height="17.2727" fill="#292734"/>
<rect y="69.0908" width="21.2152" height="17.2727" fill="#292734"/>
<rect x="468.755" y="69.0908" width="21.2152" height="17.2727" fill="#292734"/>
<rect x="21.2153" y="51.8181" width="21.2152" height="17.2727" fill="#DE9F76"/>
<rect x="41.4204" y="17.2727" width="21.2152" height="17.2727" fill="#DE9F76"/>
<rect x="42.4307" y="34.5454" width="21.2152" height="17.2727" fill="#DE9F76"/>
<rect x="61.6252" y="17.2727" width="21.2152" height="17.2727" fill="#DE9F76"/>
<rect x="243.47" y="17.2727" width="21.2152" height="17.2727" fill="#DE9F76"/>
<rect x="81.8303" y="17.2727" width="21.2152" height="17.2727" fill="#DE9F76"/>
<rect x="263.675" y="17.2727" width="21.2152" height="17.2727" fill="#DE9F76"/>
<rect x="102.035" y="17.2727" width="21.2152" height="17.2727" fill="#DE9F76"/>
<rect x="283.88" y="17.2727" width="21.2152" height="17.2727" fill="#DE9F76"/>
<rect x="122.24" y="17.2727" width="21.2152" height="17.2727" fill="#DE9F76"/>
<rect x="304.085" y="17.2727" width="21.2152" height="17.2727" fill="#DE9F76"/>
<rect x="142.445" y="17.2727" width="21.2152" height="17.2727" fill="#DE9F76"/>
<rect x="324.29" y="17.2727" width="21.2152" height="17.2727" fill="#DE9F76"/>
<rect x="162.65" y="17.2727" width="21.2152" height="17.2727" fill="#DE9F76"/>
<rect x="344.495" y="17.2727" width="21.2152" height="17.2727" fill="#DE9F76"/>
<rect x="182.855" y="17.2727" width="21.2152" height="17.2727" fill="#DE9F76"/>
<rect x="364.7" y="17.2727" width="21.2152" height="17.2727" fill="#DE9F76"/>
<rect x="203.06" y="17.2727" width="21.2152" height="17.2727" fill="#DE9F76"/>
<rect x="384.905" y="17.2727" width="21.2152" height="17.2727" fill="#DE9F76"/>
<rect x="223.265" y="17.2727" width="21.2152" height="17.2727" fill="#DE9F76"/>
<rect x="405.11" y="17.2727" width="21.2152" height="17.2727" fill="#DE9F76"/>
<rect x="21.2153" y="103.636" width="21.2152" height="17.2727" fill="#DE9F76"/>
<rect x="21.2153" y="86.3635" width="21.2152" height="17.2727" fill="#DE9F76"/>
<rect x="21.2153" y="34.5454" width="21.2152" height="17.2727" fill="#DE9F76"/>
<rect x="21.2153" y="120.909" width="21.2152" height="17.2727" fill="#DE9F76"/>
<rect x="21.2153" y="69.0908" width="21.2152" height="17.2727" fill="#DE9F76"/>
<rect x="447.54" y="51.8181" width="21.2152" height="17.2727" fill="#AC644B"/>
<rect x="42.4304" y="155.455" width="21.2152" height="17.2727" fill="#AC644B"/>
<rect x="62.6355" y="155.455" width="21.2152" height="17.2727" fill="#AC644B"/>
<rect x="244.48" y="155.455" width="21.2152" height="17.2727" fill="#AC644B"/>
<rect x="82.8403" y="155.455" width="21.2152" height="17.2727" fill="#AC644B"/>
<rect x="264.685" y="155.455" width="21.2152" height="17.2727" fill="#AC644B"/>
<rect x="103.045" y="155.455" width="21.2152" height="17.2727" fill="#AC644B"/>
<rect x="284.89" y="155.455" width="21.2152" height="17.2727" fill="#AC644B"/>
<rect x="123.25" y="155.455" width="21.2152" height="17.2727" fill="#AC644B"/>
<rect x="305.095" y="155.455" width="21.2152" height="17.2727" fill="#AC644B"/>
<rect x="143.455" y="155.455" width="21.2152" height="17.2727" fill="#AC644B"/>
<rect x="325.3" y="155.455" width="21.2152" height="17.2727" fill="#AC644B"/>
<rect x="163.66" y="155.455" width="21.2152" height="17.2727" fill="#AC644B"/>
<rect x="345.505" y="155.455" width="21.2152" height="17.2727" fill="#AC644B"/>
<rect x="183.865" y="155.455" width="21.2152" height="17.2727" fill="#AC644B"/>
<rect x="365.71" y="155.455" width="21.2152" height="17.2727" fill="#AC644B"/>
<rect x="204.07" y="155.455" width="21.2152" height="17.2727" fill="#AC644B"/>
<rect x="385.915" y="155.455" width="21.2152" height="17.2727" fill="#AC644B"/>
<rect x="224.275" y="155.455" width="21.2152" height="17.2727" fill="#AC644B"/>
<rect x="406.12" y="155.455" width="21.2152" height="17.2727" fill="#AC644B"/>
<rect x="447.54" y="103.636" width="21.2152" height="17.2727" fill="#AC644B"/>
<rect x="447.54" y="34.5454" width="21.2152" height="17.2727" fill="#AC644B"/>
<rect x="447.54" y="138.182" width="21.2152" height="17.2727" fill="#AC644B"/>
<rect x="427.335" y="138.182" width="21.2152" height="17.2727" fill="#AC644B"/>
<rect x="426.325" y="155.455" width="21.2152" height="17.2727" fill="#AC644B"/>
<rect x="447.54" y="86.3635" width="21.2152" height="17.2727" fill="#AC644B"/>
<rect x="447.54" y="120.909" width="21.2152" height="17.2727" fill="#AC644B"/>
<rect x="447.54" y="69.0908" width="21.2152" height="17.2727" fill="#AC644B"/>
<path d="M72.765 113.768V72.616H96.637V78.44H102.525V84.84H95.997V79.08H79.229V90.024H90.877V96.36H79.229V113.768H72.765ZM110.905 113.768V84.2H117.369V113.768H110.905ZM110.905 79.08V72.616H117.369V79.08H110.905ZM124.483 113.768V84.2H148.355V90.024H154.243V113.768H147.715V90.6H130.947V113.768H124.483ZM162.623 113.768V84.2H169.087V113.768H162.623ZM162.623 79.08V72.616H169.087V79.08H162.623ZM177.45 113.768V107.368H200.682V102.184H183.274V96.36H177.45V90.024H183.274V84.2H207.21V90.6H183.914V95.72H201.322V101.544H207.21V108.008H201.322V113.768H177.45ZM215.59 113.768V72.616H222.054V90.024H227.174V84.2H239.462V90.024H245.35V113.768H238.822V90.6H227.814V96.36H222.054V113.768H215.59ZM273.006 113.768V108.008H267.182V78.44H273.006V72.616H291.055V78.44H296.943V90.6H290.414V79.08H273.646V107.368H290.414V102.184H284.654V96.36H278.766V90.024H285.295V95.72H296.943V108.008H291.055V113.768H273.006ZM311.146 113.768V108.008H305.322V90.024H311.146V84.2H329.194V90.024H335.082V107.368H340.906V113.768H334.442V108.008H329.194V113.768H311.146ZM311.786 107.368H328.554V90.6H311.786V107.368ZM347.337 113.768V84.2H365.449V90.024H370.569V84.2H382.922V90.024H388.681V113.768H382.281V90.6H371.209V113.768H364.809V90.6H353.801V113.768H347.337ZM402.239 113.768V108.008H396.415V90.024H402.239V84.2H420.287V90.024H426.175V96.36H419.647V90.6H402.879V95.72H414.527V102.184H402.879V107.368H419.647V101.48H426.175V107.944H420.287V113.768H402.239Z" fill="#292734"/>
</svg>
