<svg width="490" height="190" viewBox="0 0 490 190" fill="none" xmlns="http://www.w3.org/2000/svg">
<path d="M52.533 9.04761L17.1743 37.8355L13.1333 148.463L56.0689 184.654H429.861L477.342 147.641V42.3593L438.953 9.87012L52.533 9.04761Z" fill="#D58D65"/>
<rect y="51.8181" width="21.2152" height="17.2727" fill="#292734"/>
<rect x="468.755" y="51.8181" width="21.2152" height="17.2727" fill="#292734"/>
<rect x="21.2153" y="155.455" width="21.2152" height="17.2727" fill="#292734"/>
<rect x="447.54" y="155.455" width="21.2152" height="17.2727" fill="#292734"/>
<rect x="42.4304" width="21.2152" height="17.2727" fill="#292734"/>
<rect x="41.4202" y="172.727" width="21.2152" height="17.2727" fill="#292734"/>
<rect x="62.6355" width="21.2152" height="17.2727" fill="#292734"/>
<rect x="61.6252" y="172.727" width="21.2152" height="17.2727" fill="#292734"/>
<rect x="244.48" width="21.2152" height="17.2727" fill="#292734"/>
<rect x="243.47" y="172.727" width="21.2152" height="17.2727" fill="#292734"/>
<rect x="82.8403" width="21.2152" height="17.2727" fill="#292734"/>
<rect x="81.8301" y="172.727" width="21.2152" height="17.2727" fill="#292734"/>
<rect x="264.685" width="21.2152" height="17.2727" fill="#292734"/>
<rect x="263.675" y="172.727" width="21.2152" height="17.2727" fill="#292734"/>
<rect x="103.045" width="21.2152" height="17.2727" fill="#292734"/>
<rect x="102.035" y="172.727" width="21.2152" height="17.2727" fill="#292734"/>
<rect x="284.89" width="21.2152" height="17.2727" fill="#292734"/>
<rect x="283.88" y="172.727" width="21.2152" height="17.2727" fill="#292734"/>
<rect x="123.25" width="21.2152" height="17.2727" fill="#292734"/>
<rect x="122.24" y="172.727" width="21.2152" height="17.2727" fill="#292734"/>
<rect x="305.095" width="21.2152" height="17.2727" fill="#292734"/>
<rect x="304.085" y="172.727" width="21.2152" height="17.2727" fill="#292734"/>
<rect x="143.455" width="21.2152" height="17.2727" fill="#292734"/>
<rect x="142.445" y="172.727" width="21.2152" height="17.2727" fill="#292734"/>
<rect x="325.3" width="21.2152" height="17.2727" fill="#292734"/>
<rect x="324.29" y="172.727" width="21.2152" height="17.2727" fill="#292734"/>
<rect x="163.66" width="21.2152" height="17.2727" fill="#292734"/>
<rect x="162.65" y="172.727" width="21.2152" height="17.2727" fill="#292734"/>
<rect x="345.505" width="21.2152" height="17.2727" fill="#292734"/>
<rect x="344.495" y="172.727" width="21.2152" height="17.2727" fill="#292734"/>
<rect x="183.865" width="21.2152" height="17.2727" fill="#292734"/>
<rect x="182.855" y="172.727" width="21.2152" height="17.2727" fill="#292734"/>
<rect x="365.71" width="21.2152" height="17.2727" fill="#292734"/>
<rect x="364.7" y="172.727" width="21.2152" height="17.2727" fill="#292734"/>
<rect x="204.07" width="21.2152" height="17.2727" fill="#292734"/>
<rect x="203.06" y="172.727" width="21.2152" height="17.2727" fill="#292734"/>
<rect x="385.915" width="21.2152" height="17.2727" fill="#292734"/>
<rect x="384.905" y="172.727" width="21.2152" height="17.2727" fill="#292734"/>
<rect x="224.275" width="21.2152" height="17.2727" fill="#292734"/>
<rect x="223.265" y="172.727" width="21.2152" height="17.2727" fill="#292734"/>
<rect x="406.12" width="21.2152" height="17.2727" fill="#292734"/>
<rect x="405.11" y="172.727" width="21.2152" height="17.2727" fill="#292734"/>
<rect x="426.325" width="21.2152" height="17.2727" fill="#292734"/>
<rect x="425.315" y="172.727" width="21.2152" height="17.2727" fill="#292734"/>
<rect y="103.636" width="21.2152" height="17.2727" fill="#292734"/>
<rect x="468.755" y="103.636" width="21.2152" height="17.2727" fill="#292734"/>
<rect x="468.755" y="34.5454" width="21.2152" height="17.2727" fill="#292734"/>
<rect y="138.182" width="21.2152" height="17.2727" fill="#292734"/>
<rect x="468.755" y="138.182" width="21.2152" height="17.2727" fill="#292734"/>
<rect y="86.3638" width="21.2152" height="17.2727" fill="#292734"/>
<rect x="468.755" y="86.3638" width="21.2152" height="17.2727" fill="#292734"/>
<rect x="21.2153" y="17.2727" width="21.2152" height="17.2727" fill="#292734"/>
<rect y="34.5454" width="21.2152" height="17.2727" fill="#292734"/>
<rect x="447.54" y="17.2727" width="21.2152" height="17.2727" fill="#292734"/>
<rect y="120.909" width="21.2152" height="17.2727" fill="#292734"/>
<rect x="468.755" y="120.909" width="21.2152" height="17.2727" fill="#292734"/>
<rect y="69.0908" width="21.2152" height="17.2727" fill="#292734"/>
<rect x="468.755" y="69.0908" width="21.2152" height="17.2727" fill="#292734"/>
<rect x="21.2153" y="51.8181" width="21.2152" height="17.2727" fill="#DE9F76"/>
<rect x="41.4204" y="17.2727" width="21.2152" height="17.2727" fill="#DE9F76"/>
<rect x="42.4307" y="34.5454" width="21.2152" height="17.2727" fill="#DE9F76"/>
<rect x="61.6252" y="17.2727" width="21.2152" height="17.2727" fill="#DE9F76"/>
<rect x="243.47" y="17.2727" width="21.2152" height="17.2727" fill="#DE9F76"/>
<rect x="81.8303" y="17.2727" width="21.2152" height="17.2727" fill="#DE9F76"/>
<rect x="263.675" y="17.2727" width="21.2152" height="17.2727" fill="#DE9F76"/>
<rect x="102.035" y="17.2727" width="21.2152" height="17.2727" fill="#DE9F76"/>
<rect x="283.88" y="17.2727" width="21.2152" height="17.2727" fill="#DE9F76"/>
<rect x="122.24" y="17.2727" width="21.2152" height="17.2727" fill="#DE9F76"/>
<rect x="304.085" y="17.2727" width="21.2152" height="17.2727" fill="#DE9F76"/>
<rect x="142.445" y="17.2727" width="21.2152" height="17.2727" fill="#DE9F76"/>
<rect x="324.29" y="17.2727" width="21.2152" height="17.2727" fill="#DE9F76"/>
<rect x="162.65" y="17.2727" width="21.2152" height="17.2727" fill="#DE9F76"/>
<rect x="344.495" y="17.2727" width="21.2152" height="17.2727" fill="#DE9F76"/>
<rect x="182.855" y="17.2727" width="21.2152" height="17.2727" fill="#DE9F76"/>
<rect x="364.7" y="17.2727" width="21.2152" height="17.2727" fill="#DE9F76"/>
<rect x="203.06" y="17.2727" width="21.2152" height="17.2727" fill="#DE9F76"/>
<rect x="384.905" y="17.2727" width="21.2152" height="17.2727" fill="#DE9F76"/>
<rect x="223.265" y="17.2727" width="21.2152" height="17.2727" fill="#DE9F76"/>
<rect x="405.11" y="17.2727" width="21.2152" height="17.2727" fill="#DE9F76"/>
<rect x="21.2153" y="103.636" width="21.2152" height="17.2727" fill="#DE9F76"/>
<rect x="21.2153" y="86.3635" width="21.2152" height="17.2727" fill="#DE9F76"/>
<rect x="21.2153" y="34.5454" width="21.2152" height="17.2727" fill="#DE9F76"/>
<rect x="21.2153" y="120.909" width="21.2152" height="17.2727" fill="#DE9F76"/>
<rect x="21.2153" y="69.0908" width="21.2152" height="17.2727" fill="#DE9F76"/>
<rect x="447.54" y="51.8181" width="21.2152" height="17.2727" fill="#AC644B"/>
<rect x="42.4304" y="155.455" width="21.2152" height="17.2727" fill="#AC644B"/>
<rect x="62.6355" y="155.455" width="21.2152" height="17.2727" fill="#AC644B"/>
<rect x="244.48" y="155.455" width="21.2152" height="17.2727" fill="#AC644B"/>
<rect x="82.8403" y="155.455" width="21.2152" height="17.2727" fill="#AC644B"/>
<rect x="264.685" y="155.455" width="21.2152" height="17.2727" fill="#AC644B"/>
<rect x="103.045" y="155.455" width="21.2152" height="17.2727" fill="#AC644B"/>
<rect x="284.89" y="155.455" width="21.2152" height="17.2727" fill="#AC644B"/>
<rect x="123.25" y="155.455" width="21.2152" height="17.2727" fill="#AC644B"/>
<rect x="305.095" y="155.455" width="21.2152" height="17.2727" fill="#AC644B"/>
<rect x="143.455" y="155.455" width="21.2152" height="17.2727" fill="#AC644B"/>
<rect x="325.3" y="155.455" width="21.2152" height="17.2727" fill="#AC644B"/>
<rect x="163.66" y="155.455" width="21.2152" height="17.2727" fill="#AC644B"/>
<rect x="345.505" y="155.455" width="21.2152" height="17.2727" fill="#AC644B"/>
<rect x="183.865" y="155.455" width="21.2152" height="17.2727" fill="#AC644B"/>
<rect x="365.71" y="155.455" width="21.2152" height="17.2727" fill="#AC644B"/>
<rect x="204.07" y="155.455" width="21.2152" height="17.2727" fill="#AC644B"/>
<rect x="385.915" y="155.455" width="21.2152" height="17.2727" fill="#AC644B"/>
<rect x="224.275" y="155.455" width="21.2152" height="17.2727" fill="#AC644B"/>
<rect x="406.12" y="155.455" width="21.2152" height="17.2727" fill="#AC644B"/>
<rect x="447.54" y="103.636" width="21.2152" height="17.2727" fill="#AC644B"/>
<rect x="447.54" y="34.5454" width="21.2152" height="17.2727" fill="#AC644B"/>
<rect x="447.54" y="138.182" width="21.2152" height="17.2727" fill="#AC644B"/>
<rect x="427.335" y="138.182" width="21.2152" height="17.2727" fill="#AC644B"/>
<rect x="426.325" y="155.455" width="21.2152" height="17.2727" fill="#AC644B"/>
<rect x="447.54" y="86.3635" width="21.2152" height="17.2727" fill="#AC644B"/>
<rect x="447.54" y="120.909" width="21.2152" height="17.2727" fill="#AC644B"/>
<rect x="447.54" y="69.0908" width="21.2152" height="17.2727" fill="#AC644B"/>
<path d="M74.6162 113.768V72.616H81.0802V78.44H86.8402V84.2H92.7282V101.544H97.8482V72.616H104.376V113.768H97.8482V108.008H92.0882V102.184H86.2002V84.84H81.0802V113.768H74.6162ZM117.33 113.768V108.008H111.506V90.024H117.33V84.2H135.378V90.024H141.266V96.36H134.738V90.6H117.97V95.72H129.618V102.184H117.97V107.368H134.738V101.48H141.266V107.944H135.378V113.768H117.33ZM149.646 113.768V107.368H155.47V101.544H161.23V96.36H155.47V90.6H149.646V84.2H156.11V90.024H161.87V95.72H167.118V90.024H172.878V84.2H179.406V90.6H173.518V96.36H167.758V101.544H173.518V107.368H179.406V113.768H172.878V108.008H167.118V102.184H161.87V108.008H156.11V113.768H149.646ZM197.433 113.768V108.008H191.673V90.6H185.849V84.2H191.673V72.616H198.073V84.2H215.609V90.6H198.073V107.368H214.969V101.544H221.433V108.008H215.609V113.768H197.433ZM243.254 113.768V78.44H249.078V72.616H267.126V78.44H273.014V96.36H267.126V102.184H264.31V107.368H270.07V113.768H263.67V108.008H257.782V102.184H249.718V113.768H243.254ZM249.718 95.72H266.486V79.08H249.718V95.72ZM287.218 113.768V108.008H281.394V90.024H287.218V84.2H305.266V90.024H311.154V108.008H305.266V113.768H287.218ZM287.858 107.368H304.626V90.6H287.858V107.368ZM325.358 113.768V108.008H319.534V84.2H325.998V107.368H342.766V84.2H349.294V108.008H343.406V113.768H325.358ZM357.674 113.768V84.2H381.546V90.024H387.434V113.768H380.906V90.6H364.138V113.768H357.674ZM400.388 113.768V108.008H394.564V90.024H400.388V84.2H417.86V72.616H424.324V108.008H418.436V113.768H400.388ZM401.028 107.368H417.796V90.6H401.028V107.368Z" fill="#292734"/>
</svg>
