<svg width="125" height="122" viewBox="0 0 125 122" fill="none" xmlns="http://www.w3.org/2000/svg">
<path d="M26.7922 5.80957L7.8501 26.0053V95.3527L26.7922 115.579L90.8676 118.567L109.303 102.737L115.403 24.079L95.8185 5.80957H26.7922Z" fill="#96B5C9"/>
<rect y="33.3894" width="10.9158" height="10.9158" fill="#292734"/>
<rect x="113.353" y="33.3894" width="11.5579" height="10.9158" fill="#292734"/>
<rect x="10.9158" y="99.5264" width="10.9158" height="11.5579" fill="#292734"/>
<rect x="101.795" y="99.5264" width="11.5579" height="11.5579" fill="#292734"/>
<rect x="21.8318" width="3.78032" height="11.0909" fill="#292734"/>
<rect x="21.6519" y="110.909" width="3.78032" height="11.0909" fill="#292734"/>
<rect x="25.4321" width="3.78032" height="11.0909" fill="#292734"/>
<rect x="25.252" y="110.909" width="3.78032" height="11.0909" fill="#292734"/>
<rect x="57.8347" width="3.78032" height="11.0909" fill="#292734"/>
<rect x="57.6548" y="110.909" width="3.78032" height="11.0909" fill="#292734"/>
<rect x="29.0322" width="3.78032" height="11.0909" fill="#292734"/>
<rect x="28.8523" y="110.909" width="3.78032" height="11.0909" fill="#292734"/>
<rect x="61.4351" width="3.78032" height="11.0909" fill="#292734"/>
<rect x="61.2551" y="110.909" width="3.78032" height="11.0909" fill="#292734"/>
<rect x="32.6328" width="3.78032" height="11.0909" fill="#292734"/>
<rect x="32.4526" y="110.909" width="3.78032" height="11.0909" fill="#292734"/>
<rect x="65.0354" width="3.78032" height="11.0909" fill="#292734"/>
<rect x="64.8555" y="110.909" width="3.78032" height="11.0909" fill="#292734"/>
<rect x="36.2329" width="3.78032" height="11.0909" fill="#292734"/>
<rect x="36.053" y="110.909" width="3.78032" height="11.0909" fill="#292734"/>
<rect x="68.6357" width="3.78032" height="11.0909" fill="#292734"/>
<rect x="68.4556" y="110.909" width="3.78032" height="11.0909" fill="#292734"/>
<rect x="39.8333" width="3.78032" height="11.0909" fill="#292734"/>
<rect x="39.6531" y="110.909" width="3.78032" height="11.0909" fill="#292734"/>
<rect x="72.2358" width="3.78032" height="11.0909" fill="#292734"/>
<rect x="72.0559" y="110.909" width="3.78032" height="11.0909" fill="#292734"/>
<rect x="43.4336" width="3.78032" height="11.0909" fill="#292734"/>
<rect x="43.2537" y="110.909" width="3.78032" height="11.0909" fill="#292734"/>
<rect x="75.8362" width="3.78032" height="11.0909" fill="#292734"/>
<rect x="75.6562" y="110.909" width="3.78032" height="11.0909" fill="#292734"/>
<rect x="47.0339" width="3.78032" height="11.0909" fill="#292734"/>
<rect x="46.8538" y="110.909" width="3.78032" height="11.0909" fill="#292734"/>
<rect x="79.4365" width="3.78032" height="11.0909" fill="#292734"/>
<rect x="79.2566" y="110.909" width="3.78032" height="11.0909" fill="#292734"/>
<rect x="50.634" width="3.78032" height="11.0909" fill="#292734"/>
<rect x="50.4541" y="110.909" width="3.78032" height="11.0909" fill="#292734"/>
<rect x="83.0369" width="3.78032" height="11.0909" fill="#292734"/>
<rect x="82.8569" y="110.909" width="3.78032" height="11.0909" fill="#292734"/>
<rect x="54.2344" width="3.78032" height="11.0909" fill="#292734"/>
<rect x="54.0544" y="110.909" width="3.78032" height="11.0909" fill="#292734"/>
<rect x="86.6372" width="3.78032" height="11.0909" fill="#292734"/>
<rect x="86.4573" y="110.909" width="3.78032" height="11.0909" fill="#292734"/>
<rect x="90.0396" width="11.5579" height="10.9158" fill="#292734"/>
<rect x="90.0396" y="111.084" width="11.5579" height="10.9158" fill="#292734"/>
<rect y="66.7791" width="10.9158" height="10.9158" fill="#292734"/>
<rect x="113.353" y="66.7791" width="11.5579" height="10.9158" fill="#292734"/>
<rect x="113.353" y="22.4736" width="11.5579" height="10.9158" fill="#292734"/>
<rect y="88.6106" width="10.9158" height="10.9158" fill="#292734"/>
<rect x="113.353" y="88.6106" width="11.5579" height="10.9158" fill="#292734"/>
<rect y="55.2209" width="10.9158" height="11.5579" fill="#292734"/>
<rect x="113.353" y="55.2212" width="11.5579" height="11.5579" fill="#292734"/>
<rect x="10.9158" y="10.9158" width="10.9158" height="11.5579" fill="#292734"/>
<rect y="22.4736" width="10.9158" height="10.9158" fill="#292734"/>
<rect x="101.795" y="10.9158" width="11.5579" height="11.5579" fill="#292734"/>
<rect y="77.6948" width="10.9158" height="10.9158" fill="#292734"/>
<rect x="113.353" y="77.6948" width="11.5579" height="10.9158" fill="#292734"/>
<rect y="44.3052" width="10.9158" height="10.9158" fill="#292734"/>
<rect x="113.353" y="44.3052" width="11.5579" height="10.9158" fill="#292734"/>
<rect x="10.9158" y="33.3894" width="10.9158" height="10.9158" fill="#B0C2CC"/>
<rect x="21.6516" y="11.0908" width="3.78032" height="11.0909" fill="#B0C2CC"/>
<rect x="21.8315" y="22.1816" width="3.78032" height="11.0909" fill="#B0C2CC"/>
<rect x="25.252" y="11.0908" width="3.78032" height="11.0909" fill="#B0C2CC"/>
<rect x="57.6545" y="11.0908" width="3.78032" height="11.0909" fill="#B0C2CC"/>
<rect x="28.8521" y="11.0908" width="3.78032" height="11.0909" fill="#B0C2CC"/>
<rect x="61.2549" y="11.0908" width="3.78032" height="11.0909" fill="#B0C2CC"/>
<rect x="32.4526" y="11.0908" width="3.78032" height="11.0909" fill="#B0C2CC"/>
<rect x="64.8552" y="11.0908" width="3.78032" height="11.0909" fill="#B0C2CC"/>
<rect x="36.053" y="11.0908" width="3.78032" height="11.0909" fill="#B0C2CC"/>
<rect x="68.4556" y="11.0908" width="3.78032" height="11.0909" fill="#B0C2CC"/>
<rect x="39.6531" y="11.0908" width="3.78032" height="11.0909" fill="#B0C2CC"/>
<rect x="72.0559" y="11.0908" width="3.78032" height="11.0909" fill="#B0C2CC"/>
<rect x="43.2534" y="11.0908" width="3.78032" height="11.0909" fill="#B0C2CC"/>
<rect x="75.6562" y="11.0908" width="3.78032" height="11.0909" fill="#B0C2CC"/>
<rect x="46.8538" y="11.0908" width="3.78032" height="11.0909" fill="#B0C2CC"/>
<rect x="79.2563" y="11.0908" width="3.78032" height="11.0909" fill="#B0C2CC"/>
<rect x="50.4541" y="11.0908" width="3.78032" height="11.0909" fill="#B0C2CC"/>
<rect x="82.8567" y="11.0908" width="3.78032" height="11.0909" fill="#B0C2CC"/>
<rect x="54.0544" y="11.0908" width="3.78032" height="11.0909" fill="#B0C2CC"/>
<rect x="86.457" y="11.0908" width="3.78032" height="11.0909" fill="#B0C2CC"/>
<rect x="10.9158" y="66.7788" width="10.9158" height="10.9158" fill="#B0C2CC"/>
<rect x="10.9158" y="55.2209" width="10.9158" height="11.5579" fill="#B0C2CC"/>
<rect x="10.9158" y="22.4736" width="10.9158" height="10.9158" fill="#B0C2CC"/>
<rect x="10.9158" y="77.6946" width="10.9158" height="10.9158" fill="#B0C2CC"/>
<rect x="10.9158" y="44.3052" width="10.9158" height="10.9158" fill="#B0C2CC"/>
<rect x="101.796" y="33.3894" width="11.5579" height="10.9158" fill="#4E6693"/>
<rect x="21.8318" y="99.8181" width="3.78032" height="11.0909" fill="#4E6693"/>
<rect x="25.4321" y="99.8181" width="3.78032" height="11.0909" fill="#4E6693"/>
<rect x="57.835" y="99.8181" width="3.78032" height="11.0909" fill="#4E6693"/>
<rect x="29.0322" y="99.8181" width="3.78032" height="11.0909" fill="#4E6693"/>
<rect x="61.4353" y="99.8181" width="3.78032" height="11.0909" fill="#4E6693"/>
<rect x="32.6328" y="99.8181" width="3.78032" height="11.0909" fill="#4E6693"/>
<rect x="65.0356" y="99.8181" width="3.78032" height="11.0909" fill="#4E6693"/>
<rect x="36.2332" y="99.8181" width="3.78032" height="11.0909" fill="#4E6693"/>
<rect x="68.6357" y="99.8181" width="3.78032" height="11.0909" fill="#4E6693"/>
<rect x="39.8333" y="99.8181" width="3.78032" height="11.0909" fill="#4E6693"/>
<rect x="72.2361" y="99.8181" width="3.78032" height="11.0909" fill="#4E6693"/>
<rect x="43.4338" y="99.8181" width="3.78032" height="11.0909" fill="#4E6693"/>
<rect x="75.8364" y="99.8181" width="3.78032" height="11.0909" fill="#4E6693"/>
<rect x="47.0339" y="99.8181" width="3.78032" height="11.0909" fill="#4E6693"/>
<rect x="79.4368" y="99.8181" width="3.78032" height="11.0909" fill="#4E6693"/>
<rect x="50.6343" y="99.8181" width="3.78032" height="11.0909" fill="#4E6693"/>
<rect x="83.0371" y="99.8181" width="3.78032" height="11.0909" fill="#4E6693"/>
<rect x="54.2346" y="99.8181" width="3.78032" height="11.0909" fill="#4E6693"/>
<rect x="86.6375" y="99.8181" width="3.78032" height="11.0909" fill="#4E6693"/>
<rect x="101.796" y="66.7788" width="11.5579" height="10.9158" fill="#4E6693"/>
<rect x="101.796" y="22.4736" width="11.5579" height="10.9158" fill="#4E6693"/>
<rect x="101.796" y="88.6106" width="11.5579" height="10.9158" fill="#4E6693"/>
<rect x="90.8799" y="88.6106" width="11.5579" height="10.9158" fill="#4E6693"/>
<rect x="88.7554" y="99.5264" width="13.4842" height="11.5579" fill="#4E6693"/>
<rect x="101.796" y="55.2209" width="11.5579" height="11.5579" fill="#4E6693"/>
<rect x="101.796" y="77.6948" width="11.5579" height="10.9158" fill="#4E6693"/>
<rect x="101.796" y="44.3052" width="11.5579" height="10.9158" fill="#4E6693"/>
<rect x="31.5" y="44.75" width="7.125" height="7.125" fill="#292734" stroke="#292734"/>
<rect x="47.75" y="44.75" width="7.125" height="7.125" fill="#292734" stroke="#292734"/>
<rect x="64" y="44.75" width="7.125" height="7.125" fill="#292734" stroke="#292734"/>
<rect x="80.25" y="44.75" width="7.125" height="7.125" fill="#292734" stroke="#292734"/>
<rect x="31.5" y="69.125" width="7.125" height="7.125" fill="#292734" stroke="#292734"/>
<rect x="47.75" y="69.125" width="7.125" height="7.125" fill="#292734" stroke="#292734"/>
<rect x="64" y="69.125" width="7.125" height="7.125" fill="#292734" stroke="#292734"/>
<rect x="80.25" y="69.125" width="7.125" height="7.125" fill="#292734" stroke="#292734"/>
<rect x="31.5" y="36.625" width="7.125" height="7.125" fill="#292734" stroke="#292734"/>
<rect x="47.75" y="36.625" width="7.125" height="7.125" fill="#292734" stroke="#292734"/>
<rect x="64" y="36.625" width="7.125" height="7.125" fill="#292734" stroke="#292734"/>
<rect x="80.25" y="36.625" width="7.125" height="7.125" fill="#292734" stroke="#292734"/>
<rect x="39.625" y="85.375" width="7.125" height="7.125" fill="#292734" stroke="#292734"/>
<rect x="72.125" y="85.375" width="7.125" height="7.125" fill="#292734" stroke="#292734"/>
<rect x="31.5" y="61" width="7.125" height="7.125" fill="#292734" stroke="#292734"/>
<rect x="47.75" y="61" width="7.125" height="7.125" fill="#292734" stroke="#292734"/>
<rect x="64" y="61" width="7.125" height="7.125" fill="#292734" stroke="#292734"/>
<rect x="80.25" y="61" width="7.125" height="7.125" fill="#292734" stroke="#292734"/>
<rect x="39.625" y="28.5" width="7.125" height="7.125" fill="#292734" stroke="#292734"/>
<rect x="72.125" y="28.5" width="7.125" height="7.125" fill="#292734" stroke="#292734"/>
<rect x="31.5" y="77.25" width="7.125" height="7.125" fill="#292734" stroke="#292734"/>
<rect x="47.75" y="77.25" width="7.125" height="7.125" fill="#292734" stroke="#292734"/>
<rect x="64" y="77.25" width="7.125" height="7.125" fill="#292734" stroke="#292734"/>
<rect x="80.25" y="77.25" width="7.125" height="7.125" fill="#292734" stroke="#292734"/>
<rect x="31.5" y="52.875" width="7.125" height="7.125" fill="#292734" stroke="#292734"/>
<rect x="47.75" y="52.875" width="7.125" height="7.125" fill="#292734" stroke="#292734"/>
<rect x="64" y="52.875" width="7.125" height="7.125" fill="#292734" stroke="#292734"/>
<rect x="80.25" y="52.875" width="7.125" height="7.125" fill="#292734" stroke="#292734"/>
</svg>
