<svg width="1200" height="190" viewBox="0 0 1200 190" fill="none" xmlns="http://www.w3.org/2000/svg">
<path d="M101.796 9L10.4406 37.7879L0 148.416L110.931 184.606H1076.69L1199.37 147.593V42.3117L1100.18 9.82251L101.796 9Z" fill="#96B5C9"/>
<rect y="52" width="21" height="17" fill="#292734"/>
<rect x="1177.3" y="52" width="22" height="17" fill="#292734"/>
<rect x="21.0002" y="155.455" width="54.8132" height="17.2727" fill="#292734"/>
<rect x="1122.48" y="155.455" width="54.8132" height="17.2727" fill="#292734"/>
<rect x="75.8132" width="54.8132" height="17.2727" fill="#292734"/>
<rect x="73.203" y="172.727" width="54.8132" height="17.2727" fill="#292734"/>
<rect x="128.016" width="54.8132" height="17.2727" fill="#292734"/>
<rect x="125.406" y="172.727" width="54.8132" height="17.2727" fill="#292734"/>
<rect x="597.844" width="54.8132" height="17.2727" fill="#292734"/>
<rect x="595.234" y="172.727" width="54.8132" height="17.2727" fill="#292734"/>
<rect x="180.219" width="54.8132" height="17.2727" fill="#292734"/>
<rect x="177.609" y="172.727" width="54.8132" height="17.2727" fill="#292734"/>
<rect x="650.047" width="54.8132" height="17.2727" fill="#292734"/>
<rect x="647.436" y="172.727" width="54.8132" height="17.2727" fill="#292734"/>
<rect x="232.422" width="54.8132" height="17.2727" fill="#292734"/>
<rect x="229.812" y="172.727" width="54.8132" height="17.2727" fill="#292734"/>
<rect x="702.25" width="54.8132" height="17.2727" fill="#292734"/>
<rect x="699.64" y="172.727" width="54.8132" height="17.2727" fill="#292734"/>
<rect x="284.625" width="54.8132" height="17.2727" fill="#292734"/>
<rect x="282.015" y="172.727" width="54.8132" height="17.2727" fill="#292734"/>
<rect x="754.453" width="54.8132" height="17.2727" fill="#292734"/>
<rect x="751.843" y="172.727" width="54.8132" height="17.2727" fill="#292734"/>
<rect x="336.829" width="54.8132" height="17.2727" fill="#292734"/>
<rect x="334.218" y="172.727" width="54.8132" height="17.2727" fill="#292734"/>
<rect x="806.656" width="54.8132" height="17.2727" fill="#292734"/>
<rect x="804.046" y="172.727" width="54.8132" height="17.2727" fill="#292734"/>
<rect x="389.031" width="54.8132" height="17.2727" fill="#292734"/>
<rect x="386.421" y="172.727" width="54.8132" height="17.2727" fill="#292734"/>
<rect x="858.858" width="54.8132" height="17.2727" fill="#292734"/>
<rect x="856.249" y="172.727" width="54.8132" height="17.2727" fill="#292734"/>
<rect x="441.235" width="54.8132" height="17.2727" fill="#292734"/>
<rect x="438.625" y="172.727" width="54.8132" height="17.2727" fill="#292734"/>
<rect x="911.062" width="54.8132" height="17.2727" fill="#292734"/>
<rect x="908.452" y="172.727" width="54.8132" height="17.2727" fill="#292734"/>
<rect x="493.438" width="54.8132" height="17.2727" fill="#292734"/>
<rect x="490.828" y="172.727" width="54.8132" height="17.2727" fill="#292734"/>
<rect x="963.265" width="54.8132" height="17.2727" fill="#292734"/>
<rect x="960.655" y="172.727" width="54.8132" height="17.2727" fill="#292734"/>
<rect x="545.64" width="54.8132" height="17.2727" fill="#292734"/>
<rect x="543.03" y="172.727" width="54.8132" height="17.2727" fill="#292734"/>
<rect x="1015.47" width="54.8132" height="17.2727" fill="#292734"/>
<rect x="1012.86" y="172.727" width="54.8132" height="17.2727" fill="#292734"/>
<rect x="1067.67" width="54.8132" height="17.2727" fill="#292734"/>
<rect x="1065.06" y="172.727" width="54.8132" height="17.2727" fill="#292734"/>
<rect y="104" width="21" height="17" fill="#292734"/>
<rect x="1177.3" y="104" width="22" height="17" fill="#292734"/>
<rect x="1177.3" y="35" width="22" height="17" fill="#292734"/>
<rect y="138" width="21" height="17" fill="#292734"/>
<rect x="1177.3" y="138" width="22" height="17" fill="#292734"/>
<rect y="86" width="21" height="18" fill="#292734"/>
<rect x="1177.3" y="86" width="22" height="18" fill="#292734"/>
<rect x="21.0002" y="17.2727" width="54.8132" height="17.2727" fill="#292734"/>
<rect y="35" width="21" height="17" fill="#292734"/>
<rect x="1122.48" y="17.2727" width="54.8132" height="17.2727" fill="#292734"/>
<rect y="121" width="21" height="17" fill="#292734"/>
<rect x="1177.3" y="121" width="22" height="17" fill="#292734"/>
<rect y="69" width="21" height="17" fill="#292734"/>
<rect x="1177.3" y="69" width="22" height="17" fill="#292734"/>
<rect x="21.0002" y="51.8635" width="26" height="17" fill="#D9D9D9"/>
<rect x="73.2037" y="17.2727" width="54.8132" height="17.2727" fill="#D9D9D9"/>
<rect x="47.0002" y="34.8635" width="26" height="17" fill="#D9D9D9"/>
<rect x="125.406" y="17.2727" width="54.8132" height="17.2727" fill="#D9D9D9"/>
<rect x="595.234" y="17.2727" width="54.8132" height="17.2727" fill="#D9D9D9"/>
<rect x="177.61" y="17.2727" width="54.8132" height="17.2727" fill="#D9D9D9"/>
<rect x="647.437" y="17.2727" width="54.8132" height="17.2727" fill="#D9D9D9"/>
<rect x="229.812" y="17.2727" width="54.8132" height="17.2727" fill="#D9D9D9"/>
<rect x="699.64" y="17.2727" width="54.8132" height="17.2727" fill="#D9D9D9"/>
<rect x="282.016" y="17.2727" width="54.8132" height="17.2727" fill="#D9D9D9"/>
<rect x="751.843" y="17.2727" width="54.8132" height="17.2727" fill="#D9D9D9"/>
<rect x="334.218" y="17.2727" width="54.8132" height="17.2727" fill="#D9D9D9"/>
<rect x="804.046" y="17.2727" width="54.8132" height="17.2727" fill="#D9D9D9"/>
<rect x="386.422" y="17.2727" width="54.8132" height="17.2727" fill="#D9D9D9"/>
<rect x="856.249" y="17.2727" width="54.8132" height="17.2727" fill="#D9D9D9"/>
<rect x="438.625" y="17.2727" width="54.8132" height="17.2727" fill="#D9D9D9"/>
<rect x="908.452" y="17.2727" width="54.8132" height="17.2727" fill="#D9D9D9"/>
<rect x="490.828" y="17.2727" width="54.8132" height="17.2727" fill="#D9D9D9"/>
<rect x="960.655" y="17.2727" width="54.8132" height="17.2727" fill="#D9D9D9"/>
<rect x="543.031" y="17.2727" width="54.8132" height="17.2727" fill="#D9D9D9"/>
<rect x="1012.86" y="17.2727" width="54.8132" height="17.2727" fill="#D9D9D9"/>
<rect x="21.0002" y="103.864" width="26" height="17" fill="#D9D9D9"/>
<rect x="21.0002" y="85.8635" width="26" height="18" fill="#D9D9D9"/>
<rect x="21.0002" y="34.8635" width="26" height="17" fill="#D9D9D9"/>
<rect x="21.0002" y="120.864" width="26" height="17" fill="#D9D9D9"/>
<rect x="21.0002" y="68.8635" width="26" height="17" fill="#D9D9D9"/>
<rect x="1149.3" y="52" width="28" height="17" fill="#3F4E6F"/>
<rect x="75.8132" y="155.455" width="54.8132" height="17.2727" fill="#3F4E6F"/>
<rect x="128.016" y="155.455" width="54.8132" height="17.2727" fill="#3F4E6F"/>
<rect x="597.844" y="155.455" width="54.8132" height="17.2727" fill="#3F4E6F"/>
<rect x="180.219" y="155.455" width="54.8132" height="17.2727" fill="#3F4E6F"/>
<rect x="650.047" y="155.455" width="54.8132" height="17.2727" fill="#3F4E6F"/>
<rect x="232.422" y="155.455" width="54.8132" height="17.2727" fill="#3F4E6F"/>
<rect x="702.25" y="155.455" width="54.8132" height="17.2727" fill="#3F4E6F"/>
<rect x="284.625" y="155.455" width="54.8132" height="17.2727" fill="#3F4E6F"/>
<rect x="754.453" y="155.455" width="54.8132" height="17.2727" fill="#3F4E6F"/>
<rect x="336.829" y="155.455" width="54.8132" height="17.2727" fill="#3F4E6F"/>
<rect x="806.656" y="155.455" width="54.8132" height="17.2727" fill="#3F4E6F"/>
<rect x="389.031" y="155.455" width="54.8132" height="17.2727" fill="#3F4E6F"/>
<rect x="858.858" y="155.455" width="54.8132" height="17.2727" fill="#3F4E6F"/>
<rect x="441.235" y="155.455" width="54.8132" height="17.2727" fill="#3F4E6F"/>
<rect x="911.062" y="155.455" width="54.8132" height="17.2727" fill="#3F4E6F"/>
<rect x="493.438" y="155.455" width="54.8132" height="17.2727" fill="#3F4E6F"/>
<rect x="963.265" y="155.455" width="54.8132" height="17.2727" fill="#3F4E6F"/>
<rect x="545.64" y="155.455" width="54.8132" height="17.2727" fill="#3F4E6F"/>
<rect x="1015.47" y="155.455" width="54.8132" height="17.2727" fill="#3F4E6F"/>
<rect x="1149.3" y="104" width="28" height="17" fill="#3F4E6F"/>
<rect x="1149.3" y="35" width="28" height="17" fill="#3F4E6F"/>
<rect x="1149.3" y="138" width="28" height="17" fill="#3F4E6F"/>
<rect x="1122.3" y="138" width="28" height="17" fill="#3F4E6F"/>
<rect x="1067.67" y="155.455" width="54.8132" height="17.2727" fill="#3F4E6F"/>
<rect x="1149.3" y="86" width="28" height="18" fill="#3F4E6F"/>
<rect x="1149.3" y="121" width="28" height="17" fill="#3F4E6F"/>
<rect x="1149.3" y="69" width="28" height="17" fill="#3F4E6F"/>
</svg>
