<svg width="893" height="793" viewBox="0 0 893 793" fill="none" xmlns="http://www.w3.org/2000/svg">
<path d="M37.0632 12.2998L9.96069 124.224V676.958L37.0632 768.778L851.851 782.403L884.332 676.958V124.224L856.515 2.33484L37.0632 12.2998Z" fill="#96B5C9"/>
<rect x="0.342773" y="183.708" width="30.315" height="84.119" fill="#B0C2CC"/>
<rect x="28.5049" y="16.8906" width="43.3071" height="52.1301" fill="#B0C2CC"/>
<rect x="30.2371" y="69.0208" width="19.9213" height="52.1301" fill="#B0C2CC"/>
<rect x="70.0798" y="16.8906" width="43.3071" height="26.065" fill="#B0C2CC"/>
<rect x="442.521" y="16.8906" width="44.1733" height="26.065" fill="#B0C2CC"/>
<rect x="111.655" y="16.8906" width="42.441" height="26.065" fill="#B0C2CC"/>
<rect x="484.096" y="16.8906" width="44.1733" height="26.065" fill="#B0C2CC"/>
<rect x="153.229" y="16.8906" width="42.441" height="26.065" fill="#B0C2CC"/>
<rect x="525.671" y="16.8906" width="44.1733" height="26.065" fill="#B0C2CC"/>
<rect x="194.804" y="16.8906" width="42.441" height="26.065" fill="#B0C2CC"/>
<rect x="567.246" y="16.8906" width="44.1733" height="26.065" fill="#B0C2CC"/>
<rect x="235.513" y="16.8906" width="44.1733" height="26.065" fill="#B0C2CC"/>
<rect x="608.82" y="16.8906" width="44.1733" height="26.065" fill="#B0C2CC"/>
<rect x="277.088" y="16.8906" width="44.1733" height="26.065" fill="#B0C2CC"/>
<rect x="650.396" y="16.8906" width="43.3071" height="26.065" fill="#B0C2CC"/>
<rect x="318.663" y="16.8906" width="44.1733" height="26.065" fill="#B0C2CC"/>
<rect x="691.104" y="16.8906" width="44.1733" height="26.065" fill="#B0C2CC"/>
<rect x="360.238" y="16.8906" width="44.1733" height="26.065" fill="#B0C2CC"/>
<rect x="732.679" y="16.8906" width="44.1733" height="26.065" fill="#B0C2CC"/>
<rect x="401.812" y="16.8906" width="44.1733" height="26.065" fill="#B0C2CC"/>
<rect x="775.12" y="16.8906" width="43.3071" height="26.065" fill="#B0C2CC"/>
<rect x="0.342773" y="434.88" width="30.315" height="84.119" fill="#B0C2CC"/>
<rect x="0.342773" y="351.946" width="30.315" height="82.9342" fill="#B0C2CC"/>
<rect x="0.342773" y="100.774" width="30.315" height="82.9342" fill="#B0C2CC"/>
<rect x="0.342773" y="518.999" width="30.315" height="84.119" fill="#B0C2CC"/>
<rect x="0.342773" y="267.827" width="30.315" height="84.119" fill="#B0C2CC"/>
<rect x="862.192" y="184.123" width="23.3859" height="84.119" fill="#4E6693"/>
<rect x="30.4934" y="744.699" width="44.1733" height="26.065" fill="#4E6693"/>
<rect x="72.0684" y="744.699" width="44.1733" height="26.065" fill="#4E6693"/>
<rect x="446.242" y="744.699" width="42.441" height="26.065" fill="#4E6693"/>
<rect x="113.643" y="744.699" width="44.1733" height="26.065" fill="#4E6693"/>
<rect x="486.951" y="744.699" width="43.3071" height="26.065" fill="#4E6693"/>
<rect x="154.352" y="744.699" width="44.1733" height="26.065" fill="#4E6693"/>
<rect x="528.525" y="744.699" width="43.3071" height="26.065" fill="#4E6693"/>
<rect x="195.927" y="744.699" width="44.1733" height="26.065" fill="#4E6693"/>
<rect x="570.101" y="744.699" width="42.441" height="26.065" fill="#4E6693"/>
<rect x="237.501" y="744.699" width="44.1733" height="26.065" fill="#4E6693"/>
<rect x="611.675" y="744.699" width="44.1733" height="26.065" fill="#4E6693"/>
<rect x="279.942" y="744.699" width="43.3071" height="26.065" fill="#4E6693"/>
<rect x="653.25" y="744.699" width="44.1733" height="26.065" fill="#4E6693"/>
<rect x="321.517" y="744.699" width="43.3071" height="26.065" fill="#4E6693"/>
<rect x="693.959" y="744.699" width="44.1733" height="26.065" fill="#4E6693"/>
<rect x="363.092" y="744.699" width="42.441" height="26.065" fill="#4E6693"/>
<rect x="735.534" y="744.699" width="44.1733" height="26.065" fill="#4E6693"/>
<rect x="404.667" y="744.699" width="42.441" height="26.065" fill="#4E6693"/>
<rect x="777.108" y="744.699" width="44.1733" height="26.065" fill="#4E6693"/>
<rect x="862.192" y="435.295" width="23.3859" height="84.119" fill="#4E6693"/>
<rect x="862.192" y="101.188" width="23.3859" height="82.9342" fill="#4E6693"/>
<rect x="861.812" y="603.502" width="23.3859" height="84.119" fill="#4E6693"/>
<rect x="847.954" y="686.437" width="15.5906" height="61.6083" fill="#4E6693"/>
<rect x="818.683" y="744.699" width="44.1733" height="26.065" fill="#4E6693"/>
<rect x="862.192" y="352.36" width="23.3859" height="82.9342" fill="#4E6693"/>
<rect x="862.192" y="519.413" width="23.3859" height="84.119" fill="#4E6693"/>
<rect x="862.192" y="268.241" width="23.3859" height="84.119" fill="#4E6693"/>
<rect y="185.277" width="13.8583" height="82.9342" fill="#292734"/>
<rect x="877.783" y="185.751" width="14.7244" height="82.9342" fill="#292734"/>
<rect x="13.8584" y="687.622" width="16.4567" height="81.7494" fill="#292734"/>
<rect x="861.812" y="687.622" width="15.5906" height="81.7494" fill="#292734"/>
<rect x="30.2434" width="44.1733" height="17.7716" fill="#292734"/>
<rect x="28.603" y="770.764" width="43.3071" height="21.3259" fill="#292734"/>
<rect x="71.8184" width="44.1733" height="17.7716" fill="#292734"/>
<rect x="70.1777" y="770.764" width="43.3071" height="21.3259" fill="#292734"/>
<rect x="445.992" width="42.441" height="18.9564" fill="#292734"/>
<rect x="442.619" y="770.764" width="44.1733" height="21.3259" fill="#292734"/>
<rect x="113.393" width="44.1733" height="17.7716" fill="#292734"/>
<rect x="111.753" y="770.764" width="42.441" height="21.3259" fill="#292734"/>
<rect x="486.701" width="43.3071" height="18.9564" fill="#292734"/>
<rect x="484.194" y="770.764" width="44.1733" height="21.3259" fill="#292734"/>
<rect x="154.102" width="44.1733" height="17.7716" fill="#292734"/>
<rect x="153.328" y="770.764" width="42.441" height="21.3259" fill="#292734"/>
<rect x="528.275" width="43.3071" height="18.9564" fill="#292734"/>
<rect x="525.769" y="770.764" width="44.1733" height="21.3259" fill="#292734"/>
<rect x="195.677" width="44.1733" height="17.7716" fill="#292734"/>
<rect x="194.902" y="770.764" width="42.441" height="21.3259" fill="#292734"/>
<rect x="569.851" width="42.441" height="18.9564" fill="#292734"/>
<rect x="567.344" y="770.764" width="44.1733" height="21.3259" fill="#292734"/>
<rect x="237.252" width="44.1733" height="17.7716" fill="#292734"/>
<rect x="235.611" y="770.764" width="44.1733" height="21.3259" fill="#292734"/>
<rect x="611.425" width="44.1733" height="18.9564" fill="#292734"/>
<rect x="608.918" y="770.764" width="44.1733" height="21.3259" fill="#292734"/>
<rect x="279.693" width="43.3071" height="17.7716" fill="#292734"/>
<rect x="277.186" y="770.764" width="44.1733" height="21.3259" fill="#292734"/>
<rect x="653" width="44.1733" height="18.9564" fill="#292734"/>
<rect x="650.473" y="770.556" width="43.3071" height="21.3259" fill="#292734"/>
<rect x="321.267" width="43.3071" height="17.7716" fill="#292734"/>
<rect x="318.761" y="770.764" width="44.1733" height="21.3259" fill="#292734"/>
<rect x="693.709" width="44.1733" height="18.9564" fill="#292734"/>
<rect x="691.202" y="770.764" width="44.1733" height="21.3259" fill="#292734"/>
<rect x="362.842" width="42.441" height="17.7716" fill="#292734"/>
<rect x="360.335" y="770.764" width="44.1733" height="21.3259" fill="#292734"/>
<rect x="735.284" width="44.1733" height="18.9564" fill="#292734"/>
<rect x="732.777" y="770.764" width="44.1733" height="21.3259" fill="#292734"/>
<rect x="404.417" width="42.441" height="17.7716" fill="#292734"/>
<rect x="401.91" y="770.764" width="44.1733" height="21.3259" fill="#292734"/>
<rect x="776.858" width="44.1733" height="18.9564" fill="#292734"/>
<rect x="775.218" y="770.764" width="43.3071" height="21.3259" fill="#292734"/>
<rect x="818.433" width="44.1733" height="18.9564" fill="#292734"/>
<rect x="816.793" y="770.764" width="43.3071" height="21.3259" fill="#292734"/>
<rect y="435.265" width="13.8583" height="84.119" fill="#292734"/>
<rect x="877.783" y="435.738" width="14.7244" height="84.119" fill="#292734"/>
<rect x="877.783" y="100.447" width="14.7244" height="85.3037" fill="#292734"/>
<rect y="602.318" width="13.8583" height="85.3037" fill="#292734"/>
<rect x="877.783" y="602.791" width="14.7244" height="85.3037" fill="#292734"/>
<rect y="352.33" width="13.8583" height="82.9342" fill="#292734"/>
<rect x="877.783" y="352.804" width="14.7244" height="82.9342" fill="#292734"/>
<rect x="13.8584" y="18.2241" width="16.4567" height="81.7494" fill="#292734"/>
<rect y="99.9731" width="13.8583" height="85.3037" fill="#292734"/>
<rect x="861.812" y="18.2241" width="15.5906" height="81.7494" fill="#292734"/>
<rect y="519.383" width="13.8583" height="82.9342" fill="#292734"/>
<rect x="877.783" y="519.857" width="14.7244" height="82.9342" fill="#292734"/>
<rect y="268.211" width="13.8583" height="84.119" fill="#292734"/>
<rect x="877.783" y="268.685" width="14.7244" height="84.119" fill="#292734"/>
</svg>
