<svg width="357" height="149" viewBox="0 0 357 149" fill="none" xmlns="http://www.w3.org/2000/svg">
<path d="M38.2739 7.07739L12.5125 29.5964L9.56836 116.134L40.85 144.443H313.184L347.778 115.49V33.1351L319.809 7.72079L38.2739 7.07739Z" fill="#D58D65"/>
<rect y="40.5342" width="15.4568" height="13.5114" fill="#292734"/>
<rect x="341.522" y="40.5342" width="15.4568" height="13.5114" fill="#292734"/>
<rect x="15.457" y="121.603" width="15.4568" height="13.5114" fill="#292734"/>
<rect x="326.065" y="121.603" width="15.4568" height="13.5114" fill="#292734"/>
<rect x="30.9136" width="15.4568" height="13.5114" fill="#292734"/>
<rect x="30.1777" y="135.114" width="15.4568" height="13.5114" fill="#292734"/>
<rect x="45.6343" width="15.4568" height="13.5114" fill="#292734"/>
<rect x="44.8984" y="135.114" width="15.4568" height="13.5114" fill="#292734"/>
<rect x="178.121" width="15.4568" height="13.5114" fill="#292734"/>
<rect x="177.385" y="135.114" width="15.4568" height="13.5114" fill="#292734"/>
<rect x="60.355" width="15.4568" height="13.5114" fill="#292734"/>
<rect x="59.6191" y="135.114" width="15.4568" height="13.5114" fill="#292734"/>
<rect x="192.842" width="15.4568" height="13.5114" fill="#292734"/>
<rect x="192.106" y="135.114" width="15.4568" height="13.5114" fill="#292734"/>
<rect x="75.0757" width="15.4568" height="13.5114" fill="#292734"/>
<rect x="74.3398" y="135.114" width="15.4568" height="13.5114" fill="#292734"/>
<rect x="207.563" width="15.4568" height="13.5114" fill="#292734"/>
<rect x="206.827" y="135.114" width="15.4568" height="13.5114" fill="#292734"/>
<rect x="89.7969" width="15.4568" height="13.5114" fill="#292734"/>
<rect x="89.0605" y="135.114" width="15.4568" height="13.5114" fill="#292734"/>
<rect x="222.284" width="15.4568" height="13.5114" fill="#292734"/>
<rect x="221.547" y="135.114" width="15.4568" height="13.5114" fill="#292734"/>
<rect x="104.518" width="15.4568" height="13.5114" fill="#292734"/>
<rect x="103.781" y="135.114" width="15.4568" height="13.5114" fill="#292734"/>
<rect x="237.004" width="15.4568" height="13.5114" fill="#292734"/>
<rect x="236.268" y="135.114" width="15.4568" height="13.5114" fill="#292734"/>
<rect x="119.238" width="15.4568" height="13.5114" fill="#292734"/>
<rect x="118.502" y="135.114" width="15.4568" height="13.5114" fill="#292734"/>
<rect x="251.725" width="15.4568" height="13.5114" fill="#292734"/>
<rect x="250.989" y="135.114" width="15.4568" height="13.5114" fill="#292734"/>
<rect x="133.959" width="15.4568" height="13.5114" fill="#292734"/>
<rect x="133.223" y="135.114" width="15.4568" height="13.5114" fill="#292734"/>
<rect x="266.446" width="15.4568" height="13.5114" fill="#292734"/>
<rect x="265.71" y="135.114" width="15.4568" height="13.5114" fill="#292734"/>
<rect x="148.68" width="15.4568" height="13.5114" fill="#292734"/>
<rect x="147.944" y="135.114" width="15.4568" height="13.5114" fill="#292734"/>
<rect x="281.167" width="15.4568" height="13.5114" fill="#292734"/>
<rect x="280.431" y="135.114" width="15.4568" height="13.5114" fill="#292734"/>
<rect x="163.4" width="15.4568" height="13.5114" fill="#292734"/>
<rect x="162.665" y="135.114" width="15.4568" height="13.5114" fill="#292734"/>
<rect x="295.887" width="15.4568" height="13.5114" fill="#292734"/>
<rect x="295.151" y="135.114" width="15.4568" height="13.5114" fill="#292734"/>
<rect x="310.608" width="15.4568" height="13.5114" fill="#292734"/>
<rect x="309.872" y="135.114" width="15.4568" height="13.5114" fill="#292734"/>
<rect y="81.0686" width="15.4568" height="13.5114" fill="#292734"/>
<rect x="341.522" y="81.0686" width="15.4568" height="13.5114" fill="#292734"/>
<rect x="341.522" y="27.0227" width="15.4568" height="13.5114" fill="#292734"/>
<rect y="108.091" width="15.4568" height="13.5114" fill="#292734"/>
<rect x="341.522" y="108.091" width="15.4568" height="13.5114" fill="#292734"/>
<rect y="67.5571" width="15.4568" height="13.5114" fill="#292734"/>
<rect x="341.522" y="67.5571" width="15.4568" height="13.5114" fill="#292734"/>
<rect x="15.457" y="13.5115" width="15.4568" height="13.5114" fill="#292734"/>
<rect y="27.0227" width="15.4568" height="13.5114" fill="#292734"/>
<rect x="326.065" y="13.5115" width="15.4568" height="13.5114" fill="#292734"/>
<rect y="94.5798" width="15.4568" height="13.5114" fill="#292734"/>
<rect x="341.522" y="94.5798" width="15.4568" height="13.5114" fill="#292734"/>
<rect y="54.0457" width="15.4568" height="13.5114" fill="#292734"/>
<rect x="341.522" y="54.0457" width="15.4568" height="13.5114" fill="#292734"/>
<rect x="15.457" y="40.5344" width="15.4568" height="13.5114" fill="#DE9F76"/>
<rect x="30.1777" y="13.5115" width="15.4568" height="13.5114" fill="#DE9F76"/>
<rect x="30.9141" y="27.0229" width="15.4568" height="13.5114" fill="#DE9F76"/>
<rect x="44.8984" y="13.5115" width="15.4568" height="13.5114" fill="#DE9F76"/>
<rect x="177.385" y="13.5115" width="15.4568" height="13.5114" fill="#DE9F76"/>
<rect x="59.6191" y="13.5115" width="15.4568" height="13.5114" fill="#DE9F76"/>
<rect x="192.106" y="13.5115" width="15.4568" height="13.5114" fill="#DE9F76"/>
<rect x="74.3403" y="13.5115" width="15.4568" height="13.5114" fill="#DE9F76"/>
<rect x="206.827" y="13.5115" width="15.4568" height="13.5114" fill="#DE9F76"/>
<rect x="89.061" y="13.5115" width="15.4568" height="13.5114" fill="#DE9F76"/>
<rect x="221.548" y="13.5115" width="15.4568" height="13.5114" fill="#DE9F76"/>
<rect x="103.782" y="13.5115" width="15.4568" height="13.5114" fill="#DE9F76"/>
<rect x="236.269" y="13.5115" width="15.4568" height="13.5114" fill="#DE9F76"/>
<rect x="118.502" y="13.5115" width="15.4568" height="13.5114" fill="#DE9F76"/>
<rect x="250.989" y="13.5115" width="15.4568" height="13.5114" fill="#DE9F76"/>
<rect x="133.223" y="13.5115" width="15.4568" height="13.5114" fill="#DE9F76"/>
<rect x="265.71" y="13.5115" width="15.4568" height="13.5114" fill="#DE9F76"/>
<rect x="147.944" y="13.5115" width="15.4568" height="13.5114" fill="#DE9F76"/>
<rect x="280.431" y="13.5115" width="15.4568" height="13.5114" fill="#DE9F76"/>
<rect x="162.665" y="13.5115" width="15.4568" height="13.5114" fill="#DE9F76"/>
<rect x="295.151" y="13.5115" width="15.4568" height="13.5114" fill="#DE9F76"/>
<rect x="15.457" y="81.0686" width="15.4568" height="13.5114" fill="#DE9F76"/>
<rect x="15.457" y="67.5571" width="15.4568" height="13.5114" fill="#DE9F76"/>
<rect x="15.457" y="27.0229" width="15.4568" height="13.5114" fill="#DE9F76"/>
<rect x="15.457" y="94.5801" width="15.4568" height="13.5114" fill="#DE9F76"/>
<rect x="15.457" y="54.0457" width="15.4568" height="13.5114" fill="#DE9F76"/>
<rect x="326.065" y="40.5344" width="15.4568" height="13.5114" fill="#AC644B"/>
<rect x="30.9136" y="121.603" width="15.4568" height="13.5114" fill="#AC644B"/>
<rect x="45.6343" y="121.603" width="15.4568" height="13.5114" fill="#AC644B"/>
<rect x="178.121" y="121.603" width="15.4568" height="13.5114" fill="#AC644B"/>
<rect x="60.355" y="121.603" width="15.4568" height="13.5114" fill="#AC644B"/>
<rect x="192.842" y="121.603" width="15.4568" height="13.5114" fill="#AC644B"/>
<rect x="75.0757" y="121.603" width="15.4568" height="13.5114" fill="#AC644B"/>
<rect x="207.562" y="121.603" width="15.4568" height="13.5114" fill="#AC644B"/>
<rect x="89.7969" y="121.603" width="15.4568" height="13.5114" fill="#AC644B"/>
<rect x="222.284" y="121.603" width="15.4568" height="13.5114" fill="#AC644B"/>
<rect x="104.518" y="121.603" width="15.4568" height="13.5114" fill="#AC644B"/>
<rect x="237.004" y="121.603" width="15.4568" height="13.5114" fill="#AC644B"/>
<rect x="119.238" y="121.603" width="15.4568" height="13.5114" fill="#AC644B"/>
<rect x="251.725" y="121.603" width="15.4568" height="13.5114" fill="#AC644B"/>
<rect x="133.959" y="121.603" width="15.4568" height="13.5114" fill="#AC644B"/>
<rect x="266.446" y="121.603" width="15.4568" height="13.5114" fill="#AC644B"/>
<rect x="148.68" y="121.603" width="15.4568" height="13.5114" fill="#AC644B"/>
<rect x="281.167" y="121.603" width="15.4568" height="13.5114" fill="#AC644B"/>
<rect x="163.4" y="121.603" width="15.4568" height="13.5114" fill="#AC644B"/>
<rect x="295.887" y="121.603" width="15.4568" height="13.5114" fill="#AC644B"/>
<rect x="326.065" y="81.0686" width="15.4568" height="13.5114" fill="#AC644B"/>
<rect x="326.065" y="27.0229" width="15.4568" height="13.5114" fill="#AC644B"/>
<rect x="326.065" y="108.092" width="15.4568" height="13.5114" fill="#AC644B"/>
<rect x="311.344" y="108.092" width="15.4568" height="13.5114" fill="#AC644B"/>
<rect x="310.608" y="121.603" width="15.4568" height="13.5114" fill="#AC644B"/>
<rect x="326.065" y="67.5571" width="15.4568" height="13.5114" fill="#AC644B"/>
<rect x="326.065" y="94.5801" width="15.4568" height="13.5114" fill="#AC644B"/>
<rect x="326.065" y="54.0459" width="15.4568" height="13.5114" fill="#AC644B"/>
<path d="M78.6837 97.7775V89.1375H69.9477V44.7855H78.6837V36.0495H105.756V44.7855H114.588V63.0255H105.756V70.7055H114.588V89.1375H105.756V97.7775H78.6837ZM79.6437 88.1775H104.796V71.6655H87.3237V62.1615H104.796V45.7455H79.6437V88.1775ZM134.019 97.7775V89.1375H125.283V62.1615H134.019V53.4255H161.091V62.1615H169.923V88.1775H178.659V97.7775H168.963V89.1375H161.091V97.7775H134.019ZM134.979 88.1775H160.131V63.0255H134.979V88.1775ZM195.166 97.7775V89.1375H186.43V62.1615H195.166V53.4255H222.238V62.1615H231.07V71.6655H221.278V63.0255H196.126V88.1775H221.278V79.4415H231.07V89.1375H222.238V97.7775H195.166ZM241.765 97.7775V36.0495H251.461V70.7055H259.141V62.1615H276.613V53.4255H286.405V63.0255H277.573V71.6655H260.101V79.4415H277.573V88.1775H286.405V97.7775H276.613V89.1375H259.141V80.4015H251.461V97.7775H241.765Z" fill="#292734"/>
</svg>
