<svg width="490" height="190" viewBox="0 0 490 190" fill="none" xmlns="http://www.w3.org/2000/svg">
<path d="M52.5329 9.04761L17.1742 37.8355L13.1332 148.463L56.0688 184.654H429.861L477.342 147.641V42.3593L438.953 9.87012L52.5329 9.04761Z" fill="#E6B498"/>
<rect y="51.8181" width="21.2152" height="17.2727" fill="#4E4C56"/>
<rect x="468.755" y="51.8181" width="21.2152" height="17.2727" fill="#4E4C56"/>
<rect x="21.2152" y="155.455" width="21.2152" height="17.2727" fill="#4E4C56"/>
<rect x="447.54" y="155.455" width="21.2152" height="17.2727" fill="#4E4C56"/>
<rect x="42.4304" width="21.2152" height="17.2727" fill="#4E4C56"/>
<rect x="41.4202" y="172.727" width="21.2152" height="17.2727" fill="#4E4C56"/>
<rect x="62.6354" width="21.2152" height="17.2727" fill="#4E4C56"/>
<rect x="61.6252" y="172.727" width="21.2152" height="17.2727" fill="#4E4C56"/>
<rect x="244.48" width="21.2152" height="17.2727" fill="#4E4C56"/>
<rect x="243.47" y="172.727" width="21.2152" height="17.2727" fill="#4E4C56"/>
<rect x="82.8404" width="21.2152" height="17.2727" fill="#4E4C56"/>
<rect x="81.8301" y="172.727" width="21.2152" height="17.2727" fill="#4E4C56"/>
<rect x="264.685" width="21.2152" height="17.2727" fill="#4E4C56"/>
<rect x="263.675" y="172.727" width="21.2152" height="17.2727" fill="#4E4C56"/>
<rect x="103.045" width="21.2152" height="17.2727" fill="#4E4C56"/>
<rect x="102.035" y="172.727" width="21.2152" height="17.2727" fill="#4E4C56"/>
<rect x="284.89" width="21.2152" height="17.2727" fill="#4E4C56"/>
<rect x="283.88" y="172.727" width="21.2152" height="17.2727" fill="#4E4C56"/>
<rect x="123.25" width="21.2152" height="17.2727" fill="#4E4C56"/>
<rect x="122.24" y="172.727" width="21.2152" height="17.2727" fill="#4E4C56"/>
<rect x="305.095" width="21.2152" height="17.2727" fill="#4E4C56"/>
<rect x="304.085" y="172.727" width="21.2152" height="17.2727" fill="#4E4C56"/>
<rect x="143.455" width="21.2152" height="17.2727" fill="#4E4C56"/>
<rect x="142.445" y="172.727" width="21.2152" height="17.2727" fill="#4E4C56"/>
<rect x="325.3" width="21.2152" height="17.2727" fill="#4E4C56"/>
<rect x="324.29" y="172.727" width="21.2152" height="17.2727" fill="#4E4C56"/>
<rect x="163.66" width="21.2152" height="17.2727" fill="#4E4C56"/>
<rect x="162.65" y="172.727" width="21.2152" height="17.2727" fill="#4E4C56"/>
<rect x="345.505" width="21.2152" height="17.2727" fill="#4E4C56"/>
<rect x="344.495" y="172.727" width="21.2152" height="17.2727" fill="#4E4C56"/>
<rect x="183.865" width="21.2152" height="17.2727" fill="#4E4C56"/>
<rect x="182.855" y="172.727" width="21.2152" height="17.2727" fill="#4E4C56"/>
<rect x="365.71" width="21.2152" height="17.2727" fill="#4E4C56"/>
<rect x="364.7" y="172.727" width="21.2152" height="17.2727" fill="#4E4C56"/>
<rect x="204.07" width="21.2152" height="17.2727" fill="#4E4C56"/>
<rect x="203.06" y="172.727" width="21.2152" height="17.2727" fill="#4E4C56"/>
<rect x="385.915" width="21.2152" height="17.2727" fill="#4E4C56"/>
<rect x="384.905" y="172.727" width="21.2152" height="17.2727" fill="#4E4C56"/>
<rect x="224.275" width="21.2152" height="17.2727" fill="#4E4C56"/>
<rect x="223.265" y="172.727" width="21.2152" height="17.2727" fill="#4E4C56"/>
<rect x="406.12" width="21.2152" height="17.2727" fill="#4E4C56"/>
<rect x="405.11" y="172.727" width="21.2152" height="17.2727" fill="#4E4C56"/>
<rect x="426.325" width="21.2152" height="17.2727" fill="#4E4C56"/>
<rect x="425.315" y="172.727" width="21.2152" height="17.2727" fill="#4E4C56"/>
<rect y="103.636" width="21.2152" height="17.2727" fill="#4E4C56"/>
<rect x="468.755" y="103.636" width="21.2152" height="17.2727" fill="#4E4C56"/>
<rect x="468.755" y="34.5454" width="21.2152" height="17.2727" fill="#4E4C56"/>
<rect y="138.182" width="21.2152" height="17.2727" fill="#4E4C56"/>
<rect x="468.755" y="138.182" width="21.2152" height="17.2727" fill="#4E4C56"/>
<rect y="86.3638" width="21.2152" height="17.2727" fill="#4E4C56"/>
<rect x="468.755" y="86.3638" width="21.2152" height="17.2727" fill="#4E4C56"/>
<rect x="21.2152" y="17.2727" width="21.2152" height="17.2727" fill="#4E4C56"/>
<rect y="34.5454" width="21.2152" height="17.2727" fill="#4E4C56"/>
<rect x="447.54" y="17.2727" width="21.2152" height="17.2727" fill="#4E4C56"/>
<rect y="120.909" width="21.2152" height="17.2727" fill="#4E4C56"/>
<rect x="468.755" y="120.909" width="21.2152" height="17.2727" fill="#4E4C56"/>
<rect y="69.0908" width="21.2152" height="17.2727" fill="#4E4C56"/>
<rect x="468.755" y="69.0908" width="21.2152" height="17.2727" fill="#4E4C56"/>
<rect x="21.2152" y="51.8181" width="21.2152" height="17.2727" fill="#F5CAAE"/>
<rect x="41.4202" y="17.2727" width="21.2152" height="17.2727" fill="#F5CAAE"/>
<rect x="42.4304" y="34.5454" width="21.2152" height="17.2727" fill="#F5CAAE"/>
<rect x="61.6252" y="17.2727" width="21.2152" height="17.2727" fill="#F5CAAE"/>
<rect x="243.47" y="17.2727" width="21.2152" height="17.2727" fill="#F5CAAE"/>
<rect x="81.8301" y="17.2727" width="21.2152" height="17.2727" fill="#F5CAAE"/>
<rect x="263.675" y="17.2727" width="21.2152" height="17.2727" fill="#F5CAAE"/>
<rect x="102.035" y="17.2727" width="21.2152" height="17.2727" fill="#F5CAAE"/>
<rect x="283.88" y="17.2727" width="21.2152" height="17.2727" fill="#F5CAAE"/>
<rect x="122.24" y="17.2727" width="21.2152" height="17.2727" fill="#F5CAAE"/>
<rect x="304.085" y="17.2727" width="21.2152" height="17.2727" fill="#F5CAAE"/>
<rect x="142.445" y="17.2727" width="21.2152" height="17.2727" fill="#F5CAAE"/>
<rect x="324.29" y="17.2727" width="21.2152" height="17.2727" fill="#F5CAAE"/>
<rect x="162.65" y="17.2727" width="21.2152" height="17.2727" fill="#F5CAAE"/>
<rect x="344.495" y="17.2727" width="21.2152" height="17.2727" fill="#F5CAAE"/>
<rect x="182.855" y="17.2727" width="21.2152" height="17.2727" fill="#F5CAAE"/>
<rect x="364.7" y="17.2727" width="21.2152" height="17.2727" fill="#F5CAAE"/>
<rect x="203.06" y="17.2727" width="21.2152" height="17.2727" fill="#F5CAAE"/>
<rect x="384.905" y="17.2727" width="21.2152" height="17.2727" fill="#F5CAAE"/>
<rect x="223.265" y="17.2727" width="21.2152" height="17.2727" fill="#F5CAAE"/>
<rect x="405.11" y="17.2727" width="21.2152" height="17.2727" fill="#F5CAAE"/>
<rect x="21.2152" y="103.636" width="21.2152" height="17.2727" fill="#F5CAAE"/>
<rect x="21.2152" y="86.3635" width="21.2152" height="17.2727" fill="#F5CAAE"/>
<rect x="21.2152" y="34.5454" width="21.2152" height="17.2727" fill="#F5CAAE"/>
<rect x="21.2152" y="120.909" width="21.2152" height="17.2727" fill="#F5CAAE"/>
<rect x="21.2152" y="69.0908" width="21.2152" height="17.2727" fill="#F5CAAE"/>
<rect x="447.54" y="51.8181" width="21.2152" height="17.2727" fill="#D18368"/>
<rect x="42.4304" y="155.455" width="21.2152" height="17.2727" fill="#D18368"/>
<rect x="62.6354" y="155.455" width="21.2152" height="17.2727" fill="#D18368"/>
<rect x="244.48" y="155.455" width="21.2152" height="17.2727" fill="#D18368"/>
<rect x="82.8404" y="155.455" width="21.2152" height="17.2727" fill="#D18368"/>
<rect x="264.685" y="155.455" width="21.2152" height="17.2727" fill="#D18368"/>
<rect x="103.045" y="155.455" width="21.2152" height="17.2727" fill="#D18368"/>
<rect x="284.89" y="155.455" width="21.2152" height="17.2727" fill="#D18368"/>
<rect x="123.25" y="155.455" width="21.2152" height="17.2727" fill="#D18368"/>
<rect x="305.095" y="155.455" width="21.2152" height="17.2727" fill="#D18368"/>
<rect x="143.455" y="155.455" width="21.2152" height="17.2727" fill="#D18368"/>
<rect x="325.3" y="155.455" width="21.2152" height="17.2727" fill="#D18368"/>
<rect x="163.66" y="155.455" width="21.2152" height="17.2727" fill="#D18368"/>
<rect x="345.505" y="155.455" width="21.2152" height="17.2727" fill="#D18368"/>
<rect x="183.865" y="155.455" width="21.2152" height="17.2727" fill="#D18368"/>
<rect x="365.71" y="155.455" width="21.2152" height="17.2727" fill="#D18368"/>
<rect x="204.07" y="155.455" width="21.2152" height="17.2727" fill="#D18368"/>
<rect x="385.915" y="155.455" width="21.2152" height="17.2727" fill="#D18368"/>
<rect x="224.275" y="155.455" width="21.2152" height="17.2727" fill="#D18368"/>
<rect x="406.12" y="155.455" width="21.2152" height="17.2727" fill="#D18368"/>
<rect x="447.54" y="103.636" width="21.2152" height="17.2727" fill="#D18368"/>
<rect x="447.54" y="34.5454" width="21.2152" height="17.2727" fill="#D18368"/>
<rect x="447.54" y="138.182" width="21.2152" height="17.2727" fill="#D18368"/>
<rect x="427.335" y="138.182" width="21.2152" height="17.2727" fill="#D18368"/>
<rect x="426.325" y="155.455" width="21.2152" height="17.2727" fill="#D18368"/>
<rect x="447.54" y="86.3635" width="21.2152" height="17.2727" fill="#D18368"/>
<rect x="447.54" y="120.909" width="21.2152" height="17.2727" fill="#D18368"/>
<rect x="447.54" y="69.0908" width="21.2152" height="17.2727" fill="#D18368"/>
<path d="M127.236 87.768V82.008H121.412V52.44H127.236V46.616H145.284V52.44H151.172V58.84H144.644V53.08H127.876V64.024H139.524V70.36H127.876V81.368H144.644V75.544H151.172V82.008H145.284V87.768H127.236ZM159.552 87.768V81.368H165.376V75.544H171.136V70.36H165.376V64.6H159.552V58.2H166.016V64.024H171.776V69.72H177.024V64.024H182.784V58.2H189.312V64.6H183.424V70.36H177.664V75.544H183.424V81.368H189.312V87.768H182.784V82.008H177.024V76.184H171.776V82.008H166.016V87.768H159.552ZM200.329 87.768V82.008H194.505V64.024H200.329V58.2H218.377V64.024H224.265V70.36H217.737V64.6H200.969V69.72H212.617V76.184H200.969V81.368H217.737V75.48H224.265V81.944H218.377V87.768H200.329ZM238.469 87.768V82.008H232.645V64.024H238.469V58.2H256.517V64.024H262.405V70.36H255.877V64.6H239.109V81.368H255.877V75.544H262.405V82.008H256.517V87.768H238.469ZM275.359 87.768V82.008H269.535V58.2H275.999V81.368H292.767V58.2H299.295V82.008H293.407V87.768H275.359ZM316.696 87.768V82.008H310.936V64.6H305.112V58.2H310.936V46.616H317.336V58.2H334.872V64.6H317.336V81.368H334.232V75.544H340.696V82.008H334.872V87.768H316.696ZM352.951 87.768V82.008H347.127V64.024H352.951V58.2H370.999V64.024H376.887V70.36H370.359V64.6H353.591V69.72H365.239V76.184H353.591V81.368H370.359V75.48H376.887V81.944H370.999V87.768H352.951ZM138.951 140.768V105.44H144.775V99.616H151.175V105.44H157.063V117.024H162.183V105.44H168.071V99.616H174.535V105.44H180.295V140.768H173.895V106.08H168.711V117.6H162.823V135.008H156.423V117.6H150.535V106.08H145.415V140.768H138.951ZM188.654 140.768V111.2H195.118V140.768H188.654ZM188.654 106.08V99.616H195.118V106.08H188.654ZM203.481 140.768V134.368H226.713V129.184H209.305V123.36H203.481V117.024H209.305V111.2H233.241V117.6H209.945V122.72H227.353V128.544H233.241V135.008H227.353V140.768H203.481ZM240.371 140.768V134.368H263.603V129.184H246.195V123.36H240.371V117.024H246.195V111.2H270.131V117.6H246.835V122.72H264.243V128.544H270.131V135.008H264.243V140.768H240.371ZM278.511 140.768V111.2H284.975V140.768H278.511ZM278.511 106.08V99.616H284.975V106.08H278.511ZM297.913 140.768V135.008H292.089V117.024H297.913V111.2H315.961V117.024H321.849V135.008H315.961V140.768H297.913ZM298.553 134.368H315.321V117.6H298.553V134.368ZM330.229 140.768V111.2H354.101V117.024H359.989V140.768H353.461V117.6H336.693V140.768H330.229Z" fill="#4E4C56"/>
</svg>
