<svg width="749" height="143" viewBox="0 0 749 143" fill="none" xmlns="http://www.w3.org/2000/svg">
<path d="M66.8368 6.77783L10.6019 28.3438L4.17505 111.219L72.4602 138.33H666.943L742.458 110.603V31.7327L681.403 7.394L66.8368 6.77783Z" fill="#96B5C9"/>
<rect y="39.0854" width="17.0284" height="12.4498" fill="#292734"/>
<rect x="728.801" y="39.0854" width="20.0335" height="12.4498" fill="#292734"/>
<rect x="17.0286" y="116.456" width="33.7409" height="12.9396" fill="#292734"/>
<rect x="695.06" y="116.456" width="33.7409" height="12.9396" fill="#292734"/>
<rect x="50.7692" width="33.7409" height="12.9396" fill="#292734"/>
<rect x="49.1625" y="129.396" width="33.7409" height="12.9396" fill="#292734"/>
<rect x="82.9034" width="33.7409" height="12.9396" fill="#292734"/>
<rect x="81.2968" y="129.396" width="33.7409" height="12.9396" fill="#292734"/>
<rect x="372.111" width="33.7409" height="12.9396" fill="#292734"/>
<rect x="370.505" y="129.396" width="33.7409" height="12.9396" fill="#292734"/>
<rect x="115.038" width="33.7409" height="12.9396" fill="#292734"/>
<rect x="113.431" y="129.396" width="33.7409" height="12.9396" fill="#292734"/>
<rect x="404.246" width="33.7409" height="12.9396" fill="#292734"/>
<rect x="402.639" y="129.396" width="33.7409" height="12.9396" fill="#292734"/>
<rect x="147.172" width="33.7409" height="12.9396" fill="#292734"/>
<rect x="145.565" y="129.396" width="33.7409" height="12.9396" fill="#292734"/>
<rect x="436.38" width="33.7409" height="12.9396" fill="#292734"/>
<rect x="434.773" y="129.396" width="33.7409" height="12.9396" fill="#292734"/>
<rect x="179.306" width="33.7409" height="12.9396" fill="#292734"/>
<rect x="177.699" y="129.396" width="33.7409" height="12.9396" fill="#292734"/>
<rect x="468.514" width="33.7409" height="12.9396" fill="#292734"/>
<rect x="466.907" y="129.396" width="33.7409" height="12.9396" fill="#292734"/>
<rect x="211.44" width="33.7409" height="12.9396" fill="#292734"/>
<rect x="209.834" y="129.396" width="33.7409" height="12.9396" fill="#292734"/>
<rect x="500.648" width="33.7409" height="12.9396" fill="#292734"/>
<rect x="499.041" y="129.396" width="33.7409" height="12.9396" fill="#292734"/>
<rect x="243.575" width="33.7409" height="12.9396" fill="#292734"/>
<rect x="241.968" y="129.396" width="33.7409" height="12.9396" fill="#292734"/>
<rect x="532.782" width="33.7409" height="12.9396" fill="#292734"/>
<rect x="531.176" y="129.396" width="33.7409" height="12.9396" fill="#292734"/>
<rect x="275.709" width="33.7409" height="12.9396" fill="#292734"/>
<rect x="274.102" y="129.396" width="33.7409" height="12.9396" fill="#292734"/>
<rect x="564.916" width="33.7409" height="12.9396" fill="#292734"/>
<rect x="563.31" y="129.396" width="33.7409" height="12.9396" fill="#292734"/>
<rect x="307.843" width="33.7409" height="12.9396" fill="#292734"/>
<rect x="306.236" y="129.396" width="33.7409" height="12.9396" fill="#292734"/>
<rect x="597.051" width="33.7409" height="12.9396" fill="#292734"/>
<rect x="595.444" y="129.396" width="33.7409" height="12.9396" fill="#292734"/>
<rect x="339.977" width="33.7409" height="12.9396" fill="#292734"/>
<rect x="338.37" y="129.396" width="33.7409" height="12.9396" fill="#292734"/>
<rect x="629.185" width="33.7409" height="12.9396" fill="#292734"/>
<rect x="627.578" y="129.396" width="33.7409" height="12.9396" fill="#292734"/>
<rect x="661.319" width="33.7409" height="12.9396" fill="#292734"/>
<rect x="659.713" y="129.396" width="33.7409" height="12.9396" fill="#292734"/>
<rect y="77.3926" width="17.0284" height="13.4075" fill="#292734"/>
<rect x="728.801" y="77.3926" width="20.0335" height="13.4075" fill="#292734"/>
<rect x="728.801" y="25.678" width="20.0335" height="13.4075" fill="#292734"/>
<rect y="103.25" width="17.0284" height="13.4075" fill="#292734"/>
<rect x="728.801" y="103.25" width="20.0335" height="13.4075" fill="#292734"/>
<rect y="64.9426" width="17.0284" height="12.4498" fill="#292734"/>
<rect x="728.801" y="64.9426" width="20.0335" height="12.4498" fill="#292734"/>
<rect x="17.0286" y="12.9395" width="33.7409" height="12.9396" fill="#292734"/>
<rect y="25.678" width="17.0284" height="13.4075" fill="#292734"/>
<rect x="695.06" y="12.9395" width="33.7409" height="12.9396" fill="#292734"/>
<rect y="90.8" width="17.0284" height="12.4498" fill="#292734"/>
<rect x="728.801" y="90.8" width="20.0335" height="12.4498" fill="#292734"/>
<rect y="51.5352" width="17.0284" height="13.4075" fill="#292734"/>
<rect x="728.801" y="51.5352" width="20.0335" height="13.4075" fill="#292734"/>
<rect x="17.0287" y="39.3191" width="22.0368" height="12.4498" fill="#B0C2CC"/>
<rect x="49.163" y="12.9395" width="33.7409" height="12.9396" fill="#B0C2CC"/>
<rect x="39.0656" y="25.9116" width="22.0368" height="13.4075" fill="#B0C2CC"/>
<rect x="81.2969" y="12.9395" width="33.7409" height="12.9396" fill="#B0C2CC"/>
<rect x="370.505" y="12.9395" width="33.7409" height="12.9396" fill="#B0C2CC"/>
<rect x="113.431" y="12.9395" width="33.7409" height="12.9396" fill="#B0C2CC"/>
<rect x="402.639" y="12.9395" width="33.7409" height="12.9396" fill="#B0C2CC"/>
<rect x="145.565" y="12.9395" width="33.7409" height="12.9396" fill="#B0C2CC"/>
<rect x="434.773" y="12.9395" width="33.7409" height="12.9396" fill="#B0C2CC"/>
<rect x="177.7" y="12.9395" width="33.7409" height="12.9396" fill="#B0C2CC"/>
<rect x="466.908" y="12.9395" width="33.7409" height="12.9396" fill="#B0C2CC"/>
<rect x="209.834" y="12.9395" width="33.7409" height="12.9396" fill="#B0C2CC"/>
<rect x="499.042" y="12.9395" width="33.7409" height="12.9396" fill="#B0C2CC"/>
<rect x="241.968" y="12.9395" width="33.7409" height="12.9396" fill="#B0C2CC"/>
<rect x="531.176" y="12.9395" width="33.7409" height="12.9396" fill="#B0C2CC"/>
<rect x="274.102" y="12.9395" width="33.7409" height="12.9396" fill="#B0C2CC"/>
<rect x="563.31" y="12.9395" width="33.7409" height="12.9396" fill="#B0C2CC"/>
<rect x="306.237" y="12.9395" width="33.7409" height="12.9396" fill="#B0C2CC"/>
<rect x="595.444" y="12.9395" width="33.7409" height="12.9396" fill="#B0C2CC"/>
<rect x="338.371" y="12.9395" width="33.7409" height="12.9396" fill="#B0C2CC"/>
<rect x="627.578" y="12.9395" width="33.7409" height="12.9396" fill="#B0C2CC"/>
<rect x="17.0287" y="77.6265" width="22.0368" height="13.4075" fill="#B0C2CC"/>
<rect x="17.0287" y="65.1765" width="22.0368" height="12.4498" fill="#B0C2CC"/>
<rect x="17.0287" y="25.9116" width="22.0368" height="13.4075" fill="#B0C2CC"/>
<rect x="17.0287" y="91.0339" width="22.0368" height="12.4498" fill="#B0C2CC"/>
<rect x="17.0287" y="51.769" width="22.0368" height="13.4075" fill="#B0C2CC"/>
<rect x="705.763" y="39.0854" width="23.0385" height="12.4498" fill="#4E6693"/>
<rect x="50.7693" y="116.456" width="33.7409" height="12.9396" fill="#4E6693"/>
<rect x="82.9037" y="116.456" width="33.7409" height="12.9396" fill="#4E6693"/>
<rect x="372.111" y="116.456" width="33.7409" height="12.9396" fill="#4E6693"/>
<rect x="115.038" y="116.456" width="33.7409" height="12.9396" fill="#4E6693"/>
<rect x="404.246" y="116.456" width="33.7409" height="12.9396" fill="#4E6693"/>
<rect x="147.172" y="116.456" width="33.7409" height="12.9396" fill="#4E6693"/>
<rect x="436.38" y="116.456" width="33.7409" height="12.9396" fill="#4E6693"/>
<rect x="179.306" y="116.456" width="33.7409" height="12.9396" fill="#4E6693"/>
<rect x="468.514" y="116.456" width="33.7409" height="12.9396" fill="#4E6693"/>
<rect x="211.44" y="116.456" width="33.7409" height="12.9396" fill="#4E6693"/>
<rect x="500.648" y="116.456" width="33.7409" height="12.9396" fill="#4E6693"/>
<rect x="243.574" y="116.456" width="33.7409" height="12.9396" fill="#4E6693"/>
<rect x="532.782" y="116.456" width="33.7409" height="12.9396" fill="#4E6693"/>
<rect x="275.709" y="116.456" width="33.7409" height="12.9396" fill="#4E6693"/>
<rect x="564.916" y="116.456" width="33.7409" height="12.9396" fill="#4E6693"/>
<rect x="307.843" y="116.456" width="33.7409" height="12.9396" fill="#4E6693"/>
<rect x="597.051" y="116.456" width="33.7409" height="12.9396" fill="#4E6693"/>
<rect x="339.977" y="116.456" width="33.7409" height="12.9396" fill="#4E6693"/>
<rect x="629.185" y="116.456" width="33.7409" height="12.9396" fill="#4E6693"/>
<rect x="705.763" y="77.3926" width="23.0385" height="13.4075" fill="#4E6693"/>
<rect x="705.763" y="25.678" width="23.0385" height="13.4075" fill="#4E6693"/>
<rect x="705.763" y="103.25" width="23.0385" height="13.4075" fill="#4E6693"/>
<rect x="683.726" y="103.25" width="23.0385" height="13.4075" fill="#4E6693"/>
<rect x="661.319" y="116.456" width="33.7409" height="12.9396" fill="#4E6693"/>
<rect x="705.763" y="64.9426" width="23.0385" height="12.4498" fill="#4E6693"/>
<rect x="705.763" y="90.8" width="23.0385" height="12.4498" fill="#4E6693"/>
<rect x="705.763" y="51.5352" width="23.0385" height="13.4075" fill="#4E6693"/>
</svg>
