<svg width="1673" height="780" viewBox="0 0 1673 780" fill="none" xmlns="http://www.w3.org/2000/svg">
<path d="M69.4747 12.1124L18.6711 122.328V666.626L69.4747 757.045L1596.79 770.462L1657.67 666.626V122.328L1605.53 2.29956L69.4747 12.1124Z" fill="#96B5C9"/>
<rect x="0.642822" y="180.904" width="56.8253" height="82.8351" fill="#B0C2CC"/>
<rect x="53.4326" y="16.6329" width="81.179" height="51.3344" fill="#B0C2CC"/>
<rect x="56.6799" y="67.9674" width="37.3423" height="51.3344" fill="#B0C2CC"/>
<rect x="131.365" y="16.6329" width="81.179" height="25.6672" fill="#B0C2CC"/>
<rect x="829.504" y="16.6329" width="82.8026" height="25.6672" fill="#B0C2CC"/>
<rect x="209.296" y="16.6329" width="79.5554" height="25.6672" fill="#B0C2CC"/>
<rect x="907.436" y="16.6329" width="82.8026" height="25.6672" fill="#B0C2CC"/>
<rect x="287.228" y="16.6329" width="79.5554" height="25.6672" fill="#B0C2CC"/>
<rect x="985.367" y="16.6329" width="82.8026" height="25.6672" fill="#B0C2CC"/>
<rect x="365.16" y="16.6329" width="79.5554" height="25.6672" fill="#B0C2CC"/>
<rect x="1063.3" y="16.6329" width="82.8026" height="25.6672" fill="#B0C2CC"/>
<rect x="441.468" y="16.6329" width="82.8026" height="25.6672" fill="#B0C2CC"/>
<rect x="1141.23" y="16.6329" width="82.8026" height="25.6672" fill="#B0C2CC"/>
<rect x="519.4" y="16.6329" width="82.8026" height="25.6672" fill="#B0C2CC"/>
<rect x="1219.16" y="16.6329" width="81.179" height="25.6672" fill="#B0C2CC"/>
<rect x="597.332" y="16.6329" width="82.8026" height="25.6672" fill="#B0C2CC"/>
<rect x="1295.47" y="16.6329" width="82.8026" height="25.6672" fill="#B0C2CC"/>
<rect x="675.264" y="16.6329" width="82.8026" height="25.6672" fill="#B0C2CC"/>
<rect x="1373.4" y="16.6329" width="82.8026" height="25.6672" fill="#B0C2CC"/>
<rect x="753.195" y="16.6329" width="82.8026" height="25.6672" fill="#B0C2CC"/>
<rect x="1452.96" y="16.6329" width="81.179" height="25.6672" fill="#B0C2CC"/>
<rect x="0.642822" y="428.242" width="56.8253" height="82.8351" fill="#B0C2CC"/>
<rect x="0.642822" y="346.574" width="56.8253" height="81.6684" fill="#B0C2CC"/>
<rect x="0.642822" y="99.2354" width="56.8253" height="81.6684" fill="#B0C2CC"/>
<rect x="0.642822" y="511.077" width="56.8253" height="82.8351" fill="#B0C2CC"/>
<rect x="0.642822" y="263.739" width="56.8253" height="82.8351" fill="#B0C2CC"/>
<rect x="1616.18" y="181.312" width="43.8367" height="82.8351" fill="#4E6693"/>
<rect x="57.1599" y="733.333" width="82.8026" height="25.6672" fill="#4E6693"/>
<rect x="135.092" y="733.333" width="82.8026" height="25.6672" fill="#4E6693"/>
<rect x="836.478" y="733.333" width="79.5554" height="25.6672" fill="#4E6693"/>
<rect x="213.023" y="733.333" width="82.8026" height="25.6672" fill="#4E6693"/>
<rect x="912.786" y="733.333" width="81.179" height="25.6672" fill="#4E6693"/>
<rect x="289.332" y="733.333" width="82.8026" height="25.6672" fill="#4E6693"/>
<rect x="990.718" y="733.333" width="81.179" height="25.6672" fill="#4E6693"/>
<rect x="367.264" y="733.333" width="82.8026" height="25.6672" fill="#4E6693"/>
<rect x="1068.65" y="733.333" width="79.5554" height="25.6672" fill="#4E6693"/>
<rect x="445.195" y="733.333" width="82.8026" height="25.6672" fill="#4E6693"/>
<rect x="1146.58" y="733.333" width="82.8026" height="25.6672" fill="#4E6693"/>
<rect x="524.751" y="733.333" width="81.179" height="25.6672" fill="#4E6693"/>
<rect x="1224.51" y="733.333" width="82.8026" height="25.6672" fill="#4E6693"/>
<rect x="602.683" y="733.333" width="81.179" height="25.6672" fill="#4E6693"/>
<rect x="1300.82" y="733.333" width="82.8026" height="25.6672" fill="#4E6693"/>
<rect x="680.615" y="733.333" width="79.5554" height="25.6672" fill="#4E6693"/>
<rect x="1378.75" y="733.333" width="82.8026" height="25.6672" fill="#4E6693"/>
<rect x="758.546" y="733.333" width="79.5554" height="25.6672" fill="#4E6693"/>
<rect x="1456.69" y="733.333" width="82.8026" height="25.6672" fill="#4E6693"/>
<rect x="1616.18" y="428.651" width="43.8367" height="82.8351" fill="#4E6693"/>
<rect x="1616.18" y="99.6439" width="43.8367" height="81.6684" fill="#4E6693"/>
<rect x="1615.46" y="594.291" width="43.8367" height="82.8351" fill="#4E6693"/>
<rect x="1589.48" y="675.959" width="29.2244" height="60.6679" fill="#4E6693"/>
<rect x="1534.62" y="733.333" width="82.8026" height="25.6672" fill="#4E6693"/>
<rect x="1616.18" y="346.982" width="43.8367" height="81.6684" fill="#4E6693"/>
<rect x="1616.18" y="511.486" width="43.8367" height="82.8351" fill="#4E6693"/>
<rect x="1616.18" y="264.147" width="43.8367" height="82.8351" fill="#4E6693"/>
<rect y="182.449" width="25.9773" height="81.6684" fill="#292734"/>
<rect x="1645.4" y="182.916" width="27.6009" height="81.6684" fill="#292734"/>
<rect x="25.9773" y="677.126" width="30.848" height="80.5017" fill="#292734"/>
<rect x="1615.46" y="677.126" width="29.2244" height="80.5017" fill="#292734"/>
<rect x="56.6913" width="82.8026" height="17.5004" fill="#292734"/>
<rect x="53.6162" y="759" width="81.179" height="21.0004" fill="#292734"/>
<rect x="134.623" width="82.8026" height="17.5004" fill="#292734"/>
<rect x="131.548" y="759" width="81.179" height="21.0004" fill="#292734"/>
<rect x="836.01" width="79.5554" height="18.6671" fill="#292734"/>
<rect x="829.687" y="759" width="82.8026" height="21.0004" fill="#292734"/>
<rect x="212.555" width="82.8026" height="17.5004" fill="#292734"/>
<rect x="209.48" y="759" width="79.5554" height="21.0004" fill="#292734"/>
<rect x="912.318" width="81.179" height="18.6671" fill="#292734"/>
<rect x="907.619" y="759" width="82.8026" height="21.0004" fill="#292734"/>
<rect x="288.863" width="82.8026" height="17.5004" fill="#292734"/>
<rect x="287.411" y="759" width="79.5554" height="21.0004" fill="#292734"/>
<rect x="990.25" width="81.179" height="18.6671" fill="#292734"/>
<rect x="985.551" y="759" width="82.8026" height="21.0004" fill="#292734"/>
<rect x="366.795" width="82.8026" height="17.5004" fill="#292734"/>
<rect x="365.343" y="759" width="79.5554" height="21.0004" fill="#292734"/>
<rect x="1068.18" width="79.5554" height="18.6671" fill="#292734"/>
<rect x="1063.48" y="759" width="82.8026" height="21.0004" fill="#292734"/>
<rect x="444.727" width="82.8026" height="17.5004" fill="#292734"/>
<rect x="441.652" y="759" width="82.8026" height="21.0004" fill="#292734"/>
<rect x="1146.11" width="82.8026" height="18.6671" fill="#292734"/>
<rect x="1141.41" y="759" width="82.8026" height="21.0004" fill="#292734"/>
<rect x="524.282" width="81.179" height="17.5004" fill="#292734"/>
<rect x="519.583" y="759" width="82.8026" height="21.0004" fill="#292734"/>
<rect x="1224.05" width="82.8026" height="18.6671" fill="#292734"/>
<rect x="1219.31" y="758.795" width="81.179" height="21.0004" fill="#292734"/>
<rect x="602.214" width="81.179" height="17.5004" fill="#292734"/>
<rect x="597.515" y="759" width="82.8026" height="21.0004" fill="#292734"/>
<rect x="1300.35" width="82.8026" height="18.6671" fill="#292734"/>
<rect x="1295.65" y="759" width="82.8026" height="21.0004" fill="#292734"/>
<rect x="680.146" width="79.5554" height="17.5004" fill="#292734"/>
<rect x="675.447" y="759" width="82.8026" height="21.0004" fill="#292734"/>
<rect x="1378.29" width="82.8026" height="18.6671" fill="#292734"/>
<rect x="1373.59" y="759" width="82.8026" height="21.0004" fill="#292734"/>
<rect x="758.078" width="79.5554" height="17.5004" fill="#292734"/>
<rect x="753.379" y="759" width="82.8026" height="21.0004" fill="#292734"/>
<rect x="1456.22" width="82.8026" height="18.6671" fill="#292734"/>
<rect x="1453.14" y="759" width="81.179" height="21.0004" fill="#292734"/>
<rect x="1534.15" width="82.8026" height="18.6671" fill="#292734"/>
<rect x="1531.07" y="759" width="81.179" height="21.0004" fill="#292734"/>
<rect y="428.621" width="25.9773" height="82.8351" fill="#292734"/>
<rect x="1645.4" y="429.088" width="27.6009" height="82.8351" fill="#292734"/>
<rect x="1645.4" y="98.914" width="27.6009" height="84.0018" fill="#292734"/>
<rect y="593.125" width="25.9773" height="84.0018" fill="#292734"/>
<rect x="1645.4" y="593.591" width="27.6009" height="84.0018" fill="#292734"/>
<rect y="346.953" width="25.9773" height="81.6684" fill="#292734"/>
<rect x="1645.4" y="347.419" width="27.6009" height="81.6684" fill="#292734"/>
<rect x="25.9773" y="17.9459" width="30.848" height="80.5017" fill="#292734"/>
<rect y="98.4475" width="25.9773" height="84.0018" fill="#292734"/>
<rect x="1615.46" y="17.9459" width="29.2244" height="80.5017" fill="#292734"/>
<rect y="511.456" width="25.9773" height="81.6684" fill="#292734"/>
<rect x="1645.4" y="511.923" width="27.6009" height="81.6684" fill="#292734"/>
<rect y="264.118" width="25.9773" height="82.8351" fill="#292734"/>
<rect x="1645.4" y="264.584" width="27.6009" height="82.8351" fill="#292734"/>
<rect x="93" y="264" width="1483" height="412" fill="#D9D9D9"/>
</svg>
