<svg width="451" height="149" viewBox="0 0 451 149" fill="none" xmlns="http://www.w3.org/2000/svg">
<path d="M48.3521 7.07739L15.8073 29.5964L12.0879 116.134L51.6066 144.443H395.652L439.355 115.49V33.1351L404.021 7.72079L48.3521 7.07739Z" fill="#D58D65"/>
<rect y="40.5342" width="19.5269" height="13.5114" fill="#292734"/>
<rect x="431.452" y="40.5342" width="19.5269" height="13.5114" fill="#292734"/>
<rect x="19.5269" y="121.603" width="19.5269" height="13.5114" fill="#292734"/>
<rect x="411.925" y="121.603" width="19.5269" height="13.5114" fill="#292734"/>
<rect x="39.0537" width="19.5269" height="13.5114" fill="#292734"/>
<rect x="38.1238" y="135.114" width="19.5269" height="13.5114" fill="#292734"/>
<rect x="57.6506" width="19.5269" height="13.5114" fill="#292734"/>
<rect x="56.7212" y="135.114" width="19.5269" height="13.5114" fill="#292734"/>
<rect x="225.024" width="19.5269" height="13.5114" fill="#292734"/>
<rect x="224.094" y="135.114" width="19.5269" height="13.5114" fill="#292734"/>
<rect x="76.248" width="19.5269" height="13.5114" fill="#292734"/>
<rect x="75.3181" y="135.114" width="19.5269" height="13.5114" fill="#292734"/>
<rect x="243.621" width="19.5269" height="13.5114" fill="#292734"/>
<rect x="242.691" y="135.114" width="19.5269" height="13.5114" fill="#292734"/>
<rect x="94.845" width="19.5269" height="13.5114" fill="#292734"/>
<rect x="93.915" y="135.114" width="19.5269" height="13.5114" fill="#292734"/>
<rect x="262.219" width="19.5269" height="13.5114" fill="#292734"/>
<rect x="261.289" y="135.114" width="19.5269" height="13.5114" fill="#292734"/>
<rect x="113.442" width="19.5269" height="13.5114" fill="#292734"/>
<rect x="112.512" y="135.114" width="19.5269" height="13.5114" fill="#292734"/>
<rect x="280.815" width="19.5269" height="13.5114" fill="#292734"/>
<rect x="279.886" y="135.114" width="19.5269" height="13.5114" fill="#292734"/>
<rect x="132.039" width="19.5269" height="13.5114" fill="#292734"/>
<rect x="131.109" y="135.114" width="19.5269" height="13.5114" fill="#292734"/>
<rect x="299.413" width="19.5269" height="13.5114" fill="#292734"/>
<rect x="298.483" y="135.114" width="19.5269" height="13.5114" fill="#292734"/>
<rect x="150.636" width="19.5269" height="13.5114" fill="#292734"/>
<rect x="149.706" y="135.114" width="19.5269" height="13.5114" fill="#292734"/>
<rect x="318.01" width="19.5269" height="13.5114" fill="#292734"/>
<rect x="317.08" y="135.114" width="19.5269" height="13.5114" fill="#292734"/>
<rect x="169.233" width="19.5269" height="13.5114" fill="#292734"/>
<rect x="168.303" y="135.114" width="19.5269" height="13.5114" fill="#292734"/>
<rect x="336.607" width="19.5269" height="13.5114" fill="#292734"/>
<rect x="335.677" y="135.114" width="19.5269" height="13.5114" fill="#292734"/>
<rect x="187.83" width="19.5269" height="13.5114" fill="#292734"/>
<rect x="186.9" y="135.114" width="19.5269" height="13.5114" fill="#292734"/>
<rect x="355.204" width="19.5269" height="13.5114" fill="#292734"/>
<rect x="354.274" y="135.114" width="19.5269" height="13.5114" fill="#292734"/>
<rect x="206.427" width="19.5269" height="13.5114" fill="#292734"/>
<rect x="205.498" y="135.114" width="19.5269" height="13.5114" fill="#292734"/>
<rect x="373.801" width="19.5269" height="13.5114" fill="#292734"/>
<rect x="372.871" y="135.114" width="19.5269" height="13.5114" fill="#292734"/>
<rect x="392.398" width="19.5269" height="13.5114" fill="#292734"/>
<rect x="391.468" y="135.114" width="19.5269" height="13.5114" fill="#292734"/>
<rect y="81.0685" width="19.5269" height="13.5114" fill="#292734"/>
<rect x="431.452" y="81.0685" width="19.5269" height="13.5114" fill="#292734"/>
<rect x="431.452" y="27.0228" width="19.5269" height="13.5114" fill="#292734"/>
<rect y="108.091" width="19.5269" height="13.5114" fill="#292734"/>
<rect x="431.452" y="108.091" width="19.5269" height="13.5114" fill="#292734"/>
<rect y="67.5571" width="19.5269" height="13.5114" fill="#292734"/>
<rect x="431.452" y="67.5571" width="19.5269" height="13.5114" fill="#292734"/>
<rect x="19.5269" y="13.5114" width="19.5269" height="13.5114" fill="#292734"/>
<rect y="27.0228" width="19.5269" height="13.5114" fill="#292734"/>
<rect x="411.925" y="13.5114" width="19.5269" height="13.5114" fill="#292734"/>
<rect y="94.5799" width="19.5269" height="13.5114" fill="#292734"/>
<rect x="431.452" y="94.5799" width="19.5269" height="13.5114" fill="#292734"/>
<rect y="54.0457" width="19.5269" height="13.5114" fill="#292734"/>
<rect x="431.452" y="54.0457" width="19.5269" height="13.5114" fill="#292734"/>
<rect x="19.5269" y="40.5343" width="19.5269" height="13.5114" fill="#DE9F76"/>
<rect x="38.1238" y="13.5115" width="19.5269" height="13.5114" fill="#DE9F76"/>
<rect x="39.0537" y="27.0229" width="19.5269" height="13.5114" fill="#DE9F76"/>
<rect x="56.7212" y="13.5115" width="19.5269" height="13.5114" fill="#DE9F76"/>
<rect x="224.094" y="13.5115" width="19.5269" height="13.5114" fill="#DE9F76"/>
<rect x="75.3181" y="13.5115" width="19.5269" height="13.5114" fill="#DE9F76"/>
<rect x="242.691" y="13.5115" width="19.5269" height="13.5114" fill="#DE9F76"/>
<rect x="93.915" y="13.5115" width="19.5269" height="13.5114" fill="#DE9F76"/>
<rect x="261.289" y="13.5115" width="19.5269" height="13.5114" fill="#DE9F76"/>
<rect x="112.512" y="13.5115" width="19.5269" height="13.5114" fill="#DE9F76"/>
<rect x="279.886" y="13.5115" width="19.5269" height="13.5114" fill="#DE9F76"/>
<rect x="131.109" y="13.5115" width="19.5269" height="13.5114" fill="#DE9F76"/>
<rect x="298.483" y="13.5115" width="19.5269" height="13.5114" fill="#DE9F76"/>
<rect x="149.706" y="13.5115" width="19.5269" height="13.5114" fill="#DE9F76"/>
<rect x="317.08" y="13.5115" width="19.5269" height="13.5114" fill="#DE9F76"/>
<rect x="168.303" y="13.5115" width="19.5269" height="13.5114" fill="#DE9F76"/>
<rect x="335.677" y="13.5115" width="19.5269" height="13.5114" fill="#DE9F76"/>
<rect x="186.9" y="13.5115" width="19.5269" height="13.5114" fill="#DE9F76"/>
<rect x="354.274" y="13.5115" width="19.5269" height="13.5114" fill="#DE9F76"/>
<rect x="205.498" y="13.5115" width="19.5269" height="13.5114" fill="#DE9F76"/>
<rect x="372.871" y="13.5115" width="19.5269" height="13.5114" fill="#DE9F76"/>
<rect x="19.5269" y="81.0685" width="19.5269" height="13.5114" fill="#DE9F76"/>
<rect x="19.5269" y="67.5571" width="19.5269" height="13.5114" fill="#DE9F76"/>
<rect x="19.5269" y="27.0229" width="19.5269" height="13.5114" fill="#DE9F76"/>
<rect x="19.5269" y="94.58" width="19.5269" height="13.5114" fill="#DE9F76"/>
<rect x="19.5269" y="54.0457" width="19.5269" height="13.5114" fill="#DE9F76"/>
<rect x="411.925" y="40.5342" width="19.5269" height="13.5114" fill="#AC644B"/>
<rect x="39.0537" y="121.603" width="19.5269" height="13.5114" fill="#AC644B"/>
<rect x="57.6506" y="121.603" width="19.5269" height="13.5114" fill="#AC644B"/>
<rect x="225.024" y="121.603" width="19.5269" height="13.5114" fill="#AC644B"/>
<rect x="76.248" y="121.603" width="19.5269" height="13.5114" fill="#AC644B"/>
<rect x="243.621" y="121.603" width="19.5269" height="13.5114" fill="#AC644B"/>
<rect x="94.845" y="121.603" width="19.5269" height="13.5114" fill="#AC644B"/>
<rect x="262.219" y="121.603" width="19.5269" height="13.5114" fill="#AC644B"/>
<rect x="113.442" y="121.603" width="19.5269" height="13.5114" fill="#AC644B"/>
<rect x="280.815" y="121.603" width="19.5269" height="13.5114" fill="#AC644B"/>
<rect x="132.039" y="121.603" width="19.5269" height="13.5114" fill="#AC644B"/>
<rect x="299.413" y="121.603" width="19.5269" height="13.5114" fill="#AC644B"/>
<rect x="150.636" y="121.603" width="19.5269" height="13.5114" fill="#AC644B"/>
<rect x="318.01" y="121.603" width="19.5269" height="13.5114" fill="#AC644B"/>
<rect x="169.233" y="121.603" width="19.5269" height="13.5114" fill="#AC644B"/>
<rect x="336.607" y="121.603" width="19.5269" height="13.5114" fill="#AC644B"/>
<rect x="187.83" y="121.603" width="19.5269" height="13.5114" fill="#AC644B"/>
<rect x="355.204" y="121.603" width="19.5269" height="13.5114" fill="#AC644B"/>
<rect x="206.427" y="121.603" width="19.5269" height="13.5114" fill="#AC644B"/>
<rect x="373.801" y="121.603" width="19.5269" height="13.5114" fill="#AC644B"/>
<rect x="411.925" y="81.0686" width="19.5269" height="13.5114" fill="#AC644B"/>
<rect x="411.925" y="27.0228" width="19.5269" height="13.5114" fill="#AC644B"/>
<rect x="411.925" y="108.091" width="19.5269" height="13.5114" fill="#AC644B"/>
<rect x="393.328" y="108.091" width="19.5269" height="13.5114" fill="#AC644B"/>
<rect x="392.398" y="121.603" width="19.5269" height="13.5114" fill="#AC644B"/>
<rect x="411.925" y="67.557" width="19.5269" height="13.5114" fill="#AC644B"/>
<rect x="411.925" y="94.5799" width="19.5269" height="13.5114" fill="#AC644B"/>
<rect x="411.925" y="54.0457" width="19.5269" height="13.5114" fill="#AC644B"/>
<path d="M125.613 97.7776V89.1376H116.877V44.7856H125.613V36.0496H152.685V44.7856H161.517V63.0256H152.685V70.7056H161.517V89.1376H152.685V97.7776H125.613ZM126.573 88.1776H151.725V71.6656H134.253V62.1616H151.725V45.7456H126.573V88.1776ZM180.948 97.7776V89.1376H172.212V62.1616H180.948V53.4256H208.02V62.1616H216.852V88.1776H225.588V97.7776H215.892V89.1376H208.02V97.7776H180.948ZM181.908 88.1776H207.06V63.0256H181.908V88.1776ZM242.096 97.7776V89.1376H233.36V62.1616H242.096V53.4256H269.168V62.1616H278V71.6656H268.208V63.0256H243.056V88.1776H268.208V79.4416H278V89.1376H269.168V97.7776H242.096ZM288.695 97.7776V36.0496H298.391V70.7056H306.071V62.1616H323.543V53.4256H333.335V63.0256H324.503V71.6656H307.031V79.4416H324.503V88.1776H333.335V97.7776H323.543V89.1376H306.071V80.4016H298.391V97.7776H288.695Z" fill="#292734"/>
</svg>
