<svg width="444" height="149" viewBox="0 0 444 149" fill="none" xmlns="http://www.w3.org/2000/svg">
<path d="M47.6018 7.07739L15.5621 29.5964L11.9004 116.134L50.8057 144.443H389.511L432.536 115.49V33.1351L397.75 7.72079L47.6018 7.07739Z" fill="#96B5C9"/>
<rect y="40.5342" width="19.2238" height="13.5114" fill="#292734"/>
<rect x="424.755" y="40.5342" width="19.2238" height="13.5114" fill="#292734"/>
<rect x="19.2236" y="121.603" width="19.2238" height="13.5114" fill="#292734"/>
<rect x="405.531" y="121.603" width="19.2238" height="13.5114" fill="#292734"/>
<rect x="38.4478" width="19.2238" height="13.5114" fill="#292734"/>
<rect x="37.5322" y="135.114" width="19.2238" height="13.5114" fill="#292734"/>
<rect x="56.7559" width="19.2238" height="13.5114" fill="#292734"/>
<rect x="55.8408" y="135.114" width="19.2238" height="13.5114" fill="#292734"/>
<rect x="221.532" width="19.2238" height="13.5114" fill="#292734"/>
<rect x="220.616" y="135.114" width="19.2238" height="13.5114" fill="#292734"/>
<rect x="75.0645" width="19.2238" height="13.5114" fill="#292734"/>
<rect x="74.1489" y="135.114" width="19.2238" height="13.5114" fill="#292734"/>
<rect x="239.84" width="19.2238" height="13.5114" fill="#292734"/>
<rect x="238.924" y="135.114" width="19.2238" height="13.5114" fill="#292734"/>
<rect x="93.373" width="19.2238" height="13.5114" fill="#292734"/>
<rect x="92.4575" y="135.114" width="19.2238" height="13.5114" fill="#292734"/>
<rect x="258.148" width="19.2238" height="13.5114" fill="#292734"/>
<rect x="257.233" y="135.114" width="19.2238" height="13.5114" fill="#292734"/>
<rect x="111.681" width="19.2238" height="13.5114" fill="#292734"/>
<rect x="110.766" y="135.114" width="19.2238" height="13.5114" fill="#292734"/>
<rect x="276.457" width="19.2238" height="13.5114" fill="#292734"/>
<rect x="275.542" y="135.114" width="19.2238" height="13.5114" fill="#292734"/>
<rect x="129.989" width="19.2238" height="13.5114" fill="#292734"/>
<rect x="129.074" y="135.114" width="19.2238" height="13.5114" fill="#292734"/>
<rect x="294.765" width="19.2238" height="13.5114" fill="#292734"/>
<rect x="293.85" y="135.114" width="19.2238" height="13.5114" fill="#292734"/>
<rect x="148.298" width="19.2238" height="13.5114" fill="#292734"/>
<rect x="147.383" y="135.114" width="19.2238" height="13.5114" fill="#292734"/>
<rect x="313.074" width="19.2238" height="13.5114" fill="#292734"/>
<rect x="312.158" y="135.114" width="19.2238" height="13.5114" fill="#292734"/>
<rect x="166.606" width="19.2238" height="13.5114" fill="#292734"/>
<rect x="165.691" y="135.114" width="19.2238" height="13.5114" fill="#292734"/>
<rect x="331.382" width="19.2238" height="13.5114" fill="#292734"/>
<rect x="330.466" y="135.114" width="19.2238" height="13.5114" fill="#292734"/>
<rect x="184.915" width="19.2238" height="13.5114" fill="#292734"/>
<rect x="183.999" y="135.114" width="19.2238" height="13.5114" fill="#292734"/>
<rect x="349.69" width="19.2238" height="13.5114" fill="#292734"/>
<rect x="348.775" y="135.114" width="19.2238" height="13.5114" fill="#292734"/>
<rect x="203.223" width="19.2238" height="13.5114" fill="#292734"/>
<rect x="202.308" y="135.114" width="19.2238" height="13.5114" fill="#292734"/>
<rect x="367.999" width="19.2238" height="13.5114" fill="#292734"/>
<rect x="367.083" y="135.114" width="19.2238" height="13.5114" fill="#292734"/>
<rect x="386.307" width="19.2238" height="13.5114" fill="#292734"/>
<rect x="385.392" y="135.114" width="19.2238" height="13.5114" fill="#292734"/>
<rect y="81.0686" width="19.2238" height="13.5114" fill="#292734"/>
<rect x="424.755" y="81.0684" width="19.2238" height="13.5114" fill="#292734"/>
<rect x="424.755" y="27.0229" width="19.2238" height="13.5114" fill="#292734"/>
<rect y="108.091" width="19.2238" height="13.5114" fill="#292734"/>
<rect x="424.755" y="108.091" width="19.2238" height="13.5114" fill="#292734"/>
<rect y="67.5571" width="19.2238" height="13.5114" fill="#292734"/>
<rect x="424.755" y="67.5571" width="19.2238" height="13.5114" fill="#292734"/>
<rect x="19.2236" y="13.5112" width="19.2238" height="13.5114" fill="#292734"/>
<rect y="27.0227" width="19.2238" height="13.5114" fill="#292734"/>
<rect x="405.531" y="13.5112" width="19.2238" height="13.5114" fill="#292734"/>
<rect y="94.5798" width="19.2238" height="13.5114" fill="#292734"/>
<rect x="424.755" y="94.5801" width="19.2238" height="13.5114" fill="#292734"/>
<rect y="54.0457" width="19.2238" height="13.5114" fill="#292734"/>
<rect x="424.755" y="54.0457" width="19.2238" height="13.5114" fill="#292734"/>
<rect x="19.2236" y="40.5344" width="19.2238" height="13.5114" fill="#B0C2CC"/>
<rect x="37.5317" y="13.5115" width="19.2238" height="13.5114" fill="#B0C2CC"/>
<rect x="38.4473" y="27.0229" width="19.2238" height="13.5114" fill="#B0C2CC"/>
<rect x="55.8403" y="13.5115" width="19.2238" height="13.5114" fill="#B0C2CC"/>
<rect x="220.616" y="13.5115" width="19.2238" height="13.5114" fill="#B0C2CC"/>
<rect x="74.1489" y="13.5115" width="19.2238" height="13.5114" fill="#B0C2CC"/>
<rect x="238.924" y="13.5115" width="19.2238" height="13.5114" fill="#B0C2CC"/>
<rect x="92.457" y="13.5115" width="19.2238" height="13.5114" fill="#B0C2CC"/>
<rect x="257.232" y="13.5115" width="19.2238" height="13.5114" fill="#B0C2CC"/>
<rect x="110.766" y="13.5115" width="19.2238" height="13.5114" fill="#B0C2CC"/>
<rect x="275.541" y="13.5115" width="19.2238" height="13.5114" fill="#B0C2CC"/>
<rect x="129.074" y="13.5115" width="19.2238" height="13.5114" fill="#B0C2CC"/>
<rect x="293.85" y="13.5115" width="19.2238" height="13.5114" fill="#B0C2CC"/>
<rect x="147.382" y="13.5115" width="19.2238" height="13.5114" fill="#B0C2CC"/>
<rect x="312.158" y="13.5115" width="19.2238" height="13.5114" fill="#B0C2CC"/>
<rect x="165.691" y="13.5115" width="19.2238" height="13.5114" fill="#B0C2CC"/>
<rect x="330.466" y="13.5115" width="19.2238" height="13.5114" fill="#B0C2CC"/>
<rect x="183.999" y="13.5115" width="19.2238" height="13.5114" fill="#B0C2CC"/>
<rect x="348.775" y="13.5115" width="19.2238" height="13.5114" fill="#B0C2CC"/>
<rect x="202.308" y="13.5115" width="19.2238" height="13.5114" fill="#B0C2CC"/>
<rect x="367.083" y="13.5115" width="19.2238" height="13.5114" fill="#B0C2CC"/>
<rect x="19.2236" y="81.0686" width="19.2238" height="13.5114" fill="#B0C2CC"/>
<rect x="19.2236" y="67.5571" width="19.2238" height="13.5114" fill="#B0C2CC"/>
<rect x="19.2236" y="27.0229" width="19.2238" height="13.5114" fill="#B0C2CC"/>
<rect x="19.2236" y="94.5801" width="19.2238" height="13.5114" fill="#B0C2CC"/>
<rect x="19.2236" y="54.0457" width="19.2238" height="13.5114" fill="#B0C2CC"/>
<rect x="405.531" y="40.5342" width="19.2238" height="13.5114" fill="#4E6693"/>
<rect x="38.4478" y="121.603" width="19.2238" height="13.5114" fill="#4E6693"/>
<rect x="56.7563" y="121.603" width="19.2238" height="13.5114" fill="#4E6693"/>
<rect x="221.532" y="121.603" width="19.2238" height="13.5114" fill="#4E6693"/>
<rect x="75.0649" y="121.603" width="19.2238" height="13.5114" fill="#4E6693"/>
<rect x="239.84" y="121.603" width="19.2238" height="13.5114" fill="#4E6693"/>
<rect x="93.373" y="121.603" width="19.2238" height="13.5114" fill="#4E6693"/>
<rect x="258.148" y="121.603" width="19.2238" height="13.5114" fill="#4E6693"/>
<rect x="111.682" y="121.603" width="19.2238" height="13.5114" fill="#4E6693"/>
<rect x="276.457" y="121.603" width="19.2238" height="13.5114" fill="#4E6693"/>
<rect x="129.99" y="121.603" width="19.2238" height="13.5114" fill="#4E6693"/>
<rect x="294.766" y="121.603" width="19.2238" height="13.5114" fill="#4E6693"/>
<rect x="148.298" y="121.603" width="19.2238" height="13.5114" fill="#4E6693"/>
<rect x="313.074" y="121.603" width="19.2238" height="13.5114" fill="#4E6693"/>
<rect x="166.606" y="121.603" width="19.2238" height="13.5114" fill="#4E6693"/>
<rect x="331.382" y="121.603" width="19.2238" height="13.5114" fill="#4E6693"/>
<rect x="184.915" y="121.603" width="19.2238" height="13.5114" fill="#4E6693"/>
<rect x="349.69" y="121.603" width="19.2238" height="13.5114" fill="#4E6693"/>
<rect x="203.223" y="121.603" width="19.2238" height="13.5114" fill="#4E6693"/>
<rect x="367.999" y="121.603" width="19.2238" height="13.5114" fill="#4E6693"/>
<rect x="405.531" y="81.0688" width="19.2238" height="13.5114" fill="#4E6693"/>
<rect x="405.531" y="27.0229" width="19.2238" height="13.5114" fill="#4E6693"/>
<rect x="405.531" y="108.092" width="19.2238" height="13.5114" fill="#4E6693"/>
<rect x="387.223" y="108.092" width="19.2238" height="13.5114" fill="#4E6693"/>
<rect x="386.308" y="121.603" width="19.2238" height="13.5114" fill="#4E6693"/>
<rect x="405.531" y="67.5571" width="19.2238" height="13.5114" fill="#4E6693"/>
<rect x="405.531" y="94.5801" width="19.2238" height="13.5114" fill="#4E6693"/>
<rect x="405.531" y="54.0459" width="19.2238" height="13.5114" fill="#4E6693"/>
<path d="M81.9188 92.5055V40.5855H92.0788V61.1455H95.9988V54.2655H106.239V61.1455H110.159V40.5855H120.399V92.5055H110.159V71.9455H92.0788V92.5055H81.9188ZM136.399 92.5055V85.7055H129.359V61.1455H136.399V54.2655H160.719V61.1455H167.839V71.9455H157.599V65.1455H139.519V67.8655H153.679V78.8255H139.519V81.6255H157.599V74.6655H167.839V85.6255H160.719V92.5055H136.399ZM178.363 92.5055V61.1455H185.403V54.2655H209.723V61.1455H216.843V71.9455H206.603V65.1455H188.523V92.5055H178.363ZM231.984 92.5055V85.7055H224.944V61.1455H231.984V54.2655H256.304V61.1455H263.424V85.7055H256.304V92.5055H231.984ZM235.104 81.6255H253.184V65.1455H235.104V81.6255ZM280.987 92.5055V85.7055H273.947V61.1455H280.987V54.2655H305.307V61.1455H312.427V71.9455H302.187V65.1455H284.107V67.8655H298.267V78.8255H284.107V81.6255H302.187V74.6655H312.427V85.6255H305.307V92.5055H280.987ZM322.95 92.5055V81.6255H351.19V78.8255H329.99V71.9455H322.95V61.1455H329.99V54.2655H361.43V65.1455H333.11V67.8655H354.31V74.7455H361.43V85.7055H354.31V92.5055H322.95Z" fill="#292734"/>
</svg>
