<svg width="1767" height="244" viewBox="0 0 1767 244" fill="none" xmlns="http://www.w3.org/2000/svg">
<path d="M150.116 11.5896L15.6305 48.4655L0.260742 190.174L163.565 236.532H1585.27L1765.87 189.121V54.2602L1619.85 12.6432L150.116 11.5896Z" fill="#96B5C9"/>
<rect y="66.1904" width="31" height="23" fill="#292734"/>
<rect x="1733.2" y="66.1904" width="33" height="23" fill="#292734"/>
<rect x="31" y="199.13" width="80.6914" height="22.1255" fill="#292734"/>
<rect x="1652.51" y="199.13" width="80.6914" height="22.1255" fill="#292734"/>
<rect x="111.691" width="80.6914" height="22.1255" fill="#292734"/>
<rect x="107.849" y="221.255" width="80.6914" height="22.1255" fill="#292734"/>
<rect x="188.541" width="80.6914" height="22.1255" fill="#292734"/>
<rect x="184.698" y="221.255" width="80.6914" height="22.1255" fill="#292734"/>
<rect x="880.181" width="80.6914" height="22.1255" fill="#292734"/>
<rect x="876.338" y="221.255" width="80.6914" height="22.1255" fill="#292734"/>
<rect x="265.389" width="80.6914" height="22.1255" fill="#292734"/>
<rect x="261.547" y="221.255" width="80.6914" height="22.1255" fill="#292734"/>
<rect x="957.03" width="80.6914" height="22.1255" fill="#292734"/>
<rect x="953.188" y="221.255" width="80.6914" height="22.1255" fill="#292734"/>
<rect x="342.238" width="80.6914" height="22.1255" fill="#292734"/>
<rect x="338.396" y="221.255" width="80.6914" height="22.1255" fill="#292734"/>
<rect x="1033.88" width="80.6914" height="22.1255" fill="#292734"/>
<rect x="1030.04" y="221.255" width="80.6914" height="22.1255" fill="#292734"/>
<rect x="419.087" width="80.6914" height="22.1255" fill="#292734"/>
<rect x="415.245" y="221.255" width="80.6914" height="22.1255" fill="#292734"/>
<rect x="1110.73" width="80.6914" height="22.1255" fill="#292734"/>
<rect x="1106.89" y="221.255" width="80.6914" height="22.1255" fill="#292734"/>
<rect x="495.936" width="80.6914" height="22.1255" fill="#292734"/>
<rect x="492.094" y="221.255" width="80.6914" height="22.1255" fill="#292734"/>
<rect x="1187.58" width="80.6914" height="22.1255" fill="#292734"/>
<rect x="1183.73" y="221.255" width="80.6914" height="22.1255" fill="#292734"/>
<rect x="572.785" width="80.6914" height="22.1255" fill="#292734"/>
<rect x="568.942" y="221.255" width="80.6914" height="22.1255" fill="#292734"/>
<rect x="1264.43" width="80.6914" height="22.1255" fill="#292734"/>
<rect x="1260.58" y="221.255" width="80.6914" height="22.1255" fill="#292734"/>
<rect x="649.634" width="80.6914" height="22.1255" fill="#292734"/>
<rect x="645.792" y="221.255" width="80.6914" height="22.1255" fill="#292734"/>
<rect x="1341.27" width="80.6914" height="22.1255" fill="#292734"/>
<rect x="1337.43" y="221.255" width="80.6914" height="22.1255" fill="#292734"/>
<rect x="726.483" width="80.6914" height="22.1255" fill="#292734"/>
<rect x="722.641" y="221.255" width="80.6914" height="22.1255" fill="#292734"/>
<rect x="1418.12" width="80.6914" height="22.1255" fill="#292734"/>
<rect x="1414.28" y="221.255" width="80.6914" height="22.1255" fill="#292734"/>
<rect x="803.332" width="80.6914" height="22.1255" fill="#292734"/>
<rect x="799.489" y="221.255" width="80.6914" height="22.1255" fill="#292734"/>
<rect x="1494.97" width="80.6914" height="22.1255" fill="#292734"/>
<rect x="1491.13" y="221.255" width="80.6914" height="22.1255" fill="#292734"/>
<rect x="1571.82" width="80.6914" height="22.1255" fill="#292734"/>
<rect x="1567.98" y="221.255" width="80.6914" height="22.1255" fill="#292734"/>
<rect y="133.19" width="31" height="22" fill="#292734"/>
<rect x="1733.2" y="133.19" width="33" height="22" fill="#292734"/>
<rect x="1733.2" y="44.1904" width="33" height="22" fill="#292734"/>
<rect y="177.19" width="31" height="22" fill="#292734"/>
<rect x="1733.2" y="177.19" width="33" height="22" fill="#292734"/>
<rect y="111.19" width="31" height="22" fill="#292734"/>
<rect x="1733.2" y="111.19" width="33" height="22" fill="#292734"/>
<rect x="31" y="22.1255" width="80.6914" height="22.1255" fill="#292734"/>
<rect y="44.1904" width="31" height="22" fill="#292734"/>
<rect x="1652.51" y="22.1255" width="80.6914" height="22.1255" fill="#292734"/>
<rect y="155.19" width="31" height="22" fill="#292734"/>
<rect x="1733.2" y="155.19" width="33" height="22" fill="#292734"/>
<rect y="89.1904" width="31" height="22" fill="#292734"/>
<rect x="1733.2" y="89.1904" width="33" height="22" fill="#292734"/>
<rect x="31" y="66.1904" width="28" height="23" fill="#B0C2CC"/>
<rect x="107.849" y="22.1255" width="80.6914" height="22.1255" fill="#B0C2CC"/>
<rect x="80" y="44.3137" width="49" height="22" fill="#B0C2CC"/>
<rect x="184.698" y="22.1255" width="80.6914" height="22.1255" fill="#B0C2CC"/>
<rect x="876.338" y="22.1255" width="80.6914" height="22.1255" fill="#B0C2CC"/>
<rect x="261.547" y="22.1255" width="80.6914" height="22.1255" fill="#B0C2CC"/>
<rect x="953.188" y="22.1255" width="80.6914" height="22.1255" fill="#B0C2CC"/>
<rect x="338.396" y="22.1255" width="80.6914" height="22.1255" fill="#B0C2CC"/>
<rect x="1030.04" y="22.1255" width="80.6914" height="22.1255" fill="#B0C2CC"/>
<rect x="415.245" y="22.1255" width="80.6914" height="22.1255" fill="#B0C2CC"/>
<rect x="1106.89" y="22.1255" width="80.6914" height="22.1255" fill="#B0C2CC"/>
<rect x="492.094" y="22.1255" width="80.6914" height="22.1255" fill="#B0C2CC"/>
<rect x="1183.73" y="22.1255" width="80.6914" height="22.1255" fill="#B0C2CC"/>
<rect x="568.942" y="22.1255" width="80.6914" height="22.1255" fill="#B0C2CC"/>
<rect x="1260.58" y="22.1255" width="80.6914" height="22.1255" fill="#B0C2CC"/>
<rect x="645.792" y="22.1255" width="80.6914" height="22.1255" fill="#B0C2CC"/>
<rect x="1337.43" y="22.1255" width="80.6914" height="22.1255" fill="#B0C2CC"/>
<rect x="722.641" y="22.1255" width="80.6914" height="22.1255" fill="#B0C2CC"/>
<rect x="1414.28" y="22.1255" width="80.6914" height="22.1255" fill="#B0C2CC"/>
<rect x="799.489" y="22.1255" width="80.6914" height="22.1255" fill="#B0C2CC"/>
<rect x="1491.13" y="22.1255" width="80.6914" height="22.1255" fill="#B0C2CC"/>
<rect x="31" y="133.19" width="28" height="22" fill="#B0C2CC"/>
<rect x="31" y="111.19" width="28" height="22" fill="#B0C2CC"/>
<rect x="31" y="44.3137" width="49" height="22" fill="#B0C2CC"/>
<rect x="31" y="155.19" width="28" height="22" fill="#B0C2CC"/>
<rect x="31" y="89.1904" width="28" height="22" fill="#B0C2CC"/>
<rect x="1701.2" y="66.1904" width="32" height="23" fill="#3F4E6F"/>
<rect x="111.691" y="199.13" width="80.6914" height="22.1255" fill="#3F4E6F"/>
<rect x="188.541" y="199.13" width="80.6914" height="22.1255" fill="#3F4E6F"/>
<rect x="880.181" y="199.13" width="80.6914" height="22.1255" fill="#3F4E6F"/>
<rect x="265.389" y="199.13" width="80.6914" height="22.1255" fill="#3F4E6F"/>
<rect x="957.03" y="199.13" width="80.6914" height="22.1255" fill="#3F4E6F"/>
<rect x="342.238" y="199.13" width="80.6914" height="22.1255" fill="#3F4E6F"/>
<rect x="1033.88" y="199.13" width="80.6914" height="22.1255" fill="#3F4E6F"/>
<rect x="419.087" y="199.13" width="80.6914" height="22.1255" fill="#3F4E6F"/>
<rect x="1110.73" y="199.13" width="80.6914" height="22.1255" fill="#3F4E6F"/>
<rect x="495.936" y="199.13" width="80.6914" height="22.1255" fill="#3F4E6F"/>
<rect x="1187.58" y="199.13" width="80.6914" height="22.1255" fill="#3F4E6F"/>
<rect x="572.785" y="199.13" width="80.6914" height="22.1255" fill="#3F4E6F"/>
<rect x="1264.43" y="199.13" width="80.6914" height="22.1255" fill="#3F4E6F"/>
<rect x="649.634" y="199.13" width="80.6914" height="22.1255" fill="#3F4E6F"/>
<rect x="1341.27" y="199.13" width="80.6914" height="22.1255" fill="#3F4E6F"/>
<rect x="726.483" y="199.13" width="80.6914" height="22.1255" fill="#3F4E6F"/>
<rect x="1418.12" y="199.13" width="80.6914" height="22.1255" fill="#3F4E6F"/>
<rect x="803.332" y="199.13" width="80.6914" height="22.1255" fill="#3F4E6F"/>
<rect x="1494.97" y="199.13" width="80.6914" height="22.1255" fill="#3F4E6F"/>
<rect x="1701.2" y="133.19" width="32" height="22" fill="#3F4E6F"/>
<rect x="1652.51" y="44.251" width="80.6914" height="22.1255" fill="#3F4E6F"/>
<rect x="1678.2" y="177.067" width="55" height="22" fill="#3F4E6F"/>
<rect x="1626.2" y="177.067" width="55" height="22" fill="#3F4E6F"/>
<rect x="1571.82" y="199.13" width="80.6914" height="22.1255" fill="#3F4E6F"/>
<rect x="1701.2" y="111.19" width="32" height="22" fill="#3F4E6F"/>
<rect x="1701.2" y="155.19" width="32" height="22" fill="#3F4E6F"/>
<rect x="1701.2" y="89.1904" width="32" height="22" fill="#3F4E6F"/>
</svg>
