<svg width="451" height="149" viewBox="0 0 451 149" fill="none" xmlns="http://www.w3.org/2000/svg">
<path d="M48.3143 7.07739L15.7951 29.5964L12.0786 116.134L51.5662 144.443H395.341L439.009 115.49V33.1351L403.703 7.72079L48.3143 7.07739Z" fill="#D58D65"/>
<rect y="40.5342" width="19.5115" height="13.5114" fill="#292734"/>
<rect x="431.111" y="40.5342" width="19.5115" height="13.5114" fill="#292734"/>
<rect x="19.5117" y="121.603" width="19.5115" height="13.5114" fill="#292734"/>
<rect x="411.6" y="121.603" width="19.5115" height="13.5114" fill="#292734"/>
<rect x="39.0229" width="19.5115" height="13.5114" fill="#292734"/>
<rect x="38.0938" y="135.114" width="19.5115" height="13.5114" fill="#292734"/>
<rect x="57.6055" width="19.5115" height="13.5114" fill="#292734"/>
<rect x="56.6763" y="135.114" width="19.5115" height="13.5114" fill="#292734"/>
<rect x="224.847" width="19.5115" height="13.5114" fill="#292734"/>
<rect x="223.918" y="135.114" width="19.5115" height="13.5114" fill="#292734"/>
<rect x="76.188" width="19.5115" height="13.5114" fill="#292734"/>
<rect x="75.2588" y="135.114" width="19.5115" height="13.5114" fill="#292734"/>
<rect x="243.429" width="19.5115" height="13.5114" fill="#292734"/>
<rect x="242.5" y="135.114" width="19.5115" height="13.5114" fill="#292734"/>
<rect x="94.77" width="19.5115" height="13.5114" fill="#292734"/>
<rect x="93.8413" y="135.114" width="19.5115" height="13.5114" fill="#292734"/>
<rect x="262.012" width="19.5115" height="13.5114" fill="#292734"/>
<rect x="261.083" y="135.114" width="19.5115" height="13.5114" fill="#292734"/>
<rect x="113.353" width="19.5115" height="13.5114" fill="#292734"/>
<rect x="112.423" y="135.114" width="19.5115" height="13.5114" fill="#292734"/>
<rect x="280.594" width="19.5115" height="13.5114" fill="#292734"/>
<rect x="279.665" y="135.114" width="19.5115" height="13.5114" fill="#292734"/>
<rect x="131.935" width="19.5115" height="13.5114" fill="#292734"/>
<rect x="131.006" y="135.114" width="19.5115" height="13.5114" fill="#292734"/>
<rect x="299.177" width="19.5115" height="13.5114" fill="#292734"/>
<rect x="298.248" y="135.114" width="19.5115" height="13.5114" fill="#292734"/>
<rect x="150.518" width="19.5115" height="13.5114" fill="#292734"/>
<rect x="149.588" y="135.114" width="19.5115" height="13.5114" fill="#292734"/>
<rect x="317.759" width="19.5115" height="13.5114" fill="#292734"/>
<rect x="316.83" y="135.114" width="19.5115" height="13.5114" fill="#292734"/>
<rect x="169.1" width="19.5115" height="13.5114" fill="#292734"/>
<rect x="168.17" y="135.114" width="19.5115" height="13.5114" fill="#292734"/>
<rect x="336.341" width="19.5115" height="13.5114" fill="#292734"/>
<rect x="335.412" y="135.114" width="19.5115" height="13.5114" fill="#292734"/>
<rect x="187.682" width="19.5115" height="13.5114" fill="#292734"/>
<rect x="186.753" y="135.114" width="19.5115" height="13.5114" fill="#292734"/>
<rect x="354.924" width="19.5115" height="13.5114" fill="#292734"/>
<rect x="353.995" y="135.114" width="19.5115" height="13.5114" fill="#292734"/>
<rect x="206.265" width="19.5115" height="13.5114" fill="#292734"/>
<rect x="205.335" y="135.114" width="19.5115" height="13.5114" fill="#292734"/>
<rect x="373.506" width="19.5115" height="13.5114" fill="#292734"/>
<rect x="372.577" y="135.114" width="19.5115" height="13.5114" fill="#292734"/>
<rect x="392.088" width="19.5115" height="13.5114" fill="#292734"/>
<rect x="391.159" y="135.114" width="19.5115" height="13.5114" fill="#292734"/>
<rect y="81.0686" width="19.5115" height="13.5114" fill="#292734"/>
<rect x="431.111" y="81.0684" width="19.5115" height="13.5114" fill="#292734"/>
<rect x="431.111" y="27.0229" width="19.5115" height="13.5114" fill="#292734"/>
<rect y="108.091" width="19.5115" height="13.5114" fill="#292734"/>
<rect x="431.111" y="108.091" width="19.5115" height="13.5114" fill="#292734"/>
<rect y="67.5571" width="19.5115" height="13.5114" fill="#292734"/>
<rect x="431.111" y="67.5571" width="19.5115" height="13.5114" fill="#292734"/>
<rect x="19.5117" y="13.5112" width="19.5115" height="13.5114" fill="#292734"/>
<rect y="27.0227" width="19.5115" height="13.5114" fill="#292734"/>
<rect x="411.6" y="13.5112" width="19.5115" height="13.5114" fill="#292734"/>
<rect y="94.5798" width="19.5115" height="13.5114" fill="#292734"/>
<rect x="431.111" y="94.5801" width="19.5115" height="13.5114" fill="#292734"/>
<rect y="54.0457" width="19.5115" height="13.5114" fill="#292734"/>
<rect x="431.111" y="54.0457" width="19.5115" height="13.5114" fill="#292734"/>
<rect x="19.5117" y="40.5344" width="19.5115" height="13.5114" fill="#DE9F76"/>
<rect x="38.0942" y="13.5115" width="19.5115" height="13.5114" fill="#DE9F76"/>
<rect x="39.0234" y="27.0229" width="19.5115" height="13.5114" fill="#DE9F76"/>
<rect x="56.6768" y="13.5115" width="19.5115" height="13.5114" fill="#DE9F76"/>
<rect x="223.918" y="13.5115" width="19.5115" height="13.5114" fill="#DE9F76"/>
<rect x="75.2588" y="13.5115" width="19.5115" height="13.5114" fill="#DE9F76"/>
<rect x="242.5" y="13.5115" width="19.5115" height="13.5114" fill="#DE9F76"/>
<rect x="93.8413" y="13.5115" width="19.5115" height="13.5114" fill="#DE9F76"/>
<rect x="261.083" y="13.5115" width="19.5115" height="13.5114" fill="#DE9F76"/>
<rect x="112.424" y="13.5115" width="19.5115" height="13.5114" fill="#DE9F76"/>
<rect x="279.666" y="13.5115" width="19.5115" height="13.5114" fill="#DE9F76"/>
<rect x="131.006" y="13.5115" width="19.5115" height="13.5114" fill="#DE9F76"/>
<rect x="298.248" y="13.5115" width="19.5115" height="13.5114" fill="#DE9F76"/>
<rect x="149.588" y="13.5115" width="19.5115" height="13.5114" fill="#DE9F76"/>
<rect x="316.83" y="13.5115" width="19.5115" height="13.5114" fill="#DE9F76"/>
<rect x="168.171" y="13.5115" width="19.5115" height="13.5114" fill="#DE9F76"/>
<rect x="335.412" y="13.5115" width="19.5115" height="13.5114" fill="#DE9F76"/>
<rect x="186.753" y="13.5115" width="19.5115" height="13.5114" fill="#DE9F76"/>
<rect x="353.995" y="13.5115" width="19.5115" height="13.5114" fill="#DE9F76"/>
<rect x="205.336" y="13.5115" width="19.5115" height="13.5114" fill="#DE9F76"/>
<rect x="372.577" y="13.5115" width="19.5115" height="13.5114" fill="#DE9F76"/>
<rect x="19.5117" y="81.0686" width="19.5115" height="13.5114" fill="#DE9F76"/>
<rect x="19.5117" y="67.5571" width="19.5115" height="13.5114" fill="#DE9F76"/>
<rect x="19.5117" y="27.0229" width="19.5115" height="13.5114" fill="#DE9F76"/>
<rect x="19.5117" y="94.5801" width="19.5115" height="13.5114" fill="#DE9F76"/>
<rect x="19.5117" y="54.0457" width="19.5115" height="13.5114" fill="#DE9F76"/>
<rect x="411.6" y="40.5342" width="19.5115" height="13.5114" fill="#AC644B"/>
<rect x="39.0229" y="121.603" width="19.5115" height="13.5114" fill="#AC644B"/>
<rect x="57.6055" y="121.603" width="19.5115" height="13.5114" fill="#AC644B"/>
<rect x="224.847" y="121.603" width="19.5115" height="13.5114" fill="#AC644B"/>
<rect x="76.188" y="121.603" width="19.5115" height="13.5114" fill="#AC644B"/>
<rect x="243.429" y="121.603" width="19.5115" height="13.5114" fill="#AC644B"/>
<rect x="94.77" y="121.603" width="19.5115" height="13.5114" fill="#AC644B"/>
<rect x="262.012" y="121.603" width="19.5115" height="13.5114" fill="#AC644B"/>
<rect x="113.353" y="121.603" width="19.5115" height="13.5114" fill="#AC644B"/>
<rect x="280.594" y="121.603" width="19.5115" height="13.5114" fill="#AC644B"/>
<rect x="131.935" y="121.603" width="19.5115" height="13.5114" fill="#AC644B"/>
<rect x="299.177" y="121.603" width="19.5115" height="13.5114" fill="#AC644B"/>
<rect x="150.518" y="121.603" width="19.5115" height="13.5114" fill="#AC644B"/>
<rect x="317.759" y="121.603" width="19.5115" height="13.5114" fill="#AC644B"/>
<rect x="169.1" y="121.603" width="19.5115" height="13.5114" fill="#AC644B"/>
<rect x="336.341" y="121.603" width="19.5115" height="13.5114" fill="#AC644B"/>
<rect x="187.682" y="121.603" width="19.5115" height="13.5114" fill="#AC644B"/>
<rect x="354.924" y="121.603" width="19.5115" height="13.5114" fill="#AC644B"/>
<rect x="206.265" y="121.603" width="19.5115" height="13.5114" fill="#AC644B"/>
<rect x="373.506" y="121.603" width="19.5115" height="13.5114" fill="#AC644B"/>
<rect x="411.6" y="81.0688" width="19.5115" height="13.5114" fill="#AC644B"/>
<rect x="411.6" y="27.0229" width="19.5115" height="13.5114" fill="#AC644B"/>
<rect x="411.6" y="108.092" width="19.5115" height="13.5114" fill="#AC644B"/>
<rect x="393.018" y="108.092" width="19.5115" height="13.5114" fill="#AC644B"/>
<rect x="392.088" y="121.603" width="19.5115" height="13.5114" fill="#AC644B"/>
<rect x="411.6" y="67.5571" width="19.5115" height="13.5114" fill="#AC644B"/>
<rect x="411.6" y="94.5801" width="19.5115" height="13.5114" fill="#AC644B"/>
<rect x="411.6" y="54.0459" width="19.5115" height="13.5114" fill="#AC644B"/>
<path d="M81.5161 92.5055V47.4655H88.5561V40.5855H98.7161V47.4655H105.836V61.1455H109.756V47.4655H116.876V40.5855H127.116V47.4655H134.076V92.5055H123.996V51.5455H119.996V65.1455H112.876V85.7055H102.716V65.1455H95.5961V51.5455H91.6761V92.5055H81.5161ZM144.66 92.5055V54.2655H154.82V92.5055H144.66ZM144.66 51.5455V40.5855H154.82V51.5455H144.66ZM165.382 92.5055V81.6255H193.622V78.8255H172.422V71.9455H165.382V61.1455H172.422V54.2655H203.862V65.1455H175.542V67.8655H196.742V74.7455H203.862V85.7055H196.742V92.5055H165.382ZM212.822 92.5055V81.6255H241.062V78.8255H219.862V71.9455H212.822V61.1455H219.862V54.2655H251.302V65.1455H222.982V67.8655H244.182V74.7455H251.302V85.7055H244.182V92.5055H212.822ZM261.825 92.5055V54.2655H271.985V92.5055H261.825ZM261.825 51.5455V40.5855H271.985V51.5455H261.825ZM288.025 92.5055V85.7055H280.985V61.1455H288.025V54.2655H312.345V61.1455H319.465V85.7055H312.345V92.5055H288.025ZM291.145 81.6255H309.225V65.1455H291.145V81.6255ZM329.988 92.5055V54.2655H361.348V61.1455H368.468V92.5055H358.228V65.1455H340.148V92.5055H329.988Z" fill="#292734"/>
</svg>
